<svg xmlns="http://www.w3.org/2000/svg" xmlns:xlink="http://www.w3.org/1999/xlink"><symbol viewBox="0 0 48 36" id="blockquote">
    <!-- Generator: sketchtool 42 (36781) - http://www.bohemiancoding.com/sketch -->
    <title>C791D009-265D-4450-8D8A-E515A740435B</title>
    <desc>Created with sketchtool.</desc>
    <defs/>
    <g id="aaReady-To-Code" stroke="none" stroke-width="1" fill="none" fill-rule="evenodd">
        <g id="aaetalon" transform="translate(-150.000000, -1845.000000)" fill-rule="nonzero" fill="#E6E6E6">
            <g id="aaquote" transform="translate(150.000000, 1845.000000)">
                <path d="M48,36 L30,36 L30,18 L48,0 L48,36 Z M18,36 L0,36 L0,18 L18,0 L18,36 Z" id="aaCombined-Shape"/>
            </g>
        </g>
    </g>
</symbol><symbol viewBox="0 0 77 20" xml:space="preserve" id="bquadro">
		<path class="abst0" d="M71.7315445,4.7308025c-3.4538956,0-5.294754,2.209825-5.294754,5.2584257
			c0,3.0466394,1.8408585,5.2765951,5.294754,5.2765951c3.4579239,0,5.2776337-2.2299557,5.2776337-5.2765951
			C77.0091782,6.9406276,75.1894684,4.7308025,71.7315445,4.7308025z M71.7315445,13.3523827
			c-1.596817,0-2.0998764-1.5424175-2.0998764-3.3813238c0-1.840867,0.4838562-3.4558582,2.0998764-3.4558582
			c1.615097,0,2.0808868,1.6149912,2.0808868,3.4558582C73.8124313,11.8099651,73.3466415,13.3523827,71.7315445,13.3523827z
			 M11.6976252,10.3057432c0,2.9700394,1.9880791,4.9238443,4.7937689,4.9238443
			c0.9466553,0,1.7289658-0.1492758,2.2673264-0.3730869v1.5949631C18.7587204,19.0040264,21.860693,19,21.860693,19V5.4727449
			c-0.8356781-0.4082904-2.2853909-0.7419424-4.1807652-0.7419424C13.4054241,4.7308025,11.6976252,7.2198753,11.6976252,10.3057432
			z M18.7587204,13.2757826c-0.3176498,0.1502056-0.8166828,0.2610788-1.3741455,0.2610788
			c-1.637187,0-2.4921703-1.2430391-2.4921703-3.4558582c0-2.3963685,0.892251-3.7160077,2.6201801-3.7160077
			c0.5383644,0,0.9496479,0.0947685,1.2461357,0.2238111V13.2757826z M5.4532151,4.7670379
			c-1.0585604,0-1.7824364,0.1855111-2.3208013,0.3911533V3.2447505c0.0101168-3.1312909-3.1232386-2.8247893-3.1232386-2.8247893
			v14.1018553c0.7824098,0.4294529,2.2108574,0.7440071,4.1798377,0.7440071c3.8490758,0,5.9852958-2.0606527,5.9852958-5.5367441
			C10.1743088,6.7742147,8.2417698,4.7670379,5.4532151,4.7670379z M4.3583164,13.5580244
			c-0.5584953,0-0.9486163-0.0765991-1.2259026-0.2056417V6.6442432C3.5044689,6.4769011,3.948065,6.4042244,4.5427957,6.4042244
			c1.7652998,0,2.4346685,1.4839873,2.4346685,3.4923C6.9774642,12.1083107,6.1246486,13.5580244,4.3583164,13.5580244z
			 M30.6315498,7.3660545v5.7443476c-0.3537827,0.1492767-0.9113483,0.26015-1.5978546,0.26015
			c-1.2461357,0-1.7672615-0.6693687-1.7672615-1.4860525V4.9888873c0,0-3.092062,0.0220923-3.1384144,2.3771672v4.3511028
			c0,2.3591013,1.5404568,3.548666,4.8300056,3.548666c2.1554203,0,3.8289471-0.3145542,4.8128681-0.7440071V4.9888873
			C33.7708931,4.9888873,30.6769733,5.0109797,30.6315498,7.3660545z M54.135437,2.4755547v2.4971249
			c-0.4072609-0.0937362-1.0776634-0.1864405-1.8388062-0.1864405c-3.0658379,0-5.2030945,2.0615811-5.2030945,5.294764
			c0,3.4196234,2.1171227,5.1848202,5.7242165,5.1848202c1.9870491,0,3.3833923-0.2782154,4.4398842-0.7440071V0.4612547
			C57.1639023,0.4612547,54.2100716,0.4592932,54.135437,2.4755547z M54.135437,13.2596788
			c-0.2591171,0.1290417-0.7248116,0.2217464-1.2440758,0.2217464c-1.8227005,0-2.5999451-1.2430401-2.5999451-3.5304966
			c0-2.0788212,0.8165779-3.5859332,2.7461243-3.5859332c0.4093246,0,0.7823067,0.0392289,1.0978966,0.1119056V13.2596788z
			 M59.5239334,5.4727449v9.5340643h0.0080528c0.1845818-0.0020647,3.0990791-0.0555401,3.1172485-2.7654305
			c0-0.14112,0.007019-0.2640715,0.0141449-0.3780422V6.7187781c0.6149635-0.2590141,1.7298927-0.2418771,2.5848732,0.0363383
			l0.5927658-1.949779c-0.3155823-0.0382996-0.9284821-0.0745349-1.4295807-0.0745349
			C62.1643448,4.7308025,60.6762276,5.0090179,59.5239334,5.4727449z M40.6464767,4.7308025
			c-1.9880791,0-3.5285339,0.4273887-4.3470764,0.7419424l0.668335,1.5988865
			c0.7621765-0.316515,1.9880791-0.5947304,3.0829773-0.5947304c1.3196411,0,2.1946526,0.3366456,2.1946526,1.4497137v0.5020266
			c-3.5869675,0.2963848-6.6728363,1.0031242-6.6728363,3.6595392c0,2.0445471,1.7097626,3.1776428,5.0739479,3.1776428
			c1.9880791,0,3.5869675-0.2974176,4.5537529-0.7440071v-6.113306C45.2002296,5.714725,43.2837944,4.7308025,40.6464767,4.7308025z
			 M42.2453651,13.4451895c-0.3175468,0.147109-0.7994423,0.260047-1.4123459,0.260047
			c-1.4124451,0-2.2884865-0.520196-2.2884865-1.7279291c0-1.7098637,1.5061798-2.0807829,3.7008324-2.2865286V13.4451895z"/>
</symbol><symbol viewBox="0 0 48 48" id="check-circle"><title>66FA7566-F2B4-4CB3-AFE6-67B562E585A4</title><path d="M24 48C10.745 48 0 37.255 0 24S10.745 0 24 0s24 10.745 24 24-10.745 24-24 24zm0-2c12.15 0 22-9.85 22-22S36.15 2 24 2 2 11.85 2 24s9.85 22 22 22zm-1.515-17.201l12.026-12.025a.997.997 0 0 1 1.41.004.994.994 0 0 1 .004 1.41L23.899 30.213 22.485 28.8zm-7.778-6.364c.39-.39 1.03-.385 1.416.002l7.776 7.776-.707.707c-.39.39-1.029.385-1.416-.001L14.71 23.85a.999.999 0 0 1-.002-1.416z" fill="#ED1C24" fill-rule="evenodd"/></symbol><symbol viewBox="0 0 19 19" id="close">
    <g id="adReady-To-Code">
        <g id="adetalon" transform="translate(-1065.000000, -2517.000000)">
            <g id="adclose" transform="translate(1024.000000, 2517.000000)">
                <g id="adicon/close-hover" transform="translate(41.000000, 0.000000)">
                    <path d="M10.916357,9.5 L18.7039836,1.71237341 C19.0949129,1.32144406 19.0974365,0.684795893 18.7063203,0.293679717 C18.3124773,-0.10016325 17.6800333,-0.0963902696 17.2876266,0.296016447 L9.5,8.08364303 L1.71237341,0.296016447 C1.32144406,-0.0949129105 0.684795893,-0.0974364594 0.293679717,0.293679717 C-0.10016325,0.687522684 -0.0963902696,1.3199667 0.296016447,1.71237341 L8.08364303,9.5 L0.296016447,17.2876266 C-0.0949129105,17.6785559 -0.0974364594,18.3152041 0.293679717,18.7063203 C0.687522684,19.1001632 1.3199667,19.0963903 1.71237341,18.7039836 L9.5,10.916357 L17.2876266,18.7039836 C17.6785559,19.0949129 18.3152041,19.0974365 18.7063203,18.7063203 C19.1001632,18.3124773 19.0963903,17.6800333 18.7039836,17.2876266 L10.916357,9.5 Z" id="adCombined-Shape"/>
                </g>
            </g>
        </g>
    </g>
</symbol><symbol viewBox="0 0 24 16" id="cloud-download">
    <!-- Generator: sketchtool 42 (36781) - http://www.bohemiancoding.com/sketch -->
    <title>8C247945-559B-4FEE-B778-63628C761EE5</title>
    <desc>Created with sketchtool.</desc>
    <defs/>
    <g id="aeReady-To-Code" stroke="none" stroke-width="1" fill="none" fill-rule="evenodd">
        <g id="aeDocuments-" transform="translate(-358.000000, -1782.000000)" fill-rule="nonzero" fill="#ED1C24">
            <g id="aedogovor" transform="translate(-1.000000, 1345.000000)">
                <g id="aeGroup-2" transform="translate(151.000000, 280.000000)">
                    <g id="ae1">
                        <g id="aePDF" transform="translate(195.000000, 140.000000)">
                            <g id="aecloud-download" transform="translate(13.000000, 17.000000)">
                                <path d="M19.4,6 C18.7,2.6 15.7,0 12,0 C9.1,0 6.6,1.6 5.4,4 C2.3,4.4 0,6.9 0,10 C0,13.3 2.7,16 6,16 L19,16 C21.8,16 24,13.8 24,11 C24,8.4 21.9,6.2 19.4,6 Z M17,9 L12.5,13 L8,9 L11.0039636,8.99568577 L11,6 L14,6 L14,8.9963087 L17,9 Z" id="aeShape"/>
                            </g>
                        </g>
                    </g>
                </g>
            </g>
        </g>
    </g>
</symbol><symbol viewBox="0 0 104 120" id="d-o-c-icon">
    <!-- Generator: sketchtool 42 (36781) - http://www.bohemiancoding.com/sketch -->
    <title>B54C99C5-93C9-4A94-B700-9E8D0D58BD45</title>
    <desc>Created with sketchtool.</desc>
    <defs/>
    <g id="afReady-To-Code" stroke="none" stroke-width="1" fill="none" fill-rule="evenodd">
        <g id="afDocuments-" transform="translate(-173.000000, -1678.000000)" fill-rule="nonzero">
            <g id="afdogovor" transform="translate(-1.000000, 1345.000000)">
                <g id="afGroup-2" transform="translate(151.000000, 280.000000)">
                    <g id="af1">
                        <g id="afDOC-icon" transform="translate(23.000000, 53.000000)">
                            <path d="M76,24.0001068 L76,4.0001068 L16,4.0001068 L16,20.0001068 L38,20.0001068 C39.1054688,20.0001068 40,20.894638 40,22.0001068 L40,58.0001068 C40,59.1055756 39.1054688,60.0001068 38,60.0001068 L16,60.0001068 L16,116.000107 L100,116.000107 L100,28.0001068 L80,28.0001068 C77.7907716,28.0001068 76,26.2090912 76,24.0001068 Z M92,108.000107 L24,108.000107 L24,100.000107 L92,100.000107 L92,108.000107 Z M92,92.0001068 L24,92.0001068 L24,84.0001068 L92,84.0001068 L92,92.0001068 Z M92,76.0001068 L24,76.0001068 L24,68.0001068 L92,68.0001068 L92,76.0001068 Z M92,60.0001068 L48,60.0001068 L48,52.0001068 L92,52.0001068 L92,60.0001068 Z M92,44.0001068 L48,44.0001068 L48,36.0001068 L92,36.0001068 L92,44.0001068 Z" id="afShape" fill="#FFFFFF"/>
                            <path d="M103.949951,23.7491304 C103.88916,22.7974704 103.531006,21.8741304 102.828369,21.1714936 L82.8283692,1.1714936 C82.0632324,0.4063568 81.0400392,-0.0001372 79.9990236,-0.0001372 C79.9990236,-0.0001372 79.9982912,0.0001068 79.9978028,0.0001068 L14,0.0001068 C12.8945312,0.0001068 12,0.894638 12,2.0001068 L12,20.0001068 L2,20.0001068 C0.8945312,20.0001068 0,20.894638 0,22.0001068 L0,58.0001068 C0,59.1055756 0.8945312,60.0001068 2,60.0001068 L12,60.0001068 L12,118.000107 C12,119.105576 12.8945312,120.000107 14,120.000107 L102,120.000107 C103.105469,120.000107 104,119.105576 104,118.000107 L104,24.0001068 C104,23.9129488 103.961182,23.8343352 103.949951,23.7491304 Z M100,116.000107 L16,116.000107 L16,60.0001068 L38,60.0001068 C39.1054688,60.0001068 40,59.1055756 40,58.0001068 L40,22.0001068 C40,20.894638 39.1054688,20.0001068 38,20.0001068 L16,20.0001068 L16,4.0001068 L76,4.0001068 L76,24.0001068 C76,26.2090912 77.7907716,28.0001068 80,28.0001068 L100,28.0001068 L100,116.000107 Z M4,24.0001068 L36,24.0001068 L36,56.0001068 L4,56.0001068 L4,24.0001068 Z M80,24.0001068 L80,4.0001068 L100,24.0001068 L80,24.0001068 Z" id="afShape" fill="#646464"/>
                            <polygon id="afShape" fill="#DADADA" points="80 4.0001068 80 24.0001068 100 24.0001068"/>
                            <path d="M36,56.0001068 L36,24.0001068 L4,24.0001068 L4,56.0001068 L36,56.0001068 Z M7.5859376,32.9454192 L7.5859376,30.9102632 L14.21875,30.9102632 L14.21875,32.9454196 L11.9980468,32.9454196 L14.90625,45.1797948 C15.0371092,45.8438572 15.1171876,46.5821384 15.1171876,46.5821384 L15.1953124,46.5821384 C15.1953124,46.5821384 15.3027344,45.8438572 15.4609372,45.1797948 L19.3710936,30.9102636 L21.6191404,30.9102636 L25.503906,45.1797948 C25.6874996,45.8438572 25.767578,46.5821384 25.767578,46.5821384 L25.8730468,46.5821384 C25.8730468,46.5821384 25.9257812,45.8438572 26.0585936,45.1797948 L28.9648436,32.9454196 L26.7460936,32.9454196 L26.7460936,30.9102632 L33.40625,30.9102632 L33.40625,32.9454196 L31.607422,32.9454196 L27.4316408,49.5704196 L24.419922,49.5704196 L20.7734376,36.328232 C20.5878908,35.6680756 20.5351564,34.8477632 20.5351564,34.8477632 L20.4296876,34.8477632 C20.4296876,34.8477632 20.3769532,35.6680756 20.1914064,36.328232 L16.544922,49.5704196 L13.53125,49.5704196 L9.3828124,32.9454196 L7.5859376,32.9454196 L7.5859376,32.9454192 Z" id="afShape" fill="#4990E2"/>
                            <path d="M13.53125,49.5704192 L16.544922,49.5704192 L20.1914064,36.328232 C20.3769532,35.6680756 20.4296876,34.8477632 20.4296876,34.8477632 L20.5351564,34.8477632 C20.5351564,34.8477632 20.5878908,35.6680756 20.7734376,36.328232 L24.419922,49.5704196 L27.4316408,49.5704196 L31.607422,32.9454196 L33.40625,32.9454196 L33.40625,30.9102632 L26.7460936,30.9102632 L26.7460936,32.9454196 L28.9648436,32.9454196 L26.0585936,45.1797948 C25.9257812,45.8438572 25.8730468,46.5821384 25.8730468,46.5821384 L25.767578,46.5821384 C25.767578,46.5821384 25.6875,45.8438572 25.503906,45.1797948 L21.6191408,30.9102632 L19.3710936,30.9102632 L15.4609372,45.1797944 C15.302734,45.8438568 15.1953124,46.582138 15.1953124,46.582138 L15.1171876,46.582138 C15.1171876,46.582138 15.0371096,45.8438568 14.90625,45.1797944 L11.9980468,32.9454192 L14.21875,32.9454192 L14.21875,30.9102632 L7.5859376,30.9102632 L7.5859376,32.9454196 L9.3828128,32.9454196 L13.53125,49.5704192 Z" id="afShape" fill="#FFFFFF"/>
                            <rect id="afRectangle-path" fill="#DADADA" x="48" y="36.0001068" width="44" height="8"/>
                            <rect id="afRectangle-path" fill="#DADADA" x="48" y="52.0001068" width="44" height="8"/>
                            <rect id="afRectangle-path" fill="#DADADA" x="24" y="68.0001068" width="68" height="8"/>
                            <rect id="afRectangle-path" fill="#DADADA" x="24" y="84.0001068" width="68" height="8"/>
                            <rect id="afRectangle-path" fill="#DADADA" x="24" y="100.000107" width="68" height="8"/>
                        </g>
                    </g>
                </g>
            </g>
        </g>
    </g>
</symbol><symbol viewBox="0 0 30 20" id="eye-icon">
    <!-- Generator: sketchtool 42 (36781) - http://www.bohemiancoding.com/sketch -->
    <title>939DE5E9-26EF-4061-8788-BA7BB29FE61E</title>
    <desc>Created with sketchtool.</desc>
    <defs/>
    <g id="agReady-To-Code" stroke="none" stroke-width="1" fill="none" fill-rule="evenodd">
        <g id="agDocuments-" transform="translate(-355.000000, -680.000000)" fill-rule="nonzero" fill="#ED1C24">
            <g id="aglicense" transform="translate(0.000000, 245.000000)">
                <g id="ag1" transform="translate(150.000000, 280.000000)">
                    <g id="agPDF" transform="translate(195.000000, 140.000000)">
                        <g id="ageye-icon" transform="translate(10.000000, 15.000000)">
                            <path d="M15,-1.77635684e-15 C8.38303921,-1.77635684e-15 2.68009441,3.97964209 0.0603443652,9.72254145 C-0.0201147884,9.89656871 -0.0201147884,10.1001478 0.0603443652,10.2774585 C2.68009441,16.0203251 8.38307139,20 15,20 C21.6169286,20 27.3199056,16.0203579 29.9396556,10.2774585 C30.0201148,10.1034313 30.0201148,9.89985224 29.9396556,9.72254145 C27.3199056,3.97964209 21.6169608,-1.77635684e-15 15,-1.77635684e-15 Z M15,16.9003776 C11.2634769,16.9003776 8.23821273,13.8105401 8.23821273,10.0016418 C8.23821273,6.18945986 11.2666953,3.10293876 15,3.10293876 C18.7365231,3.10293876 21.7617873,6.19274339 21.7617873,10.0016418 C21.7617873,13.8105401 18.7333047,16.9003776 15,16.9003776 Z" id="agShape"/>
                            <ellipse id="agOval" cx="14.9863344" cy="10.0008197" rx="4.32475884" ry="4.40983607"/>
                        </g>
                    </g>
                </g>
            </g>
        </g>
    </g>
</symbol><symbol viewBox="0 0 10 22" id="facebook">
    <g>
        <g id="ahetalon" transform="translate(-169.000000, -4026.000000)" fill-rule="nonzero" fill="#FFFFFF">
            <g id="ahsocial-networks" transform="translate(157.000000, 4019.000000)">
                <g id="ahnormal">
                    <g id="ahFB">
                        <path d="M14.1614472,11.1499686 L14.1614472,14.1002182 L12,14.1002182 L12,17.7077949 L14.1614472,17.7077949 L14.1614472,28.428244 L18.6015185,28.428244 L18.6015185,17.7080938 L21.5810125,17.7080938 C21.5810125,17.7080938 21.8600552,15.9782884 21.9953169,14.0869162 L18.6183079,14.0869162 L18.6183079,11.6202708 C18.6183079,11.2516017 19.1024103,10.755692 19.580883,10.755692 L22,10.755692 L22,7 L18.7108239,7 C14.0516934,6.9997509 14.1614472,10.6109146 14.1614472,11.1499686 Z" id="ahFacebook"/>
                    </g>
                </g>
            </g>
        </g>
    </g>
</symbol><symbol viewBox="0 0 22 14" id="g">
    <!-- Generator: sketchtool 42 (36781) - http://www.bohemiancoding.com/sketch -->
    <title>02FBF0FF-F827-478F-899D-7A4E57379205</title>
    <desc>Created with sketchtool.</desc>
    <defs/>
    <g id="aiReady-To-Code" stroke="none" stroke-width="1" fill="none" fill-rule="evenodd">
        <g id="aietalon" transform="translate(-260.000000, -4030.000000)" fill-rule="nonzero" fill="#FFFFFF">
            <g id="aisocial-networks" transform="translate(157.000000, 4019.000000)">
                <g id="ainormal">
                    <g id="aitw-copy" transform="translate(96.000000, 0.000000)">
                        <g id="aig+" transform="translate(7.000000, 11.000000)">
                            <path d="M7.67816044,8.44412102 L11.0972529,8.44412102 C10.4970946,10.1405981 8.87164787,11.356924 6.96868706,11.3428862 C4.65969887,11.3258402 2.75048193,9.47905323 2.66084262,7.17216904 C2.56475616,4.69936147 4.54899886,2.65699975 7.00130488,2.65699975 C8.1225842,2.65699975 9.14581903,3.084151 9.91723284,3.78408509 C10.0999499,3.94991298 10.3780849,3.95096343 10.5577933,3.78184094 L11.8136032,2.60013219 C12.0099787,2.4153007 12.0106951,2.10317374 11.8148927,1.91772153 C10.5915095,0.758931687 8.95039866,0.0366516627 7.1406589,0.00131833702 C3.2806767,-0.0740275927 0.027061182,3.09016722 0.000174165664,6.95009431 C-0.0269516341,10.8390043 3.11796965,14 7.00130488,14 C10.7358303,14 13.7866231,11.0764538 13.990974,7.39371854 C13.9964182,7.34754648 14,5.78710267 14,5.78710267 L7.67816044,5.78710267 C7.41903264,5.78710267 7.20899872,5.99709722 7.20899872,6.25617645 L7.20899872,7.97504725 C7.20899872,8.23412647 7.4190804,8.44412102 7.67816044,8.44412102 Z" id="aiShape"/>
                            <path d="M19.7194499,5.95475719 L19.7194499,4.3843704 C19.7194499,4.1720715 19.5186999,4 19.2710178,4 L17.7289822,4 C17.4813001,4 17.2805501,4.1720715 17.2805501,4.3843704 L17.2805501,5.95475719 L15.4484321,5.95475719 C15.2007501,5.95475719 15,6.12682869 15,6.33912759 L15,7.66087241 C15,7.87317131 15.2007501,8.04524281 15.4484321,8.04524281 L17.2805501,8.04524281 L17.2805501,9.6156296 C17.2805501,9.8279285 17.4813001,10 17.7289822,10 L19.2710178,10 C19.5186999,10 19.7194499,9.8279285 19.7194499,9.6156296 L19.7194499,8.04524281 L21.5515679,8.04524281 C21.7992499,8.04524281 22,7.87317131 22,7.66087241 L22,6.33912759 C22,6.12682869 21.7992499,5.95475719 21.5515679,5.95475719 L19.7194499,5.95475719 L19.7194499,5.95475719 Z" id="aiShape"/>
                        </g>
                    </g>
                </g>
            </g>
        </g>
    </g>
</symbol><symbol viewBox="0 0 14 17" id="habr">
    <!-- Generator: sketchtool 42 (36781) - http://www.bohemiancoding.com/sketch -->
    <title>5E1B7546-0245-48AF-95FA-FA72BE846290</title>
    <desc>Created with sketchtool.</desc>
    <defs/>
    <g id="ajReady-To-Code" stroke="none" stroke-width="1" fill="none" fill-rule="evenodd">
        <g id="ajetalon" transform="translate(-408.000000, -4028.000000)" fill="#FFFFFF">
            <g id="ajsocial-networks" transform="translate(157.000000, 4019.000000)">
                <g id="ajnormal">
                    <g id="ajhabr" transform="translate(240.000000, 0.000000)">
                        <path d="M11,9 L15.4545455,9 L15.4545455,25.4705882 L11,25.4705882 L11,9 Z M20.5454545,9 L25,9 L25,25.4705882 L20.5454545,25.4705882 L20.5454545,9 Z M15.4545455,15.9683258 L20.5454545,15.9683258 L20.5454545,19.1357466 L15.4545455,19.1357466 L15.4545455,15.9683258 Z"/>
                    </g>
                </g>
            </g>
        </g>
    </g>
</symbol><symbol viewBox="0 0 12 12" id="increase-icon">
    <!-- Generator: sketchtool 42 (36781) - http://www.bohemiancoding.com/sketch -->
    <title>1162D05F-8960-4B24-9DD8-A106CCBD596C</title>
    <desc>Created with sketchtool.</desc>
    <defs/>
    <g id="akReady-To-Code" stroke="none" stroke-width="1" fill="none" fill-rule="evenodd">
        <g id="aketalon" transform="translate(-1083.000000, -3311.000000)" fill="#BCBCBC">
            <g id="akMessages" transform="translate(735.000000, 3025.000000)">
                <g id="akinput--full" transform="translate(0.000000, 120.000000)">
                    <path d="M360,174 L360,178 L356,178 L360,174 Z M360,170 L360,172.012251 L353.998989,178 L352,177.996064 L360,170 Z M360,166 L360,168.012251 L349.998989,178 L348,177.996064 L360,166 Z" id="akincrease-icon"/>
                </g>
            </g>
        </g>
    </g>
</symbol><symbol viewBox="0 0 25 25" id="info-icon"><title>DB5C7320-9B9B-4973-93C6-57D5693DADBF</title><path d="M12.5 0C5.596 0 0 5.597 0 12.5 0 19.401 5.597 25 12.5 25 19.401 25 25 19.402 25 12.5 25 5.596 19.402 0 12.5 0zm2.602 19.372c-.644.254-1.156.447-1.54.58-.383.134-.829.2-1.336.2-.778 0-1.385-.19-1.816-.57a1.84 1.84 0 0 1-.647-1.447c0-.227.016-.46.048-.697a8.71 8.71 0 0 1 .155-.803l.805-2.845c.071-.273.133-.532.181-.773a3.43 3.43 0 0 0 .072-.67c0-.362-.075-.616-.224-.759-.151-.142-.436-.212-.86-.212-.208 0-.421.03-.64.095a9.095 9.095 0 0 0-.56.186l.212-.876a20.058 20.058 0 0 1 1.514-.551 4.47 4.47 0 0 1 1.365-.231c.773 0 1.37.188 1.79.56.418.374.629.86.629 1.457 0 .124-.015.342-.044.653a4.369 4.369 0 0 1-.16.858l-.802 2.836a8.023 8.023 0 0 0-.176.779 4.118 4.118 0 0 0-.078.662c0 .377.084.634.253.77.168.137.46.206.876.206.195 0 .414-.035.662-.103.245-.067.423-.128.535-.18l-.214.875zm-.142-11.51c-.374.346-.823.52-1.35.52-.524 0-.977-.174-1.354-.52a1.662 1.662 0 0 1-.564-1.263c0-.492.19-.915.564-1.266.377-.351.83-.526 1.355-.526.526 0 .976.175 1.349.526.373.35.56.774.56 1.266 0 .494-.187.915-.56 1.262z" fill-rule="nonzero" fill="#ED1C24"/></symbol><symbol viewBox="0 0 15 28" id="left">
    <g>
        <g id="ametalon" transform="translate(-838.000000, -2513.000000)">
            <g id="amarrow" transform="translate(735.000000, 2513.000000)">
                <g id="amhover" transform="translate(103.000000, 0.000000)">
                    <path d="M1.36363636,-1.13686838e-13 L15,14 L13.6363636,15.4 L0,1.4 L1.36363636,-1.13686838e-13 Z M12.2727273,14 L13.6363636,15.4 L1.36363636,28 L0,26.6 L12.2727273,14 Z" id="amleft" transform="translate(7.500000, 14.000000) scale(-1, 1) translate(-7.500000, -14.000000) "/>
                </g>
            </g>
        </g>
    </g>
</symbol><symbol viewBox="0 0 11 8" id="list-check">
    <path d="M.288 2.523a.938.938 0 0 1 1.392.002l4.168 4.428-.695.739a.938.938 0 0 1-1.392-.002L.291 4.002a1.09 1.09 0 0 1-.003-1.48zM9.325.305a.939.939 0 0 1 1.388.003c.384.407.38 1.073.002 1.474L5.848 6.953l-1.39-1.477L9.325.306z"/></symbol><symbol viewBox="0 0 77 102" id="marker">
    <!-- Generator: sketchtool 42 (36781) - http://www.bohemiancoding.com/sketch -->
    <title>4FD33F6D-4B89-4277-AAFF-77E9C6E0A425</title>
    <desc>Created with sketchtool.</desc>
    <defs/>
    <g id="aoReady-To-Code" stroke="none" stroke-width="1" fill="none" fill-rule="evenodd">
        <g id="aoContacts" transform="translate(-972.000000, -858.000000)">
            <g id="aomarker" transform="translate(972.000000, 858.000000)">
                <g id="aoCapa_1">
                    <circle id="aoOval" fill="#FBFBFB" cx="38.5" cy="38.5" r="27.5"/>
                    <path d="M38.5223616,0 C17.324789,0 0.137334247,17.0992716 0.137334247,38.1880864 C0.137334247,46.7779136 2.98612329,54.6967654 7.79725205,61.0803704 L38.5225726,101.834827 L69.2476822,61.0803704 C74.0592329,54.6967654 76.9076,46.7781235 76.9076,38.1880864 C76.9076,17.0992716 59.7201452,0 38.5223616,0 Z M38.5223616,63.6465309 C24.3904356,63.6465309 12.9326247,52.2479259 12.9326247,38.1880864 C12.9326247,24.1286667 24.3904356,12.7292222 38.5223616,12.7292222 C52.6547096,12.7292222 64.1120986,24.1286667 64.1120986,38.1880864 C64.1120986,52.2481358 52.6549205,63.6465309 38.5223616,63.6465309 Z" id="aoShape" fill="#ED1C24" fill-rule="nonzero"/>
                </g>
            </g>
        </g>
    </g>
</symbol><symbol viewBox="0 0 24 25" id="next">
    <g>
        <g id="apetalon" transform="translate(-845.000000, -3904.000000)">
            <g id="appaging" transform="translate(150.000000, 3895.000000)">
                <g id="aparrow-l-hover" transform="translate(660.000000, 0.000000)">
                    <polygon id="apCombined-Shape" transform="translate(47.239592, 21.500000) scale(-1, 1) translate(-47.239592, -21.500000) " points="59 23 59 20 41.2218254 20 49.6213203 11.6005051 47.5 9.47918472 35.4791847 21.5 47.5 33.5208153 49.6213203 31.3994949 41.2218254 23"/>
                </g>
            </g>
        </g>
    </g>
</symbol><symbol viewBox="0 0 13 21" id="ok">
    <!-- Generator: sketchtool 42 (36781) - http://www.bohemiancoding.com/sketch -->
    <title>0A887C8C-E993-488E-977E-22040E8064AB</title>
    <desc>Created with sketchtool.</desc>
    <defs/>
    <g id="aqReady-To-Code" stroke="none" stroke-width="1" fill="none" fill-rule="evenodd">
        <g id="aqetalon" transform="translate(-360.000000, -4026.000000)" fill-rule="nonzero" fill="#FFFFFF">
            <g id="aqsocial-networks" transform="translate(157.000000, 4019.000000)">
                <g id="aqnormal">
                    <g id="aqok" transform="translate(192.000000, 0.000000)">
                        <g transform="translate(11.000000, 7.000000)" id="aqShape">
                            <path d="M5.43431949,15.0445148 C3.75597931,14.8816421 2.2427069,14.4970345 0.947106282,13.554187 C0.786346597,13.4368849 0.620371859,13.3238022 0.473670143,13.1927867 C-0.093410212,12.6860246 -0.150549056,12.1056323 0.298172264,11.507518 C0.682045532,10.9956925 1.32644472,10.8587697 1.99623895,11.1526579 C2.12593506,11.2096212 2.24950914,11.2807198 2.36786818,11.3570928 C4.78243783,12.9007973 8.09943844,12.9434142 10.5230778,11.4265036 C10.7631969,11.2551918 11.0198683,11.1155263 11.317353,11.0442168 C11.8957705,10.9060281 12.4351884,11.1037117 12.7455974,11.574608 C13.100221,12.1123835 13.0956862,12.6372894 12.6587554,13.054809 C11.9885077,13.6949074 11.1824419,14.1579976 10.2868132,14.4812114 C9.43993387,14.7867033 8.51233461,14.9405041 7.5942585,15.042616 C7.73279752,15.1829144 7.79809906,15.2519033 7.88471429,15.3329177 C9.13133876,16.4983439 10.383405,17.6589177 11.6259481,18.8279305 C12.0492744,19.2262514 12.1377036,19.720144 11.9046134,20.1834452 C11.649756,20.6897854 11.0792745,21.022915 10.5199034,20.9872602 C10.1655065,20.9644749 9.88910867,20.8003363 9.64354768,20.5701625 C8.70279743,19.6893417 7.74436134,18.8247659 6.82265736,17.927278 C6.55442223,17.6663018 6.42540635,17.71567 6.18868828,17.9422572 C5.24226948,18.848817 4.28043227,19.7414525 3.31292652,20.6290246 C2.87848991,21.0275564 2.36151942,21.099288 1.85769993,20.8716459 C1.32213663,20.6300794 0.98134424,20.1214186 1.00764625,19.610226 C1.02578556,19.2644379 1.20853917,19.0002971 1.46362329,18.7633721 C2.6973235,17.6171447 3.92762258,16.4679635 5.15837515,15.3198373 C5.23977533,15.2434643 5.31573371,15.1624499 5.43431949,15.0445148 Z"/>
                            <path d="M6.45967258,10.9999664 C3.45024913,10.9897241 0.982544694,8.49812704 1.00009302,5.4878171 C1.01741344,2.44427676 3.48671318,-0.00839978069 6.52576367,2.16216863e-05 C9.57096746,0.00821541859 12.0151982,2.49617081 11.9999288,5.57134831 C11.9844316,8.5755129 9.49963467,11.0104362 6.45967258,10.9999664 Z M9.19470407,5.49510047 C9.18946236,4.00041536 7.9975438,2.81049396 6.50388524,2.80912833 C4.99769216,2.80753509 3.79506228,4.019079 3.8066852,5.52742045 C3.81785231,7.01641543 5.02002639,8.19791543 6.51778716,8.19245289 C8.01098991,8.18721797 9.19971787,6.98955799 9.19470407,5.49510047 Z"/>
                        </g>
                    </g>
                </g>
            </g>
        </g>
    </g>
</symbol><symbol viewBox="0 0 104 120" id="p-d-f-icon">
    <!-- Generator: sketchtool 42 (36781) - http://www.bohemiancoding.com/sketch -->
    <title>B89EA171-31C9-494F-853E-52F8E3D3AFA1</title>
    <desc>Created with sketchtool.</desc>
    <defs/>
    <g id="arReady-To-Code" stroke="none" stroke-width="1" fill="none" fill-rule="evenodd">
        <g id="arDocuments-" transform="translate(-758.000000, -2533.000000)" fill-rule="nonzero">
            <g id="arrules" transform="translate(0.000000, 2200.000000)">
                <g id="arGroup-2" transform="translate(150.000000, 280.000000)">
                    <g id="ar2" transform="translate(585.000000, 0.000000)">
                        <g id="arPDF-icon" transform="translate(23.000000, 53.000000)">
                            <g id="arGroup">
                                <path d="M76,24.0001068 L76,4.0001068 L16,4.0001068 L16,20.0001068 L70,20.0001068 C71.1054688,20.0001068 72,20.894638 72,22.0001068 L72,50.0001068 C72,51.1055756 71.1054688,52.0001068 70,52.0001068 L16,52.0001068 L16,116.000107 L100,116.000107 L100,28.0001068 L80,28.0001068 C77.7910156,28.0001068 76,26.2090912 76,24.0001068 Z" id="arShape" fill="#FFFFFF"/>
                                <path d="M103.949951,23.7491304 C103.88916,22.7974704 103.531006,21.8741304 102.828369,21.1714936 L82.8283692,1.1714936 C82.0632324,0.4063568 81.0400392,-0.0001372 79.9990236,-0.0001372 C79.9990236,-0.0001372 79.9982912,0.0001068 79.9978028,0.0001068 L14,0.0001068 C12.8945312,0.0001068 12,0.894638 12,2.0001068 L12,20.0001068 L2,20.0001068 C0.8945312,20.0001068 0,20.894638 0,22.0001068 L0,50.0001068 C0,51.1055756 0.8945312,52.0001068 2,52.0001068 L12,52.0001068 L12,118.000107 C12,119.105576 12.8945312,120.000107 14,120.000107 L102,120.000107 C103.105469,120.000107 104,119.105576 104,118.000107 L104,24.0001068 C104,23.9129488 103.961182,23.8343352 103.949951,23.7491304 Z M100,116.000107 L16,116.000107 L16,52.0001068 L70,52.0001068 C71.1054688,52.0001068 72,51.1055756 72,50.0001068 L72,22.0001068 C72,20.894638 71.1054688,20.0001068 70,20.0001068 L16,20.0001068 L16,4.0001068 L76,4.0001068 L76,24.0001068 C76,26.2090912 77.7910156,28.0001068 80,28.0001068 L100,28.0001068 L100,116.000107 Z M4,24.0001068 L68,24.0001068 L68,48.0001068 L4,48.0001068 L4,24.0001068 Z M80,24.0001068 L80,4.0001068 L100,24.0001068 L80,24.0001068 Z" id="arShape" fill="#646464"/>
                                <polygon id="arShape" fill="#DADADA" points="80 4.0001068 80 24.0001068 100 24.0001068"/>
                                <path d="M20.3671876,33.6876068 C20.3671876,32.394638 19.6054688,31.5626068 18.2968752,31.5626068 L16.1210936,31.5626068 L16.1210936,35.8477632 L18.2617184,35.8477632 C19.6054688,35.8477632 20.3671876,35.0001068 20.3671876,33.6876068 Z" id="arShape" fill="#E62F32"/>
                                <path d="M38.7343752,35.8672944 C38.7343752,33.0704192 37.0703128,31.5626068 34.5546876,31.5626068 L32.6640624,31.5626068 L32.6640624,40.2032316 L34.5546872,40.2032316 C37.1054688,40.203232 38.7343752,38.6954192 38.7343752,35.8672944 Z" id="arShape" fill="#E62F32"/>
                                <path d="M68,48.0001068 L68,24.0001068 L4,24.0001068 L4,48.0001068 L68,48.0001068 Z M49.1406248,30.3438568 C49.1406248,29.8672944 49.3867184,29.6016692 49.8632812,29.6016692 L55.6171876,29.6016692 C56.09375,29.6016692 56.3593752,29.867294 56.3593752,30.3438568 L56.3593752,30.8360444 C56.3593752,31.3165132 56.0937504,31.5626068 55.6171876,31.5626068 L51.40625,31.5626068 L51.40625,35.1212004 L54.8398436,35.1212004 C55.316406,35.1212004 55.5820312,35.367294 55.5820312,35.8477628 L55.5820312,36.3438564 C55.5820312,36.8204188 55.3164064,37.086044 54.8398436,37.086044 L51.40625,37.086044 L51.40625,41.4219816 C51.40625,41.9180752 51.15625,42.1641692 50.6796876,42.1641692 L49.8632812,42.1641692 C49.3867188,42.1641692 49.1406248,41.9180756 49.1406248,41.4219816 L49.1406248,30.3438568 Z M30.3984376,30.3438568 C30.3984376,29.8672944 30.6445312,29.6016692 31.121094,29.6016692 L34.6796876,29.6016692 C38.5546876,29.6016692 41.0859376,31.8985444 41.0859376,35.867294 C41.0859376,39.8282316 38.5546876,42.1641692 34.6796876,42.1641692 L31.1210936,42.1641692 C30.6445312,42.1641692 30.3984372,41.9180756 30.3984372,41.4219816 L30.3984372,30.3438568 L30.3984376,30.3438568 Z M13.8554688,30.3438568 C13.8554688,29.8672944 14.1015624,29.6016692 14.5781252,29.6016692 L18.6875,29.6016692 C21.0390624,29.6016692 22.6875,31.242294 22.6875,33.6876068 C22.6875,36.1329196 21.0390624,37.8282316 18.6875,37.8282316 L16.1210936,37.8282316 L16.1210936,41.4219816 C16.1210936,41.9180752 15.8710936,42.1641692 15.3945312,42.1641692 L14.5781248,42.1641692 C14.1015624,42.1641692 13.8554684,41.9180756 13.8554684,41.4219816 L13.8554684,30.3438568 L13.8554688,30.3438568 Z" id="arShape" fill="#E62F32"/>
                                <path d="M14.5781248,42.1641692 L15.3945312,42.1641692 C15.8710936,42.1641692 16.1210936,41.9180756 16.1210936,41.4219816 L16.1210936,37.828232 L18.6875,37.828232 C21.0390624,37.828232 22.6875,36.1329196 22.6875,33.6876072 C22.6875,31.2422948 21.0390624,29.6016696 18.6875,29.6016696 L14.5781248,29.6016696 C14.1015624,29.6016696 13.8554684,29.8672944 13.8554684,30.3438572 L13.8554684,41.421982 C13.8554688,41.9180756 14.1015624,42.1641692 14.5781248,42.1641692 Z M16.1210936,31.5626068 L18.2968748,31.5626068 C19.6054684,31.5626068 20.3671872,32.394638 20.3671872,33.6876068 C20.3671872,35.0001068 19.6054684,35.8477632 18.2617184,35.8477632 L16.1210936,35.8477632 L16.1210936,31.5626068 Z" id="arShape" fill="#FFFFFF"/>
                                <path d="M31.1210936,42.1641692 L34.6796872,42.1641692 C38.5546872,42.1641692 41.0859372,39.8282316 41.0859372,35.867294 C41.0859372,31.898544 38.5546872,29.6016692 34.6796872,29.6016692 L31.1210936,29.6016692 C30.6445312,29.6016692 30.3984372,29.867294 30.3984372,30.3438568 L30.3984372,41.4219816 C30.3984376,41.9180756 30.6445312,42.1641692 31.1210936,42.1641692 Z M32.6640624,31.5626068 L34.5546872,31.5626068 C37.070312,31.5626068 38.7343748,33.0704192 38.7343748,35.8672944 C38.7343748,38.6954192 37.1054684,40.203232 34.5546872,40.203232 L32.6640624,40.203232 L32.6640624,31.5626068 Z" id="arShape" fill="#FFFFFF"/>
                                <path d="M49.8632812,42.1641692 L50.6796876,42.1641692 C51.15625,42.1641692 51.40625,41.9180756 51.40625,41.4219816 L51.40625,37.0860444 L54.8398436,37.0860444 C55.316406,37.0860444 55.5820312,36.8204196 55.5820312,36.3438568 L55.5820312,35.8477632 C55.5820312,35.3672944 55.3164064,35.1212008 54.8398436,35.1212008 L51.40625,35.1212008 L51.40625,31.5626068 L55.6171876,31.5626068 C56.09375,31.5626068 56.3593752,31.3165132 56.3593752,30.8360444 L56.3593752,30.3438568 C56.3593752,29.8672944 56.0937504,29.6016692 55.6171876,29.6016692 L49.8632812,29.6016692 C49.3867188,29.6016692 49.1406248,29.867294 49.1406248,30.3438568 L49.1406248,41.4219816 C49.1406248,41.9180756 49.3867188,42.1641692 49.8632812,42.1641692 Z" id="arShape" fill="#FFFFFF"/>
                            </g>
                        </g>
                    </g>
                </g>
            </g>
        </g>
    </g>
</symbol><symbol viewBox="0 0 36 36" id="plus">
    <path d="M17 17v-6c0-.552.444-1 1-1 .552 0 1 .445 1 1v6h6c.552 0 1 .444 1 1 0 .552-.445 1-1 1h-6v6c0 .552-.444 1-1 1-.552 0-1-.445-1-1v-6h-6c-.552 0-1-.444-1-1 0-.552.445-1 1-1h6zm1 19C8.059 36 0 27.941 0 18S8.059 0 18 0s18 8.059 18 18-8.059 18-18 18zm0-2c8.837 0 16-7.163 16-16S26.837 2 18 2 2 9.163 2 18s7.163 16 16 16z"/></symbol><symbol viewBox="0 0 24 25" id="prev">

    <g>
        <g id="atetalon" transform="translate(-150.000000, -3904.000000)">
            <g id="atpaging" transform="translate(150.000000, 3895.000000)">
                <g id="atarrow-l">
                    <polygon id="atCombined-Shape" points="24 23 24 20 6.22182541 20 14.6213203 11.6005051 12.5 9.47918472 0.47918472 21.5 12.5 33.5208153 14.6213203 31.3994949 6.22182541 23"/>
                </g>
            </g>
        </g>
    </g>
</symbol><symbol viewBox="0 0 15 28" id="right">
    <g>
        <g id="auetalon" transform="translate(-888.000000, -2513.000000)">
            <g id="auarrow" transform="translate(735.000000, 2513.000000)">
                <g id="auhover" transform="translate(103.000000, 0.000000)">
                    <path d="M51.3636364,-1.13686838e-13 L65,14 L63.6363636,15.4 L50,1.4 L51.3636364,-1.13686838e-13 Z M62.2727273,14 L63.6363636,15.4 L51.3636364,28 L50,26.6 L62.2727273,14 Z" id="auright"/>
                </g>
            </g>
        </g>
    </g>
</symbol><symbol viewBox="0 0 25 25" id="search">
    <g>
        <g transform="translate(-972.000000, -2515.000000)">
            <g id="avsearch" transform="translate(932.000000, 2515.000000)">
                <path d="M64.6938776,23.2244898 L58.6836735,17.2142857 C60.1734694,15.3979592 61.0714286,13.0714286 61.0714286,10.5357143 C61.0714286,4.71938776 56.3520408,0 50.5357143,0 C44.7142857,0 40,4.71938776 40,10.5357143 C40,16.3520408 44.7142857,21.0714286 50.5357143,21.0714286 C53.0714286,21.0714286 55.3928571,20.1785714 57.2091837,18.6887755 L63.2193878,24.6938776 C63.627551,25.1020408 64.2857143,25.1020408 64.6938776,24.6938776 C65.1020408,24.2908163 65.1020408,23.627551 64.6938776,23.2244898 Z M50.5357143,18.9744898 C45.877551,18.9744898 42.0918367,15.1887755 42.0918367,10.5357143 C42.0918367,5.88265306 45.877551,2.09183673 50.5357143,2.09183673 C55.1887755,2.09183673 58.9795918,5.88265306 58.9795918,10.5357143 C58.9795918,15.1887755 55.1887755,18.9744898 50.5357143,18.9744898 Z" id="avsearch-hover"/>
            </g>
        </g>
    </g>
</symbol><symbol viewBox="0 0 26 22" id="skype">
    <!-- Generator: sketchtool 42 (36781) - http://www.bohemiancoding.com/sketch -->
    <title>36EFA799-02E2-48CC-A4EE-90B70760A78A</title>
    <desc>Created with sketchtool.</desc>
    <defs/>
    <g id="awReady-To-Code" stroke="none" stroke-width="1" fill="none" fill-rule="evenodd">
        <g id="awContacts" transform="translate(-184.000000, -1159.000000)" fill-rule="nonzero" fill="#00AAF2">
            <g id="awbody" transform="translate(0.000000, 165.000000)">
                <g id="awGroup-5" transform="translate(182.000000, 564.000000)">
                    <g id="awGroup-4-Copy" transform="translate(0.000000, 365.000000)">
                        <path d="M26.9471401,77.884792 C26.5347061,77.3337265 26.343564,76.6606895 26.3443421,75.9805071 C26.3444069,75.9765584 26.3444069,75.9726097 26.3444069,75.9685983 C26.3444069,69.9108262 21.264357,65 14.9978383,65 C13.6269705,65 12.3134194,65.2358575 11.0970603,65.6668946 C10.4390204,65.900057 9.71815253,65.9448718 9.04351413,65.7611624 C8.44758894,65.5988889 7.81101039,65.5304444 7.15154405,65.5743191 C4.38134455,65.7585926 2.15117996,67.953265 2.00762884,70.633943 C1.93909517,71.913453 2.33603283,73.1003875 3.04847173,74.0523419 C3.46090565,74.6034074 3.65204779,75.2764444 3.6512049,75.9566268 L3.6512049,75.9685356 C3.6512049,82.0263077 8.73118994,86.9371339 14.9977735,86.9371339 C16.3687061,86.9371339 17.6822573,86.7012764 18.8985515,86.2702393 C19.5565914,86.0370769 20.2774593,85.9922621 20.9520977,86.1759715 C21.5480229,86.338245 22.1845366,86.4066895 22.8440677,86.3628148 C25.6142672,86.1785413 27.844367,83.9839316 27.987983,81.3033162 C28.0565166,80.0238063 27.659579,78.8368091 26.9471401,77.884792 Z M15.4131899,74.0021368 C17.7010603,74.5280684 21.158347,75.3228262 21.158347,79.0042222 C21.158347,80.8177493 20.2344717,82.2011795 18.5567909,82.8996011 C17.3596239,83.3980171 16.0047061,83.4652707 14.83717,83.4652707 C11.2492997,83.4652707 8.98321487,80.768359 8.88848669,80.6535328 C8.3009256,79.9411339 8.42184829,78.9030598 9.15886076,78.3350712 C9.89567871,77.7668319 10.9695241,77.8840399 11.5572149,78.5962507 C11.5624667,78.6023305 12.9176438,80.1068547 14.83717,80.1657094 C17.1486413,80.2365983 17.676746,79.5717721 17.7450204,79.0042849 C17.8284667,78.3111909 17.1906563,77.8023704 14.6233346,77.2121937 C12.4472448,76.7118974 9.15834206,75.9558746 9.15834206,72.5654302 C9.15834206,71.5096182 9.60254655,68.0647066 15.3187859,68.0647066 C18.9281825,68.0647066 21.0586912,70.8118234 21.1476488,70.9287806 C21.7059032,71.6629288 21.5429007,72.6956125 20.7834543,73.235208 C20.0273146,73.7724843 18.9657884,73.618735 18.4053944,72.8934872 C18.3651949,72.8435328 17.1456588,71.5319316 15.3187859,71.3642678 C13.9364418,71.2373447 12.5716039,71.7192137 12.5716039,72.4310484 C12.5716039,73.1852536 12.963549,73.4389744 15.4131899,74.0021368 Z" id="awskype"/>
                    </g>
                </g>
            </g>
        </g>
    </g>
</symbol><symbol viewBox="0 0 20 16" id="tw">
    <!-- Generator: sketchtool 42 (36781) - http://www.bohemiancoding.com/sketch -->
    <title>3E2FCF41-153F-48AA-8E23-5F6A6CD14108</title>
    <desc>Created with sketchtool.</desc>
    <defs/>
    <g id="axReady-To-Code" stroke="none" stroke-width="1" fill="none" fill-rule="evenodd">
        <g id="axetalon" transform="translate(-214.000000, -4030.000000)" fill-rule="nonzero" fill="#FFFFFF">
            <g id="axsocial-networks" transform="translate(157.000000, 4019.000000)">
                <g id="axnormal">
                    <g id="axtw" transform="translate(48.000000, 0.000000)">
                        <path d="M29,12.8930518 C28.2802457,13.2142948 27.5079598,13.4321581 26.6965307,13.5294225 C27.525055,13.029679 28.1592695,12.2370157 28.4598568,11.2953981 C27.6826819,11.7581927 26.8248243,12.094241 25.9107604,12.2764107 C25.1787999,11.4898948 24.1376565,11 22.9828544,11 C20.7673852,11 18.9710512,12.8093696 18.9710512,15.0396927 C18.9710512,15.3560113 19.0064877,15.6649595 19.0749322,15.9603898 C15.7413436,15.791738 12.7853504,14.1830125 10.8069449,11.7384952 C10.4611113,12.3342479 10.2643732,13.0284238 10.2643732,13.7694295 C10.2643732,15.1713956 10.9731354,16.4084113 12.048501,17.1321334 C11.3910562,17.1099898 10.7727226,16.9278201 10.2313971,16.6250194 L10.2313971,16.6754862 C10.2313971,18.6325548 11.6146993,20.2659021 13.4488983,20.6376441 C13.1128426,20.7287289 12.7584775,20.7791957 12.3918741,20.7791957 C12.1328265,20.7791957 11.8823104,20.7533508 11.6366833,20.7041071 C12.1474612,22.3103864 13.6285413,23.4784609 15.3833358,23.5104854 C14.0110256,24.5936546 12.2806757,25.2373959 10.4012623,25.2373959 C10.0774448,25.2373959 9.75848417,25.2176984 9.44444444,25.1820047 C11.2200087,26.3304138 13.3279541,27 15.5935264,27 C22.9731405,27 27.0069597,20.8432126 27.0069597,15.5037426 L26.9935073,14.9806324 C27.7816741,14.4143937 28.4635314,13.7029665 29,12.8930518 Z"/>
                    </g>
                </g>
            </g>
        </g>
    </g>
</symbol><symbol viewBox="0 0 20 11" id="vk">
    <!-- Generator: sketchtool 42 (36781) - http://www.bohemiancoding.com/sketch -->
    <title>0705C6D6-39CB-4616-9A38-2D10CA0C618D</title>
    <desc>Created with sketchtool.</desc>
    <defs/>
    <g id="ayReady-To-Code" stroke="none" stroke-width="1" fill="none" fill-rule="evenodd">
        <g id="ayetalon" transform="translate(-308.000000, -4032.000000)" fill-rule="nonzero" fill="#FFFFFF">
            <g id="aysocial-networks" transform="translate(157.000000, 4019.000000)">
                <g id="aynormal">
                    <g id="ayvk" transform="translate(144.000000, 0.000000)">
                        <path d="M23.7289675,19.9943012 C24.3737425,20.6238125 25.0542815,21.216091 25.6325736,21.9090836 C25.8880312,22.2170377 26.1298857,22.5348269 26.3149009,22.8922121 C26.5770642,23.4002534 26.3396164,23.9593223 25.8840716,23.9896579 L23.0523242,23.9883806 C22.321971,24.0489879 21.7393361,23.7549563 21.2494323,23.2556005 C20.8573687,22.8562564 20.4942996,22.4312389 20.1173081,22.0184194 C19.9627562,21.8496897 19.8009877,21.6909228 19.607734,21.5654292 C19.2211628,21.314506 18.8856193,21.3913349 18.6647123,21.7945108 C18.4397181,22.2045841 18.3886904,22.65866 18.3665933,23.1156736 C18.3362577,23.7824818 18.1347017,23.9577896 17.4648919,23.9883168 C16.0334353,24.0558214 14.6749118,23.8392573 13.4128874,23.1171425 C12.3002419,22.4805422 11.4374338,21.5818424 10.6864524,20.5644186 C9.22427699,18.5832812 8.10454249,16.4063354 7.0981673,14.1683992 C6.87164028,13.6641897 7.03730453,13.3935324 7.59362731,13.3839528 C8.51742583,13.3660069 9.44109662,13.3672842 10.3659808,13.3826755 C10.7414396,13.3881678 10.9899999,13.6035186 11.1349721,13.9582214 C11.6347748,15.187164 12.2463403,16.3563934 13.0139904,17.4401723 C13.2184203,17.7287116 13.4268737,18.017251 13.7237154,18.2203398 C14.0521062,18.4452063 14.3021353,18.3706766 14.4566233,18.0048613 C14.5546551,17.7729058 14.597572,17.5230683 14.6196691,17.2746358 C14.6928577,16.4199385 14.7025012,15.5667102 14.5741338,14.7150145 C14.4953251,14.1834712 14.1959288,13.8393698 13.665535,13.7387834 C13.3948776,13.6875002 13.4351761,13.5867861 13.5662258,13.4322981 C13.7938385,13.1658558 14.007912,13 14.4346539,13 L17.6349628,13 C18.138789,13.0994369 18.2506794,13.3257723 18.319653,13.8327279 L18.3223992,17.3876119 C18.3169068,17.5838672 18.420431,18.1662466 18.7739205,18.2961468 C19.0568397,18.3886225 19.2433238,18.162287 19.4130754,17.9828919 C20.1793204,17.1696427 20.7261912,16.2085474 21.2147539,15.2133484 C21.4315735,14.7757496 21.6179937,14.3212905 21.7986661,13.8672147 C21.9325259,13.5302661 22.1425759,13.3644741 22.522122,13.3718185 L25.602238,13.3745647 C25.6935641,13.3745647 25.7859759,13.3759058 25.8744281,13.3910417 C26.3934541,13.4794939 26.5356801,13.7027638 26.3753805,14.2095917 C26.1227968,15.0047673 25.6313602,15.6674243 25.1508445,16.3331468 C24.6371831,17.0438937 24.0878216,17.7303082 23.5784391,18.4452702 C23.1104408,19.0981559 23.1476099,19.4272492 23.7289675,19.9943012 L23.7289675,19.9943012 Z"/>
                    </g>
                </g>
            </g>
        </g>
    </g>
</symbol><symbol viewBox="0 0 104 120" id="x-m-l-icon">
    <!-- Generator: sketchtool 42 (36781) - http://www.bohemiancoding.com/sketch -->
    <title>833C8478-011A-410F-87A9-825664AE653D</title>
    <desc>Created with sketchtool.</desc>
    <defs/>
    <g id="azReady-To-Code" stroke="none" stroke-width="1" fill="none" fill-rule="evenodd">
        <g id="azDocuments-" transform="translate(-758.000000, -1958.000000)" fill-rule="nonzero">
            <g id="azdogovor" transform="translate(-1.000000, 1345.000000)">
                <g id="azGroup-2" transform="translate(151.000000, 280.000000)">
                    <g id="az2-copy" transform="translate(585.000000, 280.000000)">
                        <g id="azimg">
                            <g id="azXML-icon" transform="translate(23.000000, 53.000000)">
                                <g id="azGroup">
                                    <path d="M76,24.0001068 L76,4.0001068 L16,4.0001068 L16,20.0001068 L38,20.0001068 C39.1054688,20.0001068 40,20.894638 40,22.0001068 L40,58.0001068 C40,59.1055756 39.1054688,60.0001068 38,60.0001068 L16,60.0001068 L16,116.000107 L100,116.000107 L100,28.0001068 L80,28.0001068 C77.7907716,28.0001068 76,26.2090912 76,24.0001068 Z M40,108.000107 L24,108.000107 L24,100.000107 L40,100.000107 L40,108.000107 Z M40,92.0001068 L24,92.0001068 L24,84.0001068 L40,84.0001068 L40,92.0001068 Z M40,76.0001068 L24,76.0001068 L24,68.0001068 L40,68.0001068 L40,76.0001068 Z M68,108.000107 L48,108.000107 L48,100.000107 L68,100.000107 L68,108.000107 Z M68,92.0001068 L48,92.0001068 L48,84.0001068 L68,84.0001068 L68,92.0001068 Z M68,76.0001068 L48,76.0001068 L48,68.0001068 L68,68.0001068 L68,76.0001068 Z M68,60.0001068 L48,60.0001068 L48,52.0001068 L68,52.0001068 L68,60.0001068 Z M68,44.0001068 L48,44.0001068 L48,36.0001068 L68,36.0001068 L68,44.0001068 Z M92,108.000107 L76,108.000107 L76,100.000107 L92,100.000107 L92,108.000107 Z M92,92.0001068 L76,92.0001068 L76,84.0001068 L92,84.0001068 L92,92.0001068 Z M92,76.0001068 L76,76.0001068 L76,68.0001068 L92,68.0001068 L92,76.0001068 Z M92,60.0001068 L76,60.0001068 L76,52.0001068 L92,52.0001068 L92,60.0001068 Z M92,44.0001068 L76,44.0001068 L76,36.0001068 L92,36.0001068 L92,44.0001068 Z" id="azShape" fill="#FFFFFF"/>
                                    <path d="M103.949951,23.7491304 C103.88916,22.7974704 103.531006,21.8741304 102.828369,21.1714936 L82.8283692,1.1714936 C82.0632324,0.4063568 81.0400392,-0.0001372 79.9990236,-0.0001372 C79.9990236,-0.0001372 79.9982912,0.0001068 79.9978028,0.0001068 L14,0.0001068 C12.8945312,0.0001068 12,0.894638 12,2.0001068 L12,20.0001068 L2,20.0001068 C0.8945312,20.0001068 0,20.894638 0,22.0001068 L0,58.0001068 C0,59.1055756 0.8945312,60.0001068 2,60.0001068 L12,60.0001068 L12,118.000107 C12,119.105576 12.8945312,120.000107 14,120.000107 L102,120.000107 C103.105469,120.000107 104,119.105576 104,118.000107 L104,24.0001068 C104,23.9129488 103.961182,23.8343352 103.949951,23.7491304 Z M100,116.000107 L16,116.000107 L16,60.0001068 L38,60.0001068 C39.1054688,60.0001068 40,59.1055756 40,58.0001068 L40,22.0001068 C40,20.894638 39.1054688,20.0001068 38,20.0001068 L16,20.0001068 L16,4.0001068 L76,4.0001068 L76,24.0001068 C76,26.2090912 77.7907716,28.0001068 80,28.0001068 L100,28.0001068 L100,116.000107 Z M4,24.0001068 L36,24.0001068 L36,56.0001068 L4,56.0001068 L4,24.0001068 Z M80,24.0001068 L80,4.0001068 L100,24.0001068 L80,24.0001068 Z" id="azShape" fill="#646464"/>
                                    <path d="M36,56.0001068 L36,24.0001068 L4,24.0001068 L4,56.0001068 L36,56.0001068 Z M12.4453124,47.5079192 L14.191406,47.5079192 L19,40.1329192 L14.2734376,32.9454192 L12.5546876,32.9454192 L12.5546876,30.9102632 L19.0546876,30.9102632 L19.0546876,32.9454196 L17.0703124,32.9454196 L20.1640624,37.8360444 C20.4531248,38.2305756 20.6406248,38.5743256 20.6406248,38.5743256 L20.6953124,38.5743256 C20.6953124,38.5743256 20.8515624,38.2305756 21.1406248,37.8360444 L24.128906,32.9454196 L22.1992188,32.9454196 L22.1992188,30.9102632 L28.5156252,30.9102632 L28.5156252,32.9454196 L26.7734376,32.9454196 L21.9375,40.3712004 L26.6914064,47.5079192 L28.4609376,47.5079192 L28.4609376,49.5704192 L21.9609376,49.5704192 L21.9609376,47.5079192 L23.9179688,47.5079192 L20.7968752,42.644638 C20.5078128,42.2188568 20.3203128,41.8751068 20.3203128,41.8751068 L20.2695312,41.8751068 C20.2421876,41.8751068 20.1093748,42.2188568 19.847656,42.644638 L16.8359372,47.5079192 L18.789062,47.5079192 L18.789062,49.5704192 L12.4453124,49.5704192 L12.4453124,47.5079192 Z" id="azShape" fill="#009245"/>
                                    <path d="M18.7890624,49.5704192 L18.7890624,47.5079192 L16.8359376,47.5079192 L19.8476564,42.644638 C20.1093752,42.2188568 20.2421876,41.8751068 20.2695316,41.8751068 L20.3203128,41.8751068 C20.3203128,41.8751068 20.5078128,42.2188568 20.7968752,42.644638 L23.9179688,47.5079192 L21.9609376,47.5079192 L21.9609376,49.5704192 L28.4609376,49.5704192 L28.4609376,47.5079192 L26.6914064,47.5079192 L21.9375,40.3712004 L26.7734376,32.9454192 L28.5156252,32.9454192 L28.5156252,30.9102632 L22.1992188,30.9102632 L22.1992188,32.9454196 L24.1289064,32.9454196 L21.1406248,37.8360444 C20.8515624,38.2305756 20.6953124,38.5743256 20.6953124,38.5743256 L20.6406248,38.5743256 C20.6406248,38.5743256 20.4531248,38.2305756 20.1640624,37.8360444 L17.0703124,32.9454192 L19.0546876,32.9454192 L19.0546876,30.9102632 L12.5546876,30.9102632 L12.5546876,32.9454196 L14.2734376,32.9454196 L19,40.1329192 L14.1914064,47.5079192 L12.4453124,47.5079192 L12.4453124,49.5704192 L18.7890624,49.5704192 Z" id="azShape" fill="#FFFFFF"/>
                                    <rect id="azRectangle-path" fill="#DADADA" x="76" y="100.000107" width="16" height="8"/>
                                    <rect id="azRectangle-path" fill="#DADADA" x="76" y="84.0001068" width="16" height="8"/>
                                    <rect id="azRectangle-path" fill="#DADADA" x="76" y="68.0001068" width="16" height="8"/>
                                    <rect id="azRectangle-path" fill="#DADADA" x="76" y="52.0001068" width="16" height="8"/>
                                    <rect id="azRectangle-path" fill="#DADADA" x="76" y="36.0001068" width="16" height="8"/>
                                    <rect id="azRectangle-path" fill="#DADADA" x="48" y="100.000107" width="20" height="8"/>
                                    <rect id="azRectangle-path" fill="#DADADA" x="48" y="84.0001068" width="20" height="8"/>
                                    <rect id="azRectangle-path" fill="#DADADA" x="48" y="68.0001068" width="20" height="8"/>
                                    <rect id="azRectangle-path" fill="#DADADA" x="48" y="52.0001068" width="20" height="8"/>
                                    <rect id="azRectangle-path" fill="#DADADA" x="48" y="36.0001068" width="20" height="8"/>
                                    <rect id="azRectangle-path" fill="#DADADA" x="24" y="100.000107" width="16" height="8"/>
                                    <rect id="azRectangle-path" fill="#DADADA" x="24" y="84.0001068" width="16" height="8"/>
                                    <rect id="azRectangle-path" fill="#DADADA" x="24" y="68.0001068" width="16" height="8"/>
                                    <polygon id="azShape" fill="#DADADA" points="80 4.0001068 80 24.0001068 100 24.0001068"/>
                                </g>
                            </g>
                        </g>
                    </g>
                </g>
            </g>
        </g>
    </g>
</symbol></svg>