<?xml version="1.0" encoding="UTF-8"?>
<svg width="80px" height="57px" viewBox="0 0 80 57" version="1.1" xmlns="http://www.w3.org/2000/svg" xmlns:xlink="http://www.w3.org/1999/xlink">
    <!-- Generator: sketchtool 42 (36781) - http://www.bohemiancoding.com/sketch -->
    <title>6C60AA9E-F180-48B3-A71B-0EC64140A051</title>
    <desc>Created with sketchtool.</desc>
    <defs></defs>
    <g id="Ready-To-Code" stroke="none" stroke-width="1" fill="none" fill-rule="evenodd">
        <g id="Contacts" transform="translate(-289.000000, -2369.000000)" fill-rule="nonzero">
            <g id="Почему-мы" transform="translate(0.000000, 1285.000000)">
                <g id="1-copy-4" transform="translate(246.000000, 1017.000000)">
                    <g id="illustration-3" transform="translate(43.000000, 67.000000)">
                        <path d="M80,27.6363636 L80,41.4545455 C80,45.2702636 76.8853913,48.3636364 73.0434783,48.3636364 L66.0377391,48.3636364 C66.0693913,48.6474273 66.0869565,48.9351909 66.0869565,49.2272727 C66.0869565,53.5200636 62.5831304,57 58.2608696,57 C53.9386087,57 50.4347826,53.5200636 50.4347826,49.2272727 C50.4347826,48.9351909 50.4523478,48.6474273 50.484,48.3636364 L26.0377391,48.3636364 C26.0693913,48.6474273 26.0869565,48.9351909 26.0869565,49.2272727 C26.0869565,53.5200636 22.5831304,57 18.2608696,57 C13.9386087,57 10.4347826,53.5200636 10.4347826,49.2272727 C10.4347826,48.9351909 10.4523478,48.6474273 10.484,48.3636364 L6.95652174,48.3636364 C3.1146087,48.3636364 0,45.2702636 0,41.4545455 L0,6.90909091 C0,3.09337273 3.1146087,0 6.95652174,0 L52.173913,0 C67.541913,0 80,12.3731455 80,27.6363636 Z" id="XMLID_225_" fill="#E6E6E6"></path>
                        <path d="M80,27.4285714 L80,41.1428571 C80,44.9298857 76.8853913,48 73.0434783,48 L60.8695652,48 L60.8695652,17.1428571 L0,17.1428571 L0,6.85714286 C0,3.07011429 3.1146087,0 6.95652174,0 L52.173913,0 C67.541913,0 80,12.2801143 80,27.4285714 Z" id="XMLID_903_" fill="#DADADA"></path>
                        <path d="M17.875,41 C13.525725,41 10,44.5816889 10,49 C10,53.4183111 13.525725,57 17.875,57 C22.224275,57 25.75,53.4183111 25.75,49 C25.75,44.5816889 22.224275,41 17.875,41 Z M17.875,51.6666667 C16.4253,51.6666667 15.25,50.4727111 15.25,49 C15.25,47.5272889 16.4253,46.3333333 17.875,46.3333333 C19.3247,46.3333333 20.5,47.5272889 20.5,49 C20.5,50.4727111 19.3247,51.6666667 17.875,51.6666667 Z M58.125,41 C53.775725,41 50.25,44.5816889 50.25,49 C50.25,53.4183111 53.775725,57 58.125,57 C62.474275,57 66,53.4183111 66,49 C66,44.5816889 62.474275,41 58.125,41 Z M58.125,51.6666667 C56.6753,51.6666667 55.5,50.4727111 55.5,49 C55.5,47.5272889 56.6753,46.3333333 58.125,46.3333333 C59.5747,46.3333333 60.75,47.5272889 60.75,49 C60.75,50.4727111 59.5747,51.6666667 58.125,51.6666667 Z" id="XMLID_1509_" fill="#646464"></path>
                        <path d="M73,35.875 L73,35.875 C73,35.391825 73.391825,35 73.875,35 L80,35 L80,42 L79.125,42 C75.74225,42 73,39.25775 73,35.875 Z" id="XMLID_1145_" fill="#C21A24"></path>
                        <path d="M80,35 L80,40 C77.2385,40 75,37.8101868 75,35.1087488 C75,35.0722275 75.002,35.0363583 75.0028333,35 L80,35 L80,35 Z" id="XMLID_1144_" fill="#ED1C24"></path>
                        <path d="M73,27.5714286 L73,27.5714286 C73,29.4650286 71.4448316,31 69.5263158,31 L62.5789474,31 C61.6196895,31 60.8421053,30.2325143 60.8421053,29.2857143 L60.8421053,27.5714286 C60.8421053,25.6778286 59.2869368,24.1428571 57.3684211,24.1428571 L8.73684211,24.1428571 C7.77758421,24.1428571 7,23.3753714 7,22.4285714 L7,8.71428571 C7,7.76748571 7.77758421,7 8.73684211,7 L52.1578947,7 C63.6686421,7 73,16.2101714 73,27.5714286 Z" id="XMLID_1140_" fill="#898989"></path>
                        <path d="M24.5714286,24 L14,24 L19.2857143,7 L29.8571429,7 L24.5714286,24 Z M45.7142857,24 L35.1428571,24 L40.4285714,7 L51,7 L45.7142857,24 Z" id="XMLID_910_" fill="#B1B1B1"></path>
                    </g>
                </g>
            </g>
        </g>
    </g>
</svg>