<?xml version="1.0" encoding="UTF-8"?>
<svg width="91px" height="48px" viewBox="0 0 91 48" version="1.1" xmlns="http://www.w3.org/2000/svg" xmlns:xlink="http://www.w3.org/1999/xlink">
    <!-- Generator: sketchtool 42 (36781) - http://www.bohemiancoding.com/sketch -->
    <title>77DEEC27-D7C8-48E9-81CE-4CAE3824B3C4</title>
    <desc>Created with sketchtool.</desc>
    <defs></defs>
    <g id="Ready-To-Code" stroke="none" stroke-width="1" fill="none" fill-rule="evenodd">
        <g id="Contacts" transform="translate(-283.000000, -1854.000000)" fill-rule="nonzero">
            <g id="Почему-мы" transform="translate(0.000000, 1285.000000)">
                <g id="1-copy-3" transform="translate(246.000000, 497.000000)">
                    <g id="Group" transform="translate(0.000000, 13.000000)">
                        <g id="illustration-2" transform="translate(37.000000, 59.000000)">
                            <path d="M88.3578553,24.7953719 C87.011527,21.6079339 84.0515702,19.2218182 80.3958467,18.7993388 L66.5316134,17.2006612 L59.1356523,5.06975207 C57.2448963,1.96760331 53.8938164,0.0773553719 50.2852635,0.0773553719 L26.4051339,0.0773553719 C20.1825421,0.0773553719 14.7245076,4.27239669 13.0735356,10.3279339 L12.8868186,11.0122314 C12.3640108,12.9342149 11.3596695,14.6459504 10.0133413,16.012562 C8.66701296,17.381157 6.97476674,18.4026446 5.07614903,18.9441322 C3.02422678,19.5272727 1.60517711,21.4175207 1.60517711,23.5676033 L1.60517711,37.032 L9.15444276,35.2502479 C9.31364363,34.8773554 9.49446436,34.5143802 9.69493952,34.1613223 C11.5797991,30.8667769 15.0881145,28.8198347 18.8539028,28.8198347 C22.6196911,28.8198347 26.126041,30.8667769 28.0089352,34.1613223 C28.2094104,34.5143802 28.3921965,34.8773554 28.549432,35.2502479 L60.6018726,35.2502479 C60.7571425,34.8813223 60.9359978,34.522314 61.1345076,34.1732231 C63.0174017,30.8707438 66.5296479,28.8198347 70.3013326,28.8198347 C74.067121,28.8198347 77.5734708,30.8667769 79.456365,34.1613223 C79.6568402,34.5143802 79.8396263,34.8773554 79.9968618,35.2502479 L88.4128877,35.2502479 L88.4659546,35.2561983 L89.0791728,29.8214876 C89.1047235,29.5993388 89.1224125,29.3791736 89.1322397,29.1590083 C89.2049611,27.6198347 88.9239028,26.1361983 88.3578553,24.7953719 Z" id="Shape" fill="#E6E6E6"></path>
                            <path d="M90.8427646,37.6446942 L90.8427646,37.6446942 C90.8427646,38.9644959 89.7826048,40.0343802 88.4747991,40.0343802 L80.8498639,40.0343802 C80.8596911,39.8519008 80.8655875,39.667438 80.8655875,39.4829752 C80.8655875,38.021157 80.5688056,36.5771901 79.9968618,35.2502479 L88.4761749,35.2550083 C89.7833909,35.2556033 90.8427646,36.3252893 90.8427646,37.6446942 Z" id="Shape" fill="#DADADA"></path>
                            <path d="M78.7036004,39.4829752 C78.7036004,39.667438 78.6977041,39.8519008 78.6859114,40.0343802 C78.4048531,44.4595041 74.7589568,47.962314 70.3013326,47.962314 C65.841743,47.962314 62.1958467,44.4595041 61.9147883,40.0343802 C61.9029957,39.8519008 61.8970994,39.667438 61.8970994,39.4829752 C61.8970994,37.9457851 62.3019806,36.5038017 63.00954,35.2601653 C64.4600367,32.7153719 67.1821749,31.0016529 70.3013326,31.0016529 C73.414594,31.0016529 76.1328013,32.711405 77.5832981,35.2502479 C78.2967538,36.4958678 78.7036004,37.9418182 78.7036004,39.4829752 Z M73.7467538,39.4829752 C73.7467538,37.5649587 72.2019158,36.0039669 70.3013326,36.0039669 C68.398784,36.0039669 66.853946,37.5649587 66.853946,39.4829752 C66.853946,41.4009917 68.398784,42.9619835 70.3013326,42.9619835 C72.2019158,42.9619835 73.7467538,41.4009917 73.7467538,39.4829752 Z" id="Shape" fill="#646464"></path>
                            <path d="M70.3013326,36.0039669 C72.2019158,36.0039669 73.7467538,37.5649587 73.7467538,39.4829752 C73.7467538,41.4009917 72.2019158,42.9619835 70.3013326,42.9619835 C68.398784,42.9619835 66.853946,41.4009917 66.853946,39.4829752 C66.853946,37.5649587 68.398784,36.0039669 70.3013326,36.0039669 Z" id="Shape" fill="#E6E6E6"></path>
                            <path d="M59.7351123,39.4829752 C59.7351123,39.667438 59.7410086,39.8538843 59.7508359,40.0343802 L29.4024341,40.0343802 C29.4122613,39.8499174 29.4181577,39.6654545 29.4181577,39.4829752 C29.4181577,38.021157 29.1213758,36.5771901 28.549432,35.2502479 L60.6018726,35.2502479 C60.0318942,36.581157 59.7351123,38.0231405 59.7351123,39.4829752 Z" id="Shape" fill="#DADADA"></path>
                            <path d="M22.7926501,5.63107438 L22.7926501,17.2006612 L16.2143132,17.2006612 C16.2143132,17.2006612 16.9808359,14.0608264 17.4663002,12.2836364 L17.6530173,11.5993388 C17.7512894,11.2363636 17.8711814,10.8852893 18.0107279,10.5441322 C18.9187624,8.31867769 20.6562138,6.5692562 22.7926501,5.63107438 Z" id="Shape" fill="#B1B1B1"></path>
                            <path d="M39.314162,4.86942149 L39.314162,17.2006612 L25.7408143,17.2006612 L25.7408143,4.89520661 C25.9609438,4.87735537 26.1830389,4.86942149 26.4051339,4.86942149 L39.314162,4.86942149 L39.314162,4.86942149 Z" id="Shape" fill="#B1B1B1"></path>
                            <path d="M60.9556523,17.2006612 L42.2623261,17.2006612 L42.2623261,4.86942149 L50.2852635,4.86942149 C52.2290864,4.86942149 54.0726717,5.90876033 55.0907711,7.58082645 L60.9556523,17.2006612 Z" id="Shape" fill="#B1B1B1"></path>
                            <path d="M27.2384816,40.0343802 C26.9574233,44.4595041 23.311527,47.962314 18.8539028,47.962314 C14.3943132,47.962314 10.7484168,44.4595041 10.4673585,40.0343802 C10.4555659,39.8519008 10.4496695,39.667438 10.4496695,39.4829752 C10.4496695,37.9418182 10.8565162,36.4958678 11.5680065,35.2502479 C13.0204687,32.711405 15.738676,31.0016529 18.8539028,31.0016529 C21.9671641,31.0016529 24.6853715,32.711405 26.1358683,35.2502479 C26.849324,36.4958678 27.2561706,37.9418182 27.2561706,39.4829752 C27.2561706,39.667438 27.2502743,39.8519008 27.2384816,40.0343802 Z M22.3012894,39.4829752 C22.3012894,37.5649587 20.754486,36.0039669 18.8539028,36.0039669 C16.9513542,36.0039669 15.4065162,37.5649587 15.4065162,39.4829752 C15.4065162,41.4009917 16.9513542,42.9619835 18.8539028,42.9619835 C20.754486,42.9619835 22.3012894,41.4009917 22.3012894,39.4829752 Z" id="Shape" fill="#646464"></path>
                            <path d="M18.8539028,36.0039669 C20.754486,36.0039669 22.3012894,37.5649587 22.3012894,39.4829752 C22.3012894,41.4009917 20.754486,42.9619835 18.8539028,42.9619835 C16.9513542,42.9619835 15.4065162,41.4009917 15.4065162,39.4829752 C15.4065162,37.5649587 16.9513542,36.0039669 18.8539028,36.0039669 Z" id="Shape" fill="#E6E6E6"></path>
                            <path d="M8.28768251,39.4829752 C8.28768251,39.667438 8.29357883,39.8519008 8.30340605,40.0343802 L2.37032397,40.0343802 C1.06114255,40.0343802 0,38.9635041 0,37.642314 L0,37.642314 C0,36.321124 1.06114255,35.2502479 2.37032397,35.2502479 L9.15444276,35.2502479 C8.58446436,36.5791736 8.28768251,38.021157 8.28768251,39.4829752 Z" id="Shape" fill="#DADADA"></path>
                            <path d="M50.3617192,23.7284628 L47.2641814,23.7284628 C46.6130302,23.7284628 46.0849158,23.1957025 46.0849158,22.5383802 C46.0849158,21.8810579 46.6130302,21.3482975 47.2641814,21.3482975 L50.3617192,21.3482975 C51.0128704,21.3482975 51.5409849,21.8810579 51.5409849,22.5383802 C51.5409849,23.1957025 51.013067,23.7284628 50.3617192,23.7284628 Z" id="Shape" fill="#D9D9D9"></path>
                            <path d="M29.0918942,23.7284628 L25.9943564,23.7284628 C25.3432052,23.7284628 24.8150907,23.1957025 24.8150907,22.5383802 C24.8150907,21.8810579 25.3432052,21.3482975 25.9943564,21.3482975 L29.0918942,21.3482975 C29.7430454,21.3482975 30.2711598,21.8810579 30.2711598,22.5383802 C30.2711598,23.1957025 29.7430454,23.7284628 29.0918942,23.7284628 Z" id="Shape" fill="#D9D9D9"></path>
                            <path d="M89.1322397,29.1590083 L86.7638812,29.1590083 C84.3758683,29.1590083 82.4399071,27.2052893 82.4399071,24.7953719 L82.4399071,24.7953719 L88.3578553,24.7953719 C89.0084168,26.2304132 89.3032333,27.6436364 89.1322397,29.1590083 Z" id="Shape" fill="#ED1C24"></path>
                            <polygon id="Shape" fill="#898989" points="39.314162 4.89520661 39.314162 17.2006612 37.9324557 17.2006612 25.7408143 4.89520661"></polygon>
                            <path d="M60.9556523,17.2006612 L54.4814838,17.2006612 L42.2623261,4.86942149 L50.2852635,4.86942149 C52.2290864,4.86942149 54.0726717,5.90876033 55.0907711,7.58082645 L60.9556523,17.2006612 Z" id="Shape" fill="#898989"></path>
                            <path d="M22.7926501,5.63107438 L22.7926501,15.3699174 L18.0107279,10.5441322 C18.9187624,8.31867769 20.6562138,6.5692562 22.7926501,5.63107438 Z" id="Shape" fill="#898989"></path>
                        </g>
                    </g>
                </g>
            </g>
        </g>
    </g>
</svg>