<?xml version="1.0" encoding="UTF-8"?>
<svg width="67px" height="78px" viewBox="0 0 67 78" version="1.1" xmlns="http://www.w3.org/2000/svg" xmlns:xlink="http://www.w3.org/1999/xlink">
    <!-- Generator: sketchtool 42 (36781) - http://www.bohemiancoding.com/sketch -->
    <title>D86485FB-01F7-420F-B8B8-38325FBDECAE</title>
    <desc>Created with sketchtool.</desc>
    <defs></defs>
    <g id="Ready-To-Code" stroke="none" stroke-width="1" fill="none" fill-rule="evenodd">
        <g id="Contacts" transform="translate(-295.000000, -1479.000000)">
            <g id="Почему-мы" transform="translate(0.000000, 1285.000000)">
                <g id="1" transform="translate(246.000000, 144.000000)">
                    <g id="Group" transform="translate(0.000000, 6.000000)">
                        <g id="illustration-1" transform="translate(49.000000, 44.000000)">
                            <path d="M6.44013962,18.5 L10.4401396,18.5 L10.4401396,15.5 L6.44013962,15.5 L6.44013962,18.5 Z M13.4401396,18.5 L17.4401396,18.5 L17.4401396,15.5 L13.4401396,15.5 L13.4401396,18.5 Z M20.4401396,18.5 L24.4401396,18.5 L24.4401396,15.5 L20.4401396,15.5 L20.4401396,18.5 Z M27.4401396,18.5 L31.4401396,18.5 L31.4401396,15.5 L27.4401396,15.5 L27.4401396,18.5 Z M34.4401396,18.5 L38.4401396,18.5 L38.4401396,15.5 L34.4401396,15.5 L34.4401396,18.5 Z M41.4401396,18.5 L45.4401396,18.5 L45.4401396,15.5 L41.4401396,15.5 L41.4401396,18.5 Z M48.331874,18.5119039 C49.3684159,18.5867307 50.3304243,19.0140474 51.07806,19.7147582 L53.1295755,17.5258581 C51.8844078,16.3588424 50.2761113,15.6444495 48.5478785,15.5196903 L48.331874,18.5119039 Z M52.2867116,21.6236701 C52.4274538,22.0638472 52.5,22.5265216 52.5,23.0014193 L52.5,25.0731372 L55.5,25.0731372 L55.5,23.0014193 C55.5,22.2156241 55.3791342,21.4447846 55.1441995,20.7100168 L52.2867116,21.6236701 Z M52.5,28.0731372 L52.5,32.0731372 L55.5,32.0731372 L55.5,28.0731372 L52.5,28.0731372 Z M52.3253489,34.6425994 C52.0413084,35.6314436 51.4223038,36.4936445 50.5809642,37.0835765 L52.303299,39.5399077 C53.7037452,38.5579402 54.734337,37.1224466 55.208752,35.4708424 L52.3253489,34.6425994 Z M48.4116182,37.8765699 C48.2759096,37.8887526 48.1389929,37.894889 48.0010878,37.894889 L44.6883824,37.894889 L44.6883824,40.894889 L48.0010878,40.894889 C48.2285623,40.894889 48.4549805,40.8847413 48.679854,40.8645541 L48.4116182,37.8765699 Z M41.6883824,37.894889 L37.6883824,37.894889 L37.6883824,40.894889 L41.6883824,40.894889 L41.6883824,37.894889 Z M34.6883824,37.894889 L30.6883824,37.894889 L30.6883824,40.894889 L34.6883824,40.894889 L34.6883824,37.894889 Z M27.6883824,37.894889 L23.6883824,37.894889 L23.6883824,40.894889 L27.6883824,40.894889 L27.6883824,37.894889 Z M20.6883824,37.894889 L16.9932448,37.894889 C16.8727144,37.894889 16.7524106,37.8971475 16.6323773,37.9016549 L16.7449524,40.8995419 C16.8274806,40.8964429 16.9102528,40.894889 16.9932448,40.894889 L20.6883824,40.894889 L20.6883824,37.894889 Z M13.1512024,38.7062506 C11.6820589,39.3580583 10.400824,40.3754032 9.42974571,41.6545153 L11.8191742,43.4685251 C12.4849368,42.5915772 13.3632212,41.8941891 14.3678329,41.4484778 L13.1512024,38.7062506 Z M7.813467,44.9657591 C7.60604181,45.7517948 7.5,46.565325 7.5,47.3911825 L7.5,49.2184366 L10.5,49.2184366 L10.5,47.3911825 C10.5,46.8243114 10.5725091,46.2680373 10.7141689,45.7312188 L7.813467,44.9657591 Z M7.5,52.2184366 L7.5,56.2184366 L10.5,56.2184366 L10.5,52.2184366 L7.5,52.2184366 Z M7.86269591,59.6088851 C8.30470821,61.1591976 9.13624991,62.5667536 10.2697261,63.70451 L12.3950404,61.5871911 C11.6182947,60.8075122 11.0494677,59.8446553 10.7477265,58.786329 L7.86269591,59.6088851 Z M13.280266,65.7439968 C14.4458531,66.2406205 15.7039572,66.5 16.994904,66.5 L17.7307931,66.5 L17.7307931,63.5 L16.994904,63.5 C16.1100892,63.5 15.2517702,63.323043 14.4561926,62.9840699 L13.280266,65.7439968 Z M20.7307931,66.5 L24.7307931,66.5 L24.7307931,63.5 L20.7307931,63.5 L20.7307931,66.5 Z M27.7307931,66.5 L31.7307931,66.5 L31.7307931,63.5 L27.7307931,63.5 L27.7307931,66.5 Z M34.7307931,66.5 L38.7307931,66.5 L38.7307931,63.5 L34.7307931,63.5 L34.7307931,66.5 Z M41.7307931,66.5 L45.7307931,66.5 L45.7307931,63.5 L41.7307931,63.5 L41.7307931,66.5 Z M48.7307931,66.5 L52.7307931,66.5 L52.7307931,63.5 L48.7307931,63.5 L48.7307931,66.5 Z" id="Path-2" fill="#DADADA" fill-rule="nonzero"></path>
                            <g id="Group-8" transform="translate(43.000000, 45.000000)">
                                <circle id="Oval-4" fill="#FFFFFF" cx="11.5" cy="11.5" r="9.5"></circle>
                                <path d="M11.999967,0 C5.37315992,0 0,5.5410902 0,12.3750085 C0,15.1585778 0.890591381,17.7247147 2.39465144,19.7933485 L12.000033,33 L21.6053486,19.7933485 C23.1095405,17.7247147 24,15.1586458 24,12.3750085 C24,5.5410902 18.6268401,0 11.999967,0 Z M12,21 C7.02975219,21 3,16.9704294 3,12.0000742 C3,7.02986736 7.02975219,3 12,3 C16.9703962,3 21,7.02986736 21,12.0000742 C21,16.9705036 16.9704704,21 12,21 Z" id="Shape" fill="#ED1C24" fill-rule="nonzero"></path>
                            </g>
                            <g id="Group-6">
                                <circle id="Oval-4-Copy" fill="#FFFFFF" cx="10" cy="9" r="8"></circle>
                                <path d="M9.49997389,0 C4.2537516,0 0,4.53361926 0,10.125007 C0,12.4024727 0.70505151,14.5020393 1.89576572,16.1945579 L9.50002611,27 L17.1042343,16.1945579 C18.2950529,14.5020393 19,12.4025284 19,10.125007 C19,4.53361926 14.7462484,0 9.49997389,0 Z M9.5,16 C5.91037658,16 3,13.0897546 3,9.50005358 C3,5.91045976 5.91037658,3 9.5,3 C13.0897306,3 16,5.91045976 16,9.50005358 C16,13.0898082 13.0897842,16 9.5,16 Z" id="Shape-Copy" fill="#646464" fill-rule="nonzero"></path>
                            </g>
                        </g>
                    </g>
                </g>
            </g>
        </g>
    </g>
</svg>