<?xml version="1.0" encoding="UTF-8"?>
<svg width="85px" height="77px" viewBox="0 0 85 77" version="1.1" xmlns="http://www.w3.org/2000/svg" xmlns:xlink="http://www.w3.org/1999/xlink">
    <!-- Generator: sketchtool 42 (36781) - http://www.bohemiancoding.com/sketch -->
    <title>07F82A77-8DC9-4ABF-9CA6-64BA7BD16923</title>
    <desc>Created with sketchtool.</desc>
    <defs></defs>
    <g id="Ready-To-Code" stroke="none" stroke-width="1" fill="none" fill-rule="evenodd">
        <g id="Index" transform="translate(-385.000000, -3551.000000)">
            <g id="Почему-мы" transform="translate(0.000000, 2915.000000)">
                <g id="3" transform="translate(345.000000, 600.000000)">
                    <g id="Group">
                        <g id="illustration_9" transform="translate(40.000000, 36.000000)">
                            <path d="M81.015625,51.2781796 C79.6875,51.2781796 74.375,53.9686059 63.75,59.3494584 L21.25,59.3494584 L21.25,68.7659504 L25.234375,68.7659504 L49.140625,76.8372292 L54.453125,76.8372292 C79.6875,60.6946716 79.6875,60.6946716 83.6439844,58.0378756 C84.4315625,57.5092068 85,56.6590321 85,55.313819 C85,52.6233927 83.2163281,51.2781796 81.015625,51.2781796" id="Fill-7" fill="#E6E6E6"></path>
                            <path d="M38.515625,59.3494584 C38.515625,59.3494584 38.515625,59.3494584 38.515625,64.730311 C47.8125,64.730311 57.109375,62.0398847 59.765625,59.3494584 L38.515625,59.3494584" id="Fill-8" fill="#C2C1C1"></path>
                            <path d="M59.9263281,53.8058351 C59.1480469,53.0175402 58.129375,52.6233927 57.109375,52.6233927 L42.5,52.6233927 L29.21875,47.2425402 L21.25,47.2425402 L21.25,64.730311 L38.515625,64.730311 C38.515625,63.6971873 38.9047656,62.6640636 39.6830469,61.8771139 C40.4613281,61.088819 41.48,60.6946716 42.5,60.6946716 L57.109375,60.6946716 C58.129375,60.6946716 59.1480469,60.3005241 59.9263281,59.5122292 C60.7046094,58.7239343 61.09375,57.6908106 61.09375,56.6590321 C61.09375,55.6259085 60.7046094,54.5927848 59.9263281,53.8058351" id="Fill-9" fill="#E6E6E6"></path>
                            <g id="Group-14" transform="translate(0.000000, 41.082635)">
                                <polygon id="Fill-10" fill="#C21A24" points="15.9375 32.7545947 21.25 32.7545947 21.25 0.469479385 15.9375 0.469479385"></polygon>
                                <polygon id="Fill-12" fill="#ED1C24" points="0.0796875 32.7545947 15.9375 32.7545947 15.9375 0.469479385 0.0796875 0.469479385"></polygon>
                                <path d="M11.953125,30.7771314 L11.953125,28.0867051 M11.953125,25.3962788 L11.953125,22.7058526" id="Stroke-13" stroke="#FFFFFF" stroke-width="1.41666667"></path>
                            </g>
                            <path d="M61.09375,30.0641684 C61.09375,35.2647624 56.9314063,39.4806604 51.796875,39.4806604 C46.6623437,39.4806604 42.5,35.2647624 42.5,30.0641684 C42.5,24.8622292 46.6623437,20.6476765 51.796875,20.6476765 C56.9314063,20.6476765 61.09375,24.8622292 61.09375,30.0641684" id="Fill-15" fill="#C21A24"></path>
                            <path d="M57.109375,30.0641684 C57.109375,33.0357442 54.7307031,35.445021 51.796875,35.445021 C48.8630469,35.445021 46.484375,33.0357442 46.484375,30.0641684 C46.484375,27.0925926 48.8630469,24.6833159 51.796875,24.6833159 C54.7307031,24.6833159 57.109375,27.0925926 57.109375,30.0641684" id="Fill-16" fill="#ED1C24"></path>
                            <path d="M51.796875,8.54075821 L51.796875,0.469479385 M57.109375,12.5763976 L57.109375,4.5051188 M46.484375,16.612037 L46.484375,11.2311845 M46.484375,8.54075821 L46.484375,5.85033194" id="Stroke-17" stroke="#DADADA" stroke-width="1.41666667"></path>
                        </g>
                    </g>
                </g>
            </g>
        </g>
    </g>
</svg>