<?xml version="1.0" encoding="UTF-8"?>
<svg width="85px" height="85px" viewBox="0 0 85 85" version="1.1" xmlns="http://www.w3.org/2000/svg" xmlns:xlink="http://www.w3.org/1999/xlink">
    <!-- Generator: sketchtool 42 (36781) - http://www.bohemiancoding.com/sketch -->
    <title>1E99C04B-75F9-4C7D-A0D5-B66165DD81A8</title>
    <desc>Created with sketchtool.</desc>
    <defs>
        <polygon id="path-1" points="0.0796875 36.0256154 0.0796875 0.717923077 75.703125 0.717923077 75.703125 36.0256154 0.0796875 36.0256154"></polygon>
    </defs>
    <g id="Ready-To-Code" stroke="none" stroke-width="1" fill="none" fill-rule="evenodd">
        <g id="Index" transform="translate(-385.000000, -4045.000000)">
            <g id="Почему-мы" transform="translate(0.000000, 2915.000000)">
                <g id="5" transform="translate(345.000000, 1090.000000)">
                    <g id="Group">
                        <g id="illustration_11" transform="translate(40.000000, 40.000000)">
                            <polyline id="Fill-11" fill="#ED1C24" points="50.46875 12.4871538 50.46875 30.7948462 73.046875 30.7948462 78.359375 36.0256154 78.359375 30.7948462 82.34375 30.7948462 82.34375 12.4871538 50.46875 12.4871538"></polyline>
                            <g id="Group-16" transform="translate(2.656250, 0.000000)">
                                <path d="M57.109375,21.641 L59.765625,21.641 M62.421875,21.641 L65.078125,21.641 M67.734375,21.641 L70.390625,21.641" id="Stroke-12" stroke="#FFFFFF" stroke-width="1.54545455"></path>
                                <polyline id="Fill-14" fill="#DADADA" points="0 0.717923077 0 26.8717692 3.984375 26.8717692 3.984375 32.1025385 9.296875 26.8717692 39.84375 26.8717692 39.84375 0.717923077 0 0.717923077"></polyline>
                                <path d="M6.640625,8.56407692 L33.203125,8.56407692 M6.640625,13.7948462 L33.203125,13.7948462 M6.640625,19.0256154 L25.234375,19.0256154" id="Stroke-15" stroke="#646464" stroke-width="1.54545455"></path>
                            </g>
                            <path d="M84.2057813,60.0466154 C83.6678906,59.1887692 82.9175,58.5388462 82.0635156,58.1177692 L74.375,54.3333077 L63.75,54.3333077 L56.0614844,58.1177692 C55.2075,58.5388462 54.4571094,59.1887692 53.9192187,60.0466154 C53.3786719,60.9044615 53.125,61.8564615 53.125,62.7966923 L53.125,66.1025385 L54.0839062,66.572 C56.33375,67.6809231 58.745625,68.5570769 61.3035938,69.1494615 C63.8602344,69.7444615 66.5457031,70.0256154 69.0625,70.0256154 C71.5792969,70.0256154 74.2647656,69.7444615 76.8214062,69.1494615 C79.379375,68.5570769 81.79125,67.6809231 84.0410938,66.572 L85,66.1025385 L85,62.7966923 C85,61.8564615 84.7463281,60.9044615 84.2057813,60.0466154" id="Fill-17" fill="#E6E6E6"></path>
                            <path d="M73.8251562,53.7919231 C73.5847656,53.5552308 73.386875,53.2701538 73.24875,52.9432308 C73.1119531,52.615 73.046875,52.2763077 73.046875,51.9428462 L73.046875,49.1025385 L65.078125,49.1025385 L65.078125,51.9428462 C65.078125,52.2763077 65.0130469,52.615 64.87625,52.9432308 C64.738125,53.2701538 64.5402344,53.5552308 64.2998438,53.7919231 L63.75,54.3333077 C63.75,57.222 66.1286719,59.5640769 69.0625,59.5640769 C71.9963281,59.5640769 74.375,57.222 74.375,54.3333077 L73.8251562,53.7919231" id="Fill-18" fill="#DADADA"></path>
                            <g id="Group-22" transform="translate(0.000000, 34.000000)">
                                <mask id="mask-2" fill="white">
                                    <use xlink:href="#path-1"></use>
                                </mask>
                                <g id="Clip-20"></g>
                                <path d="M73.7574219,2.63369231 C72.4625,1.35607692 70.7611719,0.717923077 69.0625,0.717923077 C67.3638281,0.717923077 65.6625,1.35607692 64.3675781,2.63369231 C63.07,3.91 62.421875,5.58384615 62.421875,7.25638462 L62.421875,9.87176923 L62.4245313,9.87176923 C62.4245313,13.3711538 64.6358594,17.7179231 69.0625,17.7179231 C73.4878125,17.7179231 75.7004687,13.3711538 75.7004687,9.87176923 L75.703125,9.87176923 L75.703125,7.25638462 C75.703125,5.58384615 75.055,3.91 73.7574219,2.63369231" id="Fill-19" fill="#E6E6E6" mask="url(#mask-2)"></path>
                                <path d="M31.0807813,26.0466154 C30.5428906,25.1887692 29.7925,24.5388462 28.9385156,24.1177692 L21.25,20.3333077 L10.625,20.3333077 L2.93648438,24.1177692 C2.0825,24.5388462 1.33210938,25.1887692 0.79421875,26.0466154 C0.253671875,26.9044615 0,27.8564615 0,28.7966923 L0,32.1025385 L0.95890625,32.572 C3.20875,33.6809231 5.620625,34.5570769 8.17859375,35.1494615 C10.7352344,35.7444615 13.4207031,36.0256154 15.9375,36.0256154 C18.4529688,36.0256154 21.1397656,35.7444615 23.6964062,35.1494615 C26.254375,34.5570769 28.66625,33.6809231 30.9160938,32.572 L31.875,32.1025385 L31.875,28.7966923 C31.875,27.8564615 31.6213281,26.9044615 31.0807813,26.0466154" id="Fill-21" fill="#E6E6E6" mask="url(#mask-2)"></path>
                            </g>
                            <path d="M20.7001562,53.7919231 C20.4597656,53.5552308 20.261875,53.2701538 20.12375,52.9432308 C19.9869531,52.615 19.921875,52.2763077 19.921875,51.9428462 L19.921875,49.1025385 L11.953125,49.1025385 L11.953125,51.9428462 C11.953125,52.2763077 11.8880469,52.615 11.75125,52.9432308 C11.613125,53.2701538 11.4152344,53.5552308 11.1748437,53.7919231 L10.625,54.3333077 C10.625,57.222 13.0036719,59.5640769 15.9375,59.5640769 C18.8713281,59.5640769 21.25,57.222 21.25,54.3333077 L20.7001562,53.7919231" id="Fill-23" fill="#DADADA"></path>
                            <path d="M20.6324219,36.6336923 C19.3375,35.3560769 17.6361719,34.7179231 15.9375,34.7179231 C14.2388281,34.7179231 12.5375,35.3560769 11.2425781,36.6336923 C9.945,37.91 9.296875,39.5838462 9.296875,41.2563846 L9.296875,43.8717692 L9.29953125,43.8717692 C9.29953125,47.3711538 11.5108594,51.7179231 15.9375,51.7179231 C20.3628125,51.7179231 22.5754687,47.3711538 22.5754687,43.8717692 L22.578125,43.8717692 L22.578125,41.2563846 C22.578125,39.5838462 21.93,37.91 20.6324219,36.6336923" id="Fill-24" fill="#E6E6E6"></path>
                            <path d="M49.9189062,53.7919231 C49.6785156,53.5552308 49.480625,53.2701538 49.3425,52.9432308 C49.2057031,52.615 49.140625,52.2763077 49.140625,51.9428462 L49.140625,46.4871538 L35.859375,46.4871538 L35.859375,51.9428462 C35.859375,52.2763077 35.7942969,52.615 35.6575,52.9432308 C35.519375,53.2701538 35.3214844,53.5552308 35.0810938,53.7919231 L34.53125,54.3333077 L34.53125,63.4871538 L50.46875,63.4871538 L50.46875,54.3333077 L49.9189062,53.7919231" id="Fill-25" fill="#DADADA"></path>
                            <path d="M58.4375,58.2563846 C55.78125,56.9486923 53.125,55.641 53.125,55.641 C52.4503125,60.7789231 47.9014844,64.7948462 42.5,64.7948462 C37.0985156,64.7948462 32.5496875,60.7789231 31.875,55.641 L26.5625,58.2563846 C20.708125,61.1385385 15.9375,63.4871538 15.9375,70.0256154 L15.9375,76.5640769 L25.2582812,80.7983846 C27.81625,81.9609231 30.5389062,82.875 33.4063281,83.4961538 C36.2750781,84.116 39.6817188,84.4102308 42.5,84.4102308 C45.3182812,84.4102308 48.72625,84.116 51.5936719,83.4961538 C54.4610937,82.875 57.18375,81.9609231 59.7417187,80.7983846 L69.0625,76.5640769 L69.0625,70.0256154 C69.0625,63.4871538 64.291875,61.1385385 58.4375,58.2563846" id="Fill-26" fill="#ED1C24"></path>
                            <path d="M53.125,32.1025385 L49.140625,28.1794615 L35.859375,28.1794615 L31.875,32.1025385 L30.546875,32.1025385 L30.546875,37.3333077 C30.546875,37.6680769 30.6770312,38.0028462 30.9360156,38.2578462 C31.195,38.5128462 31.535,38.641 31.875,38.641 C31.875,44.0221538 35.4157813,50.4102308 42.5,50.4102308 C49.5828906,50.4102308 53.125,44.0221538 53.125,38.641 C53.465,38.641 53.805,38.5128462 54.0639844,38.2578462 C54.3229688,38.0028462 54.453125,37.6680769 54.453125,37.3333077 L54.453125,32.1025385 L53.125,32.1025385" id="Fill-27" fill="#E6E6E6"></path>
                            <path d="M50.9521875,22.474 C48.6173438,20.1750769 45.56,19.0256154 42.5,19.0256154 C39.44,19.0256154 36.3826563,20.1750769 34.0478125,22.474 C31.7142969,24.7703077 30.546875,27.7832308 30.546875,30.7948462 L30.546875,34.7179231 L31.875,34.7179231 C32.215,34.7179231 32.555,34.5897692 32.8139844,34.3347692 C33.0729688,34.0797692 33.203125,33.745 33.203125,33.4102308 C33.203125,32.7406923 33.4621094,32.0711538 33.9814062,31.5611538 C34.5007031,31.0498462 35.179375,30.7948462 35.859375,30.7948462 L43.828125,30.7948462 L46.484375,28.1794615 C46.484375,28.849 46.7433594,29.5172308 47.2626562,30.0285385 C47.7819531,30.5398462 48.460625,30.7948462 49.140625,30.7948462 C49.820625,30.7948462 50.4992969,31.0498462 51.0185937,31.5611538 C51.5378906,32.0711538 51.796875,32.7406923 51.796875,33.4102308 C51.796875,33.745 51.9270312,34.0797692 52.1860156,34.3347692 C52.445,34.5897692 52.785,34.7179231 53.125,34.7179231 L54.453125,34.7179231 L54.453125,30.7948462 C54.453125,27.7832308 53.2857031,24.7703077 50.9521875,22.474" id="Fill-28" fill="#646464"></path>
                            <path d="M31.875,55.641 C32.5496875,60.7789231 37.0985156,64.7948462 42.5,64.7948462 C47.9014844,64.7948462 52.4503125,60.7789231 53.125,55.641 C51.6985938,54.8995385 50.46875,54.3333077 50.46875,54.3333077 C50.46875,58.6656923 46.9000781,62.1794615 42.5,62.1794615 C38.0999219,62.1794615 34.53125,58.6656923 34.53125,54.3333077 C34.53125,54.3333077 33.3014062,54.8995385 31.875,55.641" id="Fill-29" fill="#C21A24"></path>
                        </g>
                    </g>
                </g>
            </g>
        </g>
    </g>
</svg>