<?xml version="1.0" encoding="UTF-8"?>
<svg width="80px" height="102px" viewBox="0 0 80 102" version="1.1" xmlns="http://www.w3.org/2000/svg" xmlns:xlink="http://www.w3.org/1999/xlink">
    <!-- Generator: sketchtool 42 (36781) - http://www.bohemiancoding.com/sketch -->
    <title>DE67766F-226D-4009-A967-4C39AD87F8B7</title>
    <desc>Created with sketchtool.</desc>
    <defs></defs>
    <g id="Ready-To-Code" stroke="none" stroke-width="1" fill="none" fill-rule="evenodd">
        <g id="Index" transform="translate(-290.000000, -848.000000)">
            <g id="Услуги" transform="translate(150.000000, 695.000000)">
                <g id="1" transform="translate(0.000000, 100.000000)">
                    <g id="illustration_1" transform="translate(142.000000, 55.000000)">
                        <rect id="Rectangle-path" fill="#FFFFFF" fill-rule="nonzero" x="6.90909091" y="24.9347213" width="62.1818182" height="8.56647148"></rect>
                        <rect id="Rectangle-path" fill="#FFFFFF" fill-rule="nonzero" x="6.90909091" y="57.4873129" width="62.1818182" height="8.56647148"></rect>
                        <polygon id="Rectangle-path" fill="#FFFFFF" fill-rule="nonzero" points="6.90909091 90.0399046 69.0909091 90.0399046 69.0909091 99.9841221 6.90909091 99.9841221"></polygon>
                        <path d="M6,24.9861201 L6,33.5525916" id="Shape" stroke="#DADADA" stroke-width="4"></path>
                        <path d="M69,24.9861201 L69,33.5525916" id="Shape" stroke="#DADADA" stroke-width="4"></path>
                        <path d="M6,57.5387118 L6,66.1051833" id="Shape" stroke="#DADADA" stroke-width="4"></path>
                        <path d="M69,57.5387118 L69,66.1051833" id="Shape" stroke="#DADADA" stroke-width="4"></path>
                        <path d="M7,90.0913034 L7,99.9868601" id="Shape" stroke="#DADADA" stroke-width="4"></path>
                        <path d="M70,90.0913034 L70,99.9899745" id="Shape" stroke="#DADADA" stroke-width="4"></path>
                        <g id="Group-4-Copy-2">
                            <g id="Group-5" transform="translate(0.000000, 66.000000)">
                                <ellipse id="Oval" fill="#ED1C24" fill-rule="nonzero" cx="65.5" cy="11.5" rx="5.5" ry="5.5"></ellipse>
                                <rect id="Rectangle-17" fill="#FFFFFF" x="64" y="10" width="3" height="3"></rect>
                                <rect id="Rectangle-path" stroke="#646464" stroke-width="4" x="0" y="0" width="76" height="24"></rect>
                                <path d="M50,8 L46,8" id="Shape" stroke="#646464" stroke-width="4"></path>
                                <path d="M43,8 L39,8" id="Shape-Copy" stroke="#646464" stroke-width="4"></path>
                                <path d="M43,15 L39,15" id="Shape-Copy-2" stroke="#646464" stroke-width="4"></path>
                                <path d="M50,15 L46,15" id="Shape-Copy-3" stroke="#646464" stroke-width="4"></path>
                                <path d="M57,8 L53,8" id="Shape-Copy-5" stroke="#646464" stroke-width="4"></path>
                                <path d="M57,15 L53,15" id="Shape-Copy-4" stroke="#646464" stroke-width="4"></path>
                                <path d="M14,7 L14,17" id="Shape" stroke="#646464" stroke-width="4"></path>
                                <path d="M7,7 L7,17" id="Shape" stroke="#646464" stroke-width="4"></path>
                                <path d="M21,7 L21,17" id="Shape" stroke="#646464" stroke-width="4"></path>
                            </g>
                            <g id="Group-5-Copy" transform="translate(0.000000, 33.000000)">
                                <ellipse id="Oval" fill="#ED1C24" fill-rule="nonzero" cx="65.5" cy="11.5" rx="5.5" ry="5.5"></ellipse>
                                <rect id="Rectangle-17" fill="#FFFFFF" x="64" y="10" width="3" height="3"></rect>
                                <rect id="Rectangle-path" stroke="#646464" stroke-width="4" x="0" y="0" width="76" height="24"></rect>
                                <path d="M50,8 L46,8" id="Shape" stroke="#646464" stroke-width="4"></path>
                                <path d="M43,8 L39,8" id="Shape-Copy" stroke="#646464" stroke-width="4"></path>
                                <path d="M43,15 L39,15" id="Shape-Copy-2" stroke="#646464" stroke-width="4"></path>
                                <path d="M50,15 L46,15" id="Shape-Copy-3" stroke="#646464" stroke-width="4"></path>
                                <path d="M57,8 L53,8" id="Shape-Copy-5" stroke="#646464" stroke-width="4"></path>
                                <path d="M57,15 L53,15" id="Shape-Copy-4" stroke="#646464" stroke-width="4"></path>
                                <path d="M14,7 L14,17" id="Shape" stroke="#646464" stroke-width="4"></path>
                                <path d="M7,7 L7,17" id="Shape" stroke="#646464" stroke-width="4"></path>
                                <path d="M21,7 L21,17" id="Shape" stroke="#646464" stroke-width="4"></path>
                            </g>
                            <g id="Group-5-Copy-2">
                                <ellipse id="Oval" fill="#ED1C24" fill-rule="nonzero" cx="65.5" cy="11.5" rx="5.5" ry="5.5"></ellipse>
                                <rect id="Rectangle-17" fill="#FFFFFF" x="64" y="10" width="3" height="3"></rect>
                                <rect id="Rectangle-path" stroke="#646464" stroke-width="4" x="0" y="0" width="76" height="24"></rect>
                                <path d="M50,8 L46,8" id="Shape" stroke="#646464" stroke-width="4"></path>
                                <path d="M43,8 L39,8" id="Shape-Copy" stroke="#646464" stroke-width="4"></path>
                                <path d="M43,15 L39,15" id="Shape-Copy-2" stroke="#646464" stroke-width="4"></path>
                                <path d="M50,15 L46,15" id="Shape-Copy-3" stroke="#646464" stroke-width="4"></path>
                                <path d="M57,8 L53,8" id="Shape-Copy-5" stroke="#646464" stroke-width="4"></path>
                                <path d="M57,15 L53,15" id="Shape-Copy-4" stroke="#646464" stroke-width="4"></path>
                                <path d="M14,7 L14,17" id="Shape" stroke="#646464" stroke-width="4"></path>
                                <path d="M7,7 L7,17" id="Shape" stroke="#646464" stroke-width="4"></path>
                                <path d="M21,7 L21,17" id="Shape" stroke="#646464" stroke-width="4"></path>
                            </g>
                        </g>
                    </g>
                </g>
            </g>
        </g>
    </g>
</svg>