<?xml version="1.0" encoding="UTF-8"?>
<svg width="108px" height="104px" viewBox="0 0 108 104" version="1.1" xmlns="http://www.w3.org/2000/svg" xmlns:xlink="http://www.w3.org/1999/xlink">
    <!-- Generator: sketchtool 42 (36781) - http://www.bohemiancoding.com/sketch -->
    <title>6D280E80-CBC0-4B41-898E-91A1793D42D3</title>
    <desc>Created with sketchtool.</desc>
    <defs>
        <circle id="path-1" cx="52" cy="93" r="9"></circle>
        <mask id="mask-2" maskContentUnits="userSpaceOnUse" maskUnits="objectBoundingBox" x="0" y="0" width="18" height="18" fill="white">
            <use xlink:href="#path-1"></use>
        </mask>
    </defs>
    <g id="Ready-To-Code" stroke="none" stroke-width="1" fill="none" fill-rule="evenodd">
        <g id="Index" transform="translate(-276.000000, -1380.000000)">
            <g id="Услуги" transform="translate(150.000000, 695.000000)">
                <g id="4" transform="translate(0.000000, 630.000000)">
                    <g id="illustration_4" transform="translate(128.000000, 57.000000)">
                        <path d="M59,93 L81,93 C82.5076158,93 84,91.4329966 84,89 L84,86" id="Shape" stroke="#DADADA" stroke-width="4"></path>
                        <path d="M44,93 L22,93 C20.4923842,93 19,91.4329966 19,89 L19,86" id="Shape" stroke="#DADADA" stroke-width="4"></path>
                        <use id="Oval-5" stroke="#D9D9D9" mask="url(#mask-2)" stroke-width="8" fill="#FFFFFF" xlink:href="#path-1"></use>
                        <path d="M52,62 L52,42" id="Shape" stroke="#DADADA" stroke-width="4"></path>
                        <path d="M50,79 L54,79" id="Shape" stroke="#DADADA" stroke-width="4"></path>
                        <path d="M50,73 L54,73" id="Shape" stroke="#DADADA" stroke-width="4"></path>
                        <path d="M50,67 L54,67" id="Shape" stroke="#DADADA" stroke-width="4"></path>
                        <g id="Group-10" transform="translate(65.000000, 43.000000)">
                            <rect id="Rectangle-path" stroke="#646464" stroke-width="4" x="0" y="0" width="39" height="30" rx="1.63934426"></rect>
                            <rect id="Rectangle-path" fill="#DADADA" fill-rule="nonzero" x="5" y="5" width="29" height="20"></rect>
                            <path d="M14,38 L14,30" id="Shape" stroke="#646464" stroke-width="4"></path>
                            <path d="M24,30 L24,38" id="Shape" stroke="#646464" stroke-width="4"></path>
                            <path d="M29,37 L9,37" id="Shape" stroke="#646464" stroke-width="4"></path>
                            <path d="M11,21.5 L14,21.5" id="Shape" stroke="#646464" stroke-width="3"></path>
                            <path d="M18,21.5 L21,21.5" id="Shape" stroke="#646464" stroke-width="3"></path>
                            <path d="M25,21.5 L28,21.5" id="Shape" stroke="#646464" stroke-width="3"></path>
                        </g>
                        <g id="Group-10-Copy" transform="translate(0.000000, 43.000000)">
                            <rect id="Rectangle-path" stroke="#646464" stroke-width="4" x="0" y="0" width="39" height="30" rx="1.63934426"></rect>
                            <rect id="Rectangle-path" fill="#DADADA" fill-rule="nonzero" x="5" y="5" width="29" height="20"></rect>
                            <path d="M14,38 L14,30" id="Shape" stroke="#646464" stroke-width="4"></path>
                            <path d="M24,30 L24,38" id="Shape" stroke="#646464" stroke-width="4"></path>
                            <path d="M29,37 L9,37" id="Shape" stroke="#646464" stroke-width="4"></path>
                            <path d="M11,21.5 L14,21.5" id="Shape" stroke="#646464" stroke-width="3"></path>
                            <path d="M18,21.5 L21,21.5" id="Shape" stroke="#646464" stroke-width="3"></path>
                            <path d="M25,21.5 L28,21.5" id="Shape" stroke="#646464" stroke-width="3"></path>
                        </g>
                        <g id="Group-10-Copy-2" transform="translate(33.000000, 0.000000)">
                            <rect id="Rectangle-path" stroke="#646464" stroke-width="4" x="0" y="0" width="39" height="30" rx="1.63934426"></rect>
                            <rect id="Rectangle-path" fill="#ED1C24" fill-rule="nonzero" x="5" y="5" width="29" height="20"></rect>
                            <path d="M14,38 L14,30" id="Shape" stroke="#646464" stroke-width="4"></path>
                            <path d="M24,30 L24,38" id="Shape" stroke="#646464" stroke-width="4"></path>
                            <path d="M29,37 L9,37" id="Shape" stroke="#646464" stroke-width="4"></path>
                            <path d="M11,21.5 L14,21.5" id="Shape" stroke="#FFFFFF" stroke-width="3"></path>
                            <path d="M18,21.5 L21,21.5" id="Shape" stroke="#FFFFFF" stroke-width="3"></path>
                            <path d="M25,21.5 L28,21.5" id="Shape" stroke="#FFFFFF" stroke-width="3"></path>
                        </g>
                    </g>
                </g>
            </g>
        </g>
    </g>
</svg>