<?xml version="1.0" encoding="UTF-8"?>
<svg width="85px" height="77px" viewBox="0 0 85 77" version="1.1" xmlns="http://www.w3.org/2000/svg" xmlns:xlink="http://www.w3.org/1999/xlink">
    <!-- Generator: sketchtool 42 (36781) - http://www.bohemiancoding.com/sketch -->
    <title>CAA91491-4DAA-41D2-A0DE-0A3AE6F90E64</title>
    <desc>Created with sketchtool.</desc>
    <defs>
        <polygon id="path-1" points="0.0790289256 0.017757542 0.0790289256 48.5207034 84.2975207 48.5207034 84.2975207 0.017757542 0.0790289256 0.017757542"></polygon>
    </defs>
    <g id="Ready-To-Code" stroke="none" stroke-width="1" fill="none" fill-rule="evenodd">
        <g id="Index" transform="translate(-385.000000, -3099.000000)">
            <g id="Почему-мы" transform="translate(0.000000, 2915.000000)">
                <g id="1" transform="translate(345.000000, 140.000000)">
                    <g id="Group">
                        <g id="illustration_7" transform="translate(40.000000, 44.000000)">
                            <polyline id="Fill-23" fill="#DADADA" points="46.1002066 6.3997241 38.197314 6.3997241 40.8316116 0.017757542 43.4659091 0.017757542 46.1002066 6.3997241"></polyline>
                            <polyline id="Fill-24" fill="#DADADA" points="37.010563 6.70733489 30.1653409 10.5365148 29.1550878 3.73333847 31.4350723 2.45694516 37.010563 6.70733489"></polyline>
                            <polyline id="Fill-25" fill="#DADADA" points="29.2973399 11.377658 25.3445764 18.0110741 20.9597882 12.6093776 22.2756198 10.3986643 29.2973399 11.377658"></polyline>
                            <polyline id="Fill-26" fill="#DADADA" points="25.0271436 19.1611044 25.0271436 26.8194643 18.4413998 24.2666777 18.4413998 21.7151675 25.0271436 19.1611044"></polyline>
                            <polyline id="Fill-27" fill="#5E5C5C" points="25.3445764 27.9694947 29.2960227 34.6016343 22.2756198 35.5819044 20.9597882 33.373744 25.3445764 27.9694947"></polyline>
                            <polyline id="Fill-28" fill="#5E5C5C" points="30.1640238 35.4453303 37.0092459 39.2745102 31.4350723 43.5249 29.1550878 42.2485067 30.1640238 35.4453303"></polyline>
                            <polyline id="Fill-29" fill="#5E5C5C" points="38.1959969 39.5833974 46.0988895 39.5833974 43.4645919 45.965364 40.8316116 45.9640876 38.1959969 39.5833974"></polyline>
                            <polyline id="Fill-30" fill="#5E5C5C" points="47.2869576 39.2757866 54.1308626 35.4466067 55.1411157 42.2497831 52.8624483 43.5249 47.2869576 39.2757866"></polyline>
                            <polyline id="Fill-31" fill="#5E5C5C" points="55.0014979 34.6029107 58.9516271 27.9707711 63.3377324 33.373744 62.0205837 35.5819044 55.0014979 34.6029107"></polyline>
                            <polyline id="Fill-32" fill="#DADADA" points="59.2703771 26.8207407 59.2703771 19.1636572 65.8561209 21.7164438 65.8548037 24.2666777 59.2703771 26.8207407"></polyline>
                            <polyline id="Fill-33" fill="#DADADA" points="58.9516271 18.0110741 55.0014979 11.3802108 62.023218 10.4012171 63.3377324 12.6093776 58.9516271 18.0110741"></polyline>
                            <polyline id="Fill-34" fill="#DADADA" points="54.1308626 10.5377912 47.2882748 6.70861128 52.8637655 2.45694516 55.1411157 3.73333847 54.1308626 10.5377912"></polyline>
                            <path d="M60.588843,22.9915608 C60.588843,32.8593575 52.3342717,40.8610671 42.1487603,40.8610671 C31.963249,40.8610671 23.7086777,32.8593575 23.7086777,22.9915608 C23.7086777,13.1224877 31.963249,5.1220544 42.1487603,5.1220544 C52.3342717,5.1220544 60.588843,13.1224877 60.588843,22.9915608" id="Fill-35" fill="#DADADA"></path>
                            <path d="M55.3202479,22.9915608 C55.3202479,30.041081 49.4220558,35.7542175 42.1487603,35.7542175 C34.8754649,35.7542175 28.9772727,30.041081 28.9772727,22.9915608 C28.9772727,15.9407641 34.8754649,10.2276276 42.1487603,10.2276276 C49.4220558,10.2276276 55.3202479,15.9407641 55.3202479,22.9915608" id="Fill-36" fill="#FFFFFF"></path>
                            <path d="M51.3688017,22.9915608 C51.3688017,27.9260973 47.2408574,31.9250376 42.1487603,31.9250376 C37.0566632,31.9250376 32.928719,27.9260973 32.928719,22.9915608 C32.928719,18.0583006 37.0566632,14.0568076 42.1487603,14.0568076 C47.2408574,14.0568076 51.3688017,18.0583006 51.3688017,22.9915608" id="Fill-37" fill="#DADADA"></path>
                            <path d="M44.7817407,22.9915608 C44.7817407,24.400699 43.6028926,25.543071 42.1487603,25.543071 C40.6946281,25.543071 39.51578,24.400699 39.51578,22.9915608 C39.51578,21.5811462 40.6946281,20.4400505 42.1487603,20.4400505 C43.6028926,20.4400505 44.7817407,21.5811462 44.7817407,22.9915608 Z" id="Stroke-38" stroke="#FFFFFF" stroke-width="1.41666667"></path>
                            <path d="M77.7117769,28.0984104 C77.7117769,26.7913837 77.1967717,25.4856333 76.1680785,24.4887701 C75.1407025,23.4906305 73.790625,22.9928372 72.4431818,22.9928372 L11.8543388,22.9928372 C10.5068957,22.9928372 9.15681818,23.4906305 8.12944215,24.4887701 C7.10074897,25.4856333 6.5857438,26.7913837 6.5857438,28.0984104 L6.5857438,68.9429964 L77.7117769,68.9429964 L77.7117769,28.0984104" id="Fill-39" fill="#646464"></path>
                            <g id="Group-44" transform="translate(0.000000, 28.080653)">
                                <mask id="mask-2" fill="white">
                                    <use xlink:href="#path-1"></use>
                                </mask>
                                <g id="Clip-41"></g>
                                <polygon id="Fill-40" fill="#FFFFFF" mask="url(#mask-2)" points="11.8543388 35.7567703 72.4431818 35.7567703 72.4431818 0.017757542 11.8543388 0.017757542"></polygon>
                                <polygon id="Fill-42" fill="#DADADA" mask="url(#mask-2)" points="0.0790289256 43.4151301 84.2975207 43.4151301 84.2975207 40.8623435 0.0790289256 40.8623435"></polygon>
                                <path d="M84.2975207,43.4151301 C84.2975207,44.7208805 83.7825155,46.0279073 82.7538223,47.0247704 C81.7264463,48.0216336 80.3763688,48.5207034 79.0289256,48.5207034 L5.26859504,48.5207034 C3.92115186,48.5207034 2.57107438,48.0216336 1.54369835,47.0247704 C0.515005165,46.0279073 0,44.7208805 0,43.4151301 L84.2975207,43.4151301" id="Fill-43" fill="#E6E6E6" mask="url(#mask-2)"></path>
                            </g>
                            <polyline id="Fill-45" fill="#898989" points="50.0516529 71.495783 34.2458678 71.495783 31.6115702 68.9429964 52.6859504 68.9429964 50.0516529 71.495783"></polyline>
                            <path d="M18,61 L18,56 L16,56 L16,61 L18,61 Z M23,61 L23,51 L21,51 L21,61 L23,61 Z M28,61 L28,50 L26,50 L26,61 L28,61 Z M33,61 L33,53 L31,53 L31,61 L33,61 Z M38,61 L38,56 L36,56 L36,61 L38,61 Z M43,61 L43,51 L41,51 L41,61 L43,61 Z M48,61 L48,45 L46,45 L46,61 L48,61 Z M53,61 L53,47 L51,47 L51,61 L53,61 Z M58,61 L58,52 L56,52 L56,61 L58,61 Z M63,61 L63,48 L61,48 L61,61 L63,61 Z M68,61 L68,42 L66,42 L66,61 L68,61 Z" id="Stroke-47" fill="#ED1C24" fill-rule="nonzero"></path>
                            <path d="M14.4886364,31.9275903 L17.1229339,31.9275903 M19.7572314,31.9275903 L22.3915289,31.9275903 M25.0258264,31.9275903 L27.660124,31.9275903" id="Stroke-49" stroke="#ED1C24" stroke-width="2"></path>
                        </g>
                    </g>
                </g>
            </g>
        </g>
    </g>
</svg>