<?xml version="1.0" encoding="UTF-8"?>
<svg width="105px" height="104px" viewBox="0 0 105 104" version="1.1" xmlns="http://www.w3.org/2000/svg" xmlns:xlink="http://www.w3.org/1999/xlink">
    <!-- Generator: sketchtool 42 (36781) - http://www.bohemiancoding.com/sketch -->
    <title>4EF49458-F7AE-494D-8C86-2EC92FBCB45F</title>
    <desc>Created with sketchtool.</desc>
    <defs></defs>
    <g id="Ready-To-Code" stroke="none" stroke-width="1" fill="none" fill-rule="evenodd">
        <g id="Index" transform="translate(-667.000000, -849.000000)">
            <g id="Услуги" transform="translate(150.000000, 695.000000)">
                <g id="2" transform="translate(390.000000, 100.000000)">
                    <g id="illustration_2" transform="translate(129.000000, 56.000000)">
                        <rect id="Rectangle-path" fill="#FFFFFF" fill-rule="nonzero" x="28.4193548" y="19.3548387" width="45.1612903" height="16.0806452"></rect>
                        <rect id="Rectangle-path" fill="#DADADA" fill-rule="nonzero" x="28" y="42" width="45" height="16"></rect>
                        <rect id="Rectangle-path" fill="#FFFFFF" fill-rule="nonzero" x="28.4193548" y="64.516129" width="45.1612903" height="16.0806452"></rect>
                        <rect id="Rectangle-path" fill="#ED1C24" fill-rule="nonzero" x="0" y="41.8870968" width="16.1290323" height="16.1290323"></rect>
                        <rect id="Rectangle-path" fill="#ED1C24" fill-rule="nonzero" x="84.8709677" y="41.8870968" width="16.1290323" height="16.1290323"></rect>
                        <circle id="Oval" stroke="#DADADA" stroke-width="4" cx="93" cy="8" r="8"></circle>
                        <path d="M78,27 L90,27 C91.5076158,27 93,25.6568542 93,24 L93,21" id="Shape" stroke="#DADADA" stroke-width="4"></path>
                        <path d="M91,8 L95,8" id="Shape" stroke="#DADADA" stroke-width="4"></path>
                        <circle id="Oval" stroke="#DADADA" stroke-width="4" cx="8" cy="8" r="8"></circle>
                        <path d="M23,27 L11,27 C9.49238417,27 8,25.6568542 8,24 L8,21" id="Shape" stroke="#DADADA" stroke-width="4"></path>
                        <path d="M10,8 L6,8" id="Shape" stroke="#DADADA" stroke-width="4"></path>
                        <circle id="Oval" stroke="#DADADA" stroke-width="4" cx="93" cy="92" r="8"></circle>
                        <path d="M78,73 L90,73 C91.5076158,73 93,74.3431458 93,76 L93,79" id="Shape" stroke="#DADADA" stroke-width="4"></path>
                        <path d="M91,92 L95,92" id="Shape" stroke="#DADADA" stroke-width="4"></path>
                        <circle id="Oval" stroke="#DADADA" stroke-width="4" cx="8" cy="92" r="8"></circle>
                        <path d="M23,73 L11,73 C9.49238417,73 8,74.3431458 8,76 L8,79" id="Shape" stroke="#DADADA" stroke-width="4"></path>
                        <path d="M10,92 L6,92" id="Shape" stroke="#DADADA" stroke-width="4"></path>
                        <polyline id="Shape" stroke="#646464" stroke-width="4" points="73 45 73 42 28 42 28 45"></polyline>
                        <polyline id="Shape" stroke="#646464" stroke-width="4" points="73 55 73 58 28 58 28 55"></polyline>
                        <rect id="Rectangle-path" stroke="#646464" stroke-width="4" x="28" y="19" width="45" height="16"></rect>
                        <g id="Group-4" transform="translate(42.000000, 26.000000)" stroke="#646464" stroke-width="4">
                            <path d="M1,1 L5,1" id="Shape"></path>
                            <path d="M7,1 L11,1" id="Shape-Copy-6"></path>
                            <path d="M13,1 L17,1" id="Shape-Copy-7"></path>
                        </g>
                        <g id="Group-4-Copy" transform="translate(42.000000, 49.000000)" stroke="#646464" stroke-width="4">
                            <path d="M1,1 L5,1" id="Shape"></path>
                            <path d="M7,1 L11,1" id="Shape-Copy-6"></path>
                            <path d="M13,1 L17,1" id="Shape-Copy-7"></path>
                        </g>
                        <g id="Group-4-Copy-3" transform="translate(42.000000, 72.000000)" stroke="#646464" stroke-width="4">
                            <path d="M1,1 L5,1" id="Shape"></path>
                            <path d="M7,1 L11,1" id="Shape-Copy-6"></path>
                            <path d="M13,1 L17,1" id="Shape-Copy-7"></path>
                        </g>
                        <rect id="Rectangle-path" stroke="#646464" stroke-width="4" x="28" y="65" width="45" height="16"></rect>
                        <rect id="Rectangle-path" stroke="#646464" stroke-width="4" x="85" y="42" width="16" height="16"></rect>
                        <path d="M84.8709677,50 L71,50" id="Shape" stroke="#646464" stroke-width="4"></path>
                        <path d="M91,50 L95,50" id="Shape" stroke="#FFFFFF" stroke-width="4"></path>
                        <rect id="Rectangle-path" stroke="#646464" stroke-width="4" x="0" y="42" width="16" height="16"></rect>
                        <path d="M16.1290323,50 L30,50" id="Shape" stroke="#646464" stroke-width="4"></path>
                        <path d="M6,50 L10,50" id="Shape" stroke="#FFFFFF" stroke-width="4"></path>
                    </g>
                </g>
            </g>
        </g>
    </g>
</svg>