<?xml version="1.0" encoding="UTF-8"?>
<svg width="85px" height="83px" viewBox="0 0 85 83" version="1.1" xmlns="http://www.w3.org/2000/svg" xmlns:xlink="http://www.w3.org/1999/xlink">
    <!-- Generator: sketchtool 42 (36781) - http://www.bohemiancoding.com/sketch -->
    <title>8A76D703-D045-43E7-949D-4F1866609658</title>
    <desc>Created with sketchtool.</desc>
    <defs>
        <polygon id="path-1" points="0.0796875 83.4862385 0.0796875 0.705137615 85 0.705137615 85 83.4862385"></polygon>
    </defs>
    <g id="Ready-To-Code" stroke="none" stroke-width="1" fill="none" fill-rule="evenodd">
        <g id="Index" transform="translate(-385.000000, -3311.000000)">
            <g id="Почему-мы" transform="translate(0.000000, 2915.000000)">
                <g id="2" transform="translate(345.000000, 355.000000)">
                    <g id="Group">
                        <g id="illustration_8" transform="translate(40.000000, 41.000000)">
                            <g id="Group-25">
                                <mask id="mask-2" fill="white">
                                    <use xlink:href="#path-1"></use>
                                </mask>
                                <g id="Clip-19"></g>
                                <polygon id="Fill-20" fill="#E6E6E6" mask="url(#mask-2)" points="0.0796875 77.7693578 85 77.7693578 85 13.5491743 0.0796875 13.5491743"></polygon>
                                <polygon id="Fill-21" fill="#FFFFFF" mask="url(#mask-2)" points="5.3125 72.6317431 79.6875 72.6317431 79.6875 18.686789 5.3125 18.686789"></polygon>
                                <path d="M85,13.5491743 L0,13.5491743 L0,3.27394495 C0,2.61633028 0.258984375,1.9587156 0.77828125,1.45779817 C1.29757813,0.95559633 1.97625,0.705137615 2.65625,0.705137615 L82.34375,0.705137615 C83.02375,0.705137615 83.7024219,0.95559633 84.2217188,1.45779817 C84.7410156,1.9587156 85,2.61633028 85,3.27394495 L85,13.5491743" id="Fill-22" fill="#646464" mask="url(#mask-2)"></path>
                                <path d="M85,77.7693578 L0,77.7693578 C0,78.4256881 0.258984375,79.0833028 0.77828125,79.5855046 C1.29757813,80.086422 1.97625,80.3381651 2.65625,80.3381651 L82.34375,80.3381651 C83.02375,80.3381651 83.7024219,80.086422 84.2217188,79.5855046 C84.7410156,79.0833028 85,78.4256881 85,77.7693578" id="Fill-23" fill="#CCCBCB" mask="url(#mask-2)"></path>
                                <path d="M5.3125,7.12715596 L7.96875,7.12715596 M10.625,7.12715596 L13.28125,7.12715596 M15.9375,7.12715596 L18.59375,7.12715596" id="Stroke-24" stroke="#FFFFFF" stroke-width="1.54545455" mask="url(#mask-2)"></path>
                            </g>
                            <path d="M54.453125,28.9620183 L47.8125,21.2555963 L37.1875,21.2555963 L30.546875,28.9620183 L18.59375,28.9620183 L18.59375,52.0812844 C18.59375,65.8565138 27.6210156,77.1502752 42.5,82.9069725 C57.3789844,77.1502752 66.40625,65.8565138 66.40625,52.0812844 L66.40625,28.9620183 L54.453125,28.9620183" id="Fill-26" fill="#DADADA"></path>
                            <path d="M43,25 L43,79 C30.2666667,73.6 23,63.6228571 23,52 L23,33 L32,33 L39,25 L43,25" id="Fill-27" fill="#ED1C24"></path>
                            <path d="M62,33 L62,52 C62,63.6228571 54.7333333,73.6 42,79 L42,25 L46,25 L53,33 L62,33" id="Fill-28" fill="#C21A24"></path>
                            <path d="M55.78125,52.0812844 C55.78125,59.1750459 49.8352344,64.9253211 42.5,64.9253211 C35.1647656,64.9253211 29.21875,59.1750459 29.21875,52.0812844 C29.21875,44.9862385 35.1647656,39.2372477 42.5,39.2372477 C49.8352344,39.2372477 55.78125,44.9862385 55.78125,52.0812844" id="Fill-29" fill="#FFFFFF"></path>
                            <path d="M9.296875,57.2188991 L9.296875,59.7877064 M9.296875,62.3565138 L9.296875,64.9253211 M9.296875,67.4941284 L9.296875,70.0629358 M75.703125,57.2188991 L75.703125,59.7877064 M75.703125,62.3565138 L75.703125,64.9253211 M75.703125,67.4941284 L75.703125,70.0629358" id="Stroke-30" stroke="#646464" stroke-width="1.54545455"></path>
                            <path d="M42.5,61.0721101 L42.5,57.2188991" id="Path" stroke="#646464" stroke-width="1.54545455"></path>
                            <path d="M42.5,46.9436697 L42.5,43.0904587" id="Path" stroke="#646464" stroke-width="1.54545455"></path>
                            <path d="M38.515625,57.2188991 L43.828125,57.2188991 C44.508125,57.2188991 45.1867969,56.967156 45.7060938,56.4662385 C46.2253906,55.9640367 46.484375,55.306422 46.484375,54.6500917 C46.484375,53.9924771 46.2253906,53.3348624 45.7060938,52.833945 C45.1867969,52.3317431 44.508125,52.0812844 43.828125,52.0812844 L41.171875,52.0812844 C40.491875,52.0812844 39.8132031,51.8295413 39.2939063,51.3286239 C38.7746094,50.826422 38.515625,50.1688073 38.515625,49.5124771 C38.515625,48.8548624 38.7746094,48.1972477 39.2939063,47.6963303 C39.8132031,47.1941284 40.491875,46.9436697 41.171875,46.9436697 L46.484375,46.9436697" id="Path" stroke="#646464" stroke-width="1.54545455"></path>
                        </g>
                    </g>
                </g>
            </g>
        </g>
    </g>
</svg>