<svg width="82" height="74" viewBox="0 0 82 74" xmlns="http://www.w3.org/2000/svg"><title>742E807B-3095-4028-B970-62121406F833</title><g fill-rule="nonzero" fill="none"><path d="M74.313 48.483H0V5.103C0 2.285 2.295 0 5.125 0h64.063c2.83 0 5.124 2.285 5.124 5.103v43.38z" fill="#646464"/><path d="M74.313 53.586c0 2.819-2.295 5.104-5.126 5.104H5.126C2.295 58.69 0 56.405 0 53.586v-5.103h74.313v5.103z" fill="#E5E5E5"/><path fill="#DADADA" d="M48.688 71.448H25.625l1.281-12.758h20.5z"/><path fill="#E5E5E5" d="M51.25 71.448H23.062L21.782 74h30.75z"/><path fill="#FFF" d="M5.125 5.103h64.063v38.276H5.125z"/><ellipse fill="#ED1C24" cx="37.156" cy="24.241" rx="11.531" ry="11.483"/><path fill="#FFF" d="M33 23.27l-1.809 1.815 4.812 4.792 8.528-8.492-1.809-1.815-6.719 6.69z"/><path fill="#ED1C24" d="M53.813 48.483h28.188v22.966H53.813z"/><path fill="#FFF" d="M61.5 56.143h2.563v-2.562H61.5zM66.625 56.143h2.563v-2.562h-2.563zM71.75 56.143h2.563v-2.562H71.75zM61.5 61.247h2.563v-2.563H61.5zM66.625 61.247h2.563v-2.563h-2.563zM71.75 61.247h2.563v-2.563H71.75zM61.5 66.35h2.563v-2.562H61.5zM66.625 66.35h2.563v-2.562h-2.563zM71.75 66.35h2.563v-2.562H71.75z"/><path fill="#C21A24" d="M53.813 71.448h28.188V74H53.813z"/><path d="M79.438 48.483v-6.38c0-6.345-5.164-11.488-11.532-11.488-6.367 0-11.531 5.143-11.531 11.488v6.38h2.563v-6.38c0-4.928 4.014-8.925 8.968-8.925 4.955 0 8.969 3.997 8.969 8.925v6.38h2.563z" fill="#DADADA"/><path d="M76.875 48.483v-6.38a8.93 8.93 0 0 0-4.486-7.74 8.997 8.997 0 0 0-8.965 0 8.93 8.93 0 0 0-4.486 7.74v6.38H61.5v-6.38c0-2.275 1.22-4.38 3.201-5.518a6.434 6.434 0 0 1 6.41 0 6.368 6.368 0 0 1 3.201 5.518v6.38h2.563z" fill="#E5E5E5"/></g></svg>