<svg width="80" height="68" viewBox="0 0 80 68" xmlns="http://www.w3.org/2000/svg"><title>53E6BA1F-C94B-4E59-9DC8-719B0B1EAE7D</title><g fill-rule="nonzero" fill="none"><path fill="#E5E5E5" d="M0 9.962h80v39.849H0z"/><path fill="#DADADA" d="M5 4.981h70v4.981H5z"/><path fill="#BCBCBC" d="M10 0h60v4.981H10z"/><path fill="#ED1C24" d="M5 14.943h25V44.83H5z"/><path d="M22.5 26.15a4.993 4.993 0 0 0-5-4.985c-2.76 0-5 2.231-5 4.986a4.993 4.993 0 0 0 5 4.986v-2.5A2.493 2.493 0 0 1 15 26.15a2.493 2.493 0 0 1 2.5-2.486c1.382 0 2.5 1.114 2.5 2.486h2.5z" fill="#FFF"/><path d="M12.5 33.623a4.993 4.993 0 0 0 5 4.985c2.76 0 5-2.23 5-4.985a4.993 4.993 0 0 0-5-4.986v2.5c1.382 0 2.5 1.114 2.5 2.486a2.493 2.493 0 0 1-2.5 2.485 2.493 2.493 0 0 1-2.5-2.485h-2.5zM18.75 22.415V18.68h-2.5v3.736z" fill="#FFF"/><path fill="#FFF" d="M18.75 41.094v-3.736h-2.5v3.736z"/><path fill="#646464" d="M32.5 17.439H35v-2.5h-2.5zM37.5 17.439H40v-2.5h-2.5zM42.5 17.439H45v-2.5h-2.5zM32.5 22.42H65v-2.5H32.5zM67.5 22.42H75v-2.5h-7.5zM32.5 27.4H45v-2.5H32.5zM47.5 27.4h5v-2.5h-5zM55 27.4h20v-2.5H55zM32.5 32.382H75v-2.5H32.5zM32.5 37.363h15v-2.5h-15zM59.749 41.588a4.379 4.379 0 0 0-6.998 0l1.998 1.503a1.879 1.879 0 0 1 3.002 0l1.998-1.503zM69.749 41.588a4.379 4.379 0 0 0-6.998 0l1.998 1.503a1.879 1.879 0 0 1 3.002 0l1.998-1.503z"/><path d="M57.751 43.091a4.379 4.379 0 0 0 6.998 0l-1.998-1.503a1.879 1.879 0 0 1-3.002 0L57.75 43.09zM67.751 43.091a4.379 4.379 0 0 0 6.998 0l-1.998-1.503a1.879 1.879 0 0 1-3.002 0L67.75 43.09zM0 59.778h3.75v-2.5H0z" fill="#646464"/><path d="M80 57.283c0-.688-.56-1.245-1.25-1.245h-2.5v4.98h2.5c.69 0 1.25-.557 1.25-1.244v-2.491z" fill="#DADADA"/><path fill="#BCBCBC" d="M11.25 54.792h65v7.472h-65z"/><path fill="#DADADA" d="M3.75 59.774l7.5 2.49v-7.472l-7.5 2.491z"/><path d="M68.75 54.792v8.717c0 .685-.559 1.241-1.25 1.241H43.75v2.5H67.5c2.07 0 3.75-1.674 3.75-3.74v-8.718h-2.5zM15 54.792v7.472h2.5v-7.472zM20 54.792v7.472h2.5v-7.472z" fill="#646464"/></g></svg>