<svg width="75" height="89" viewBox="0 0 75 89" xmlns="http://www.w3.org/2000/svg"><title>92C73C60-5736-42D8-BC41-4434B1EE3F48</title><g fill-rule="nonzero" fill="none"><path fill="#ED1C24" d="M22.222 43.109h30.556v19.469H22.222zM27.778 68.14v-5.562h5.555z"/><path fill="#FFF" d="M26.389 51.451H48.61v-2.777H26.39zM26.389 57.014H37.5v-2.778H26.389z"/><path d="M68.056 61.188v9.734c0 6.913-5.597 12.517-12.5 12.517h-12.5v2.778h12.5c8.438 0 15.277-6.848 15.277-15.295v-9.734h-2.777z" fill="#CFD3D6"/><path d="M43.222 81.88a4.164 4.164 0 0 0-2.944-1.224h-5.556a4.17 4.17 0 0 0-4.166 4.172A4.17 4.17 0 0 0 34.722 89h5.556a4.167 4.167 0 0 0 3.846-2.576 4.176 4.176 0 0 0-.902-4.544z" fill="#646464"/><path d="M59.958 44.736a5.55 5.55 0 0 1 6.058-1.207 5.563 5.563 0 0 1 3.428 5.143v16.687a5.559 5.559 0 0 1-5.555 5.563 5.559 5.559 0 0 1-5.556-5.563V48.672a5.566 5.566 0 0 1 1.625-3.936z" fill="#DADADA"/><path d="M3.66 36.076A12.524 12.524 0 0 0 0 44.932v12.084h2.778V44.93a9.744 9.744 0 0 1 2.844-6.89l2.302-2.29.41-.408v-3.359H5.555v2.204l-1.897 1.888zM69.444 31.984h-2.777v3.359l2.714 2.702a9.74 9.74 0 0 1 2.841 6.885v12.086H75V44.93a12.52 12.52 0 0 0-3.656-8.852l-1.9-1.89v-2.205z" fill="#CFD3D6"/><path fill="#898989" d="M30.556 73.701h2.777v-2.777h-2.777zM36.111 73.701h2.778v-2.777H36.11zM41.667 73.701h2.777v-2.777h-2.777z"/><path d="M15.042 44.736a5.55 5.55 0 0 0-6.058-1.207 5.563 5.563 0 0 0-3.428 5.143v16.687a5.559 5.559 0 0 0 5.555 5.563 5.559 5.559 0 0 0 5.556-5.563V48.672a5.566 5.566 0 0 0-1.625-3.936z" fill="#DADADA"/><ellipse fill="#646464" cx="5.556" cy="57.016" rx="5.556" ry="5.563"/><ellipse fill="#646464" cx="69.444" cy="57.016" rx="5.556" ry="5.563"/><path d="M37.5 6.953c13.807 0 25 11.207 25 25.031h6.944C69.444 14.32 55.142 0 37.5 0S5.556 14.32 5.556 31.984H12.5c0-13.824 11.193-25.03 25-25.03z" fill="#646464"/></g></svg>