<svg width="83" height="94" viewBox="0 0 83 94" xmlns="http://www.w3.org/2000/svg"><title>D3438D66-AED3-49B1-8DE4-3BB5E3477254</title><g fill-rule="nonzero" fill="none"><path fill="#646464" d="M4.53 49.938v2.937h2.94v-2.938zM4.53 55.813v2.937h2.94v-2.938zM4.53 61.688v2.937h2.94v-2.938zM75.06 29.375v2.938H78v-2.938zM75.06 35.25v2.938H78V35.25zM75.06 41.125v2.938H78v-2.938z"/><ellipse fill="#EB1C24" cx="41.265" cy="47" rx="17.633" ry="17.625"/><ellipse fill="#FFF" cx="41.265" cy="47" rx="10.286" ry="10.281"/><path d="M41.265 52.876a5.877 5.877 0 1 1 0-11.752 5.877 5.877 0 1 1 0 11.752zm0-2.94A2.937 2.937 0 1 0 38.327 47a2.937 2.937 0 0 0 2.938 2.936z" fill="#646464"/><path fill="#DADADA" d="M41.265 0v23.5L53.02 11.75zM11.88 47c0-16.22 13.156-29.37 29.385-29.37V5.87C18.542 5.87.12 24.284.12 47h11.76zM41.265 70.5V94L29.51 82.25zM70.65 47c0 16.22-13.155 29.37-29.385 29.37v11.76c22.724 0 41.146-18.414 41.146-41.13H70.65z"/></g></svg>