<svg width="80" height="83" viewBox="0 0 80 83" xmlns="http://www.w3.org/2000/svg"><title>15585AAC-31D7-4028-A99E-31B51692198B</title><g fill-rule="nonzero" fill="none"><path d="M47.742 22.047c.02 1.4.47 2.759 1.29 3.89 9.033 12.97 18.065 22.047 18.065 38.907C67.097 79.109 56.774 83 47.742 83H32.258c-9.032 0-19.355-3.89-19.355-18.156 0-16.86 9.032-25.938 18.065-38.906a6.792 6.792 0 0 0 1.29-3.891M47.742 0c-2.138 0-3.871 1.742-3.871 3.89C43.871 1.743 42.138 0 40 0s-3.871 1.742-3.871 3.89c0-2.148-1.733-3.89-3.87-3.89-2.139 0-3.872 1.742-3.872 3.89l3.871 12.97h15.484l3.87-12.97c0-2.148-1.732-3.89-3.87-3.89z" fill="#E6E6E6"/><path fill="#CFD3D6" d="M38.71 27.234V11.672h-2.581v15.562zM43.871 27.234V11.672h-2.58v15.562z"/><path d="M50.323 19.453a2.587 2.587 0 0 0-2.581-2.594H32.258a2.587 2.587 0 0 0-2.58 2.594 2.587 2.587 0 0 0 2.58 2.594h15.484a2.587 2.587 0 0 0 2.58-2.594z" fill="#646464"/><ellipse fill="#FFF" cx="40" cy="55.766" rx="15.484" ry="15.563"/><path d="M45.161 51.875c0-2.86-2.309-5.18-5.161-5.18-2.852 0-5.161 2.32-5.161 5.18s2.309 5.18 5.161 5.18v-2.58a2.59 2.59 0 0 1-2.58-2.6 2.59 2.59 0 0 1 2.58-2.6 2.59 2.59 0 0 1 2.58 2.6h2.581z" fill="#646464"/><path d="M34.839 59.656c0 2.86 2.309 5.181 5.161 5.181 2.852 0 5.161-2.32 5.161-5.18S42.852 54.474 40 54.474v2.58a2.59 2.59 0 0 1 2.58 2.601 2.59 2.59 0 0 1-2.58 2.6 2.59 2.59 0 0 1-2.58-2.6h-2.581zM41.29 47.984v-3.89h-2.58v3.89z" fill="#646464"/><path fill="#646464" d="M41.29 67.438v-3.891h-2.58v3.89zM49.032 57.056h2.58v-2.58h-2.58zM28.387 57.056h2.58v-2.58h-2.58z"/><rect fill="#ED1C24" y="67.438" width="15.484" height="5.188" rx="1.29"/><path fill="#FF7479" d="M2.581 67.438h2.581v5.188H2.581z"/><rect fill="#ED1C24" y="77.813" width="15.484" height="5.188" rx="1.29"/><path fill="#FF7479" d="M2.581 77.813h2.581v5.188H2.581z"/><rect fill="#C21A24" y="62.25" width="15.484" height="5.188" rx="1.29"/><path fill="#EF4B54" d="M2.581 62.25h2.581v5.188H2.581z"/><rect fill="#ED1C24" x="64.516" y="67.438" width="15.484" height="5.188" rx="1.29"/><path fill="#FF7479" d="M67.097 67.438h2.581v5.188h-2.581z"/><rect fill="#ED1C24" x="64.516" y="46.688" width="15.484" height="5.188" rx="1.29"/><path fill="#FF7479" d="M67.097 46.688h2.581v5.188h-2.581z"/><rect fill="#ED1C24" x="64.516" y="77.813" width="15.484" height="5.188" rx="1.29"/><path fill="#FF7479" d="M67.097 77.813h2.581v5.188h-2.581z"/><rect fill="#C21A24" x="64.516" y="72.625" width="15.484" height="5.188" rx="1.29"/><path fill="#EF4A54" d="M67.097 72.625h2.581v5.188h-2.581z"/><rect fill="#C21A24" x="64.516" y="62.25" width="15.484" height="5.188" rx="1.29"/><path fill="#EF4B54" d="M67.097 62.25h2.581v5.188h-2.581z"/><rect fill="#C21A24" x="64.516" y="51.875" width="15.484" height="5.188" rx="1.29"/><path fill="#EF4B54" d="M67.097 51.875h2.581v5.188h-2.581z"/><rect fill="#ED1C24" x="49.032" y="77.813" width="15.484" height="5.188" rx="1.29"/><path fill="#FF7479" d="M51.613 77.813h2.581v5.188h-2.581z"/><rect fill="#C21A24" y="72.625" width="15.484" height="5.188" rx="1.29"/><path fill="#EF4B54" d="M2.581 72.625h2.581v5.188H2.581z"/><rect fill="#FD4E54" x="64.516" y="57.063" width="15.484" height="5.188" rx="1.29"/><path fill="#FFA4A8" d="M67.097 57.063h2.581v5.188h-2.581z"/><rect fill="#FD4E54" x="49.032" y="72.625" width="15.484" height="5.188" rx="1.29"/><path fill="#FFA4A8" d="M51.613 72.625h2.581v5.188h-2.581z"/><rect fill="#C21A24" x="64.516" y="41.5" width="15.484" height="5.188" rx="1.29"/><path fill="#EF4B54" d="M67.097 41.5h2.581v5.188h-2.581z"/><rect fill="#ED1C24" y="31.125" width="15.484" height="5.188" rx="1.29"/><path fill="#FF7479" d="M2.581 31.125h2.581v5.188H2.581z"/><path fill="#646464" d="M3.871 20.75v7.781h2.58V20.75zM11.613 23.344V20.75h-2.58v2.594zM11.613 18.156v-7.781h-2.58v7.781z"/></g></svg>