<svg width="91" height="71" viewBox="0 0 91 71" xmlns="http://www.w3.org/2000/svg"><title>6DB8B29C-BA2C-4286-8870-B623269D26BB</title><g fill="none" fill-rule="evenodd"><path d="M33.275 46.01a5.641 5.641 0 0 0-2.294-2.08l-8.231-4.087H11.375L3.144 43.93A5.641 5.641 0 0 0 .85 46.01 5.58 5.58 0 0 0 0 48.98v6.392h34.125V48.98a5.58 5.58 0 0 0-.85-2.97" fill="#646464"/><path d="M22.161 39.258a2.821 2.821 0 0 1-.617-.914 2.828 2.828 0 0 1-.216-1.082v-3.066h-8.531v3.066c0 .36-.07.727-.216 1.082-.148.352-.36.659-.617.914l-.589.585c0 3.118 2.547 5.647 5.688 5.647 3.14 0 5.687-2.529 5.687-5.647l-.589-.585" fill="#DADADA"/><path d="M22.089 20.735a7.106 7.106 0 0 0-5.026-2.069c-1.82 0-3.64.69-5.027 2.069a7.007 7.007 0 0 0-2.083 4.99v2.824h.003c0 3.778 2.367 8.47 7.107 8.47 4.737 0 7.106-4.692 7.106-8.47h.003v-2.824a7.007 7.007 0 0 0-2.083-4.99" fill="#EDEDED"/><path d="M90.15 46.01a5.641 5.641 0 0 0-2.294-2.08l-8.231-4.087H68.25l-8.231 4.087a5.641 5.641 0 0 0-2.294 2.08 5.58 5.58 0 0 0-.85 2.97v6.392H91V48.98a5.58 5.58 0 0 0-.85-2.97" fill="#646464"/><path d="M79.036 39.258a2.821 2.821 0 0 1-.617-.914 2.828 2.828 0 0 1-.216-1.082v-3.066h-8.531v3.066c0 .36-.07.727-.216 1.082-.148.352-.36.659-.617.914l-.589.585c0 3.118 2.547 5.647 5.688 5.647 3.14 0 5.687-2.529 5.687-5.647l-.589-.585" fill="#DADADA"/><path d="M78.964 20.735a7.106 7.106 0 0 0-5.026-2.069c-1.82 0-3.64.69-5.027 2.069a7.007 7.007 0 0 0-2.083 4.99v2.824h.003c0 3.778 2.367 8.47 7.106 8.47 4.738 0 7.107-4.692 7.107-8.47h.003v-2.824a7.007 7.007 0 0 0-2.083-4.99" fill="#EDEDED"/><path d="M53.443 37.847a2.821 2.821 0 0 1-.617-.915 2.828 2.828 0 0 1-.217-1.082v-5.89H38.391v5.89c0 .36-.07.727-.216 1.082-.148.353-.36.66-.618.915l-.588.584v9.882H54.03v-9.882l-.588-.584" fill="#DADADA"/><path d="M62.563 42.666l-5.688-2.823h-2.844L45.5 45.49l-8.531-5.647h-2.844l-5.688 2.823c-6.847 3.4-11.375 5.647-11.375 12.706v15.53h56.876v-15.53c0-7.059-4.528-9.306-11.376-12.706" fill="#ED1C24"/><path d="M56.875 14.431l-4.266-4.235H38.391l-4.266 4.235h-1.422v5.647c0 .362.14.723.417.998.277.276.641.414 1.005.414 0 5.81 3.79 12.706 11.375 12.706 7.583 0 11.375-6.897 11.375-12.706.364 0 .728-.138 1.005-.414.278-.275.417-.636.417-.998v-5.647h-1.422" fill="#EEE"/><path d="M54.549 4.036A12.801 12.801 0 0 0 45.5.313c-3.276 0-6.55 1.241-9.049 3.723a12.62 12.62 0 0 0-3.748 8.983v4.236h1.422c.364 0 .728-.139 1.005-.414.278-.275.417-.637.417-.998 0-.723.277-1.444.833-1.996a2.843 2.843 0 0 1 2.01-.828h8.532l2.844-2.823c0 .723.277 1.444.833 1.996a2.843 2.843 0 0 0 2.01.827c.728 0 1.455.276 2.01.828.557.552.834 1.273.834 1.996 0 .361.14.723.417.998.277.275.641.414 1.005.414h1.422v-4.236a12.62 12.62 0 0 0-3.748-8.983" fill="#646464"/><path fill="#FFF" d="M36.969 38.431l-2.844 1.412v11.294L45.5 45.49v-2.824l-8.531-4.235M54.031 38.431l2.844 1.412v11.294L45.5 45.49v-2.824l8.531-4.235"/><path d="M45.5 51.137v2.823m0 2.824v2.824" stroke="#C21A24" stroke-width="2.824"/><path fill="#C21A24" d="M27.016 59.608v11.294h4.265l-4.265-11.294M63.984 59.608v11.294H59.72l4.265-11.294"/></g></svg>