<svg width="80" height="76" viewBox="0 0 80 76" xmlns="http://www.w3.org/2000/svg"><title>B6CD00AD-EC25-47B2-82E1-048E69D1EB18</title><g fill="none" fill-rule="evenodd"><path fill="#E5E5E5" d="M1 75.947h7.8V60.294H1zM12.7 75.947h7.8V45.945h-7.8zM24.4 75.947h7.8V51.163h-7.8zM36.1 75.947h7.8v-35.22h-7.8zM47.8 75.947h7.8V57.685h-7.8zM59.5 75.947h7.8V36.814h-7.8zM71.2 75.947H79V48.554h-7.8z"/><path d="M77.7 38.118L59.5 56.381 49.1 45.945 30.9 64.207 20.5 53.772 1 73.338m76.7-28.697v-6.523h-6.5" stroke="#ED1C24" stroke-width="2.609"/><path d="M31.423 25.555a5.177 5.177 0 0 0-2.097-1.922L21.8 19.856H11.4l-7.526 3.777a5.177 5.177 0 0 0-2.097 1.922A5.197 5.197 0 0 0 1 28.3v5.906h31.2V28.3c0-.938-.248-1.888-.777-2.744" fill="#646464"/><path d="M21.262 19.316a2.609 2.609 0 0 1-.762-1.844v-2.834h-7.8v2.834a2.609 2.609 0 0 1-.762 1.844l-.538.54c0 2.882 2.328 5.218 5.2 5.218 2.872 0 5.2-2.336 5.2-5.218l-.538-.54" fill="#DADADA"/><path d="M21.195 2.2A6.462 6.462 0 0 0 16.6.29a6.462 6.462 0 0 0-4.595 1.91A6.51 6.51 0 0 0 10.1 6.813V9.42h.003c0 3.49 2.164 7.826 6.497 7.826 4.332 0 6.497-4.336 6.497-7.826h.003V6.81a6.51 6.51 0 0 0-1.905-4.61" fill="#EDEDED"/><path d="M78.223 25.555a5.177 5.177 0 0 0-2.097-1.922L68.6 19.856H58.2l-7.526 3.777a5.177 5.177 0 0 0-2.097 1.922A5.197 5.197 0 0 0 47.8 28.3v5.906H79V28.3c0-.938-.248-1.888-.777-2.744" fill="#646464"/><path d="M68.062 19.316a2.609 2.609 0 0 1-.762-1.844v-2.834h-7.8v2.834a2.609 2.609 0 0 1-.762 1.844l-.538.54c0 2.882 2.328 5.218 5.2 5.218 2.872 0 5.2-2.336 5.2-5.218l-.538-.54" fill="#DADADA"/><path d="M67.996 2.2A6.462 6.462 0 0 0 63.4.29a6.462 6.462 0 0 0-4.596 1.91A6.51 6.51 0 0 0 56.9 6.813V9.42h.003c0 3.49 2.164 7.826 6.497 7.826 4.332 0 6.497-4.336 6.497-7.826h.003V6.81a6.51 6.51 0 0 0-1.904-4.61" fill="#EDEDED"/><path d="M54.823 25.555a5.177 5.177 0 0 0-2.097-1.922L45.2 19.856H34.8l-7.526 3.777a5.177 5.177 0 0 0-2.097 1.922A5.197 5.197 0 0 0 24.4 28.3v5.906h31.2V28.3c0-.938-.248-1.888-.777-2.744" fill="#ED1C24"/><path d="M44.662 19.316a2.609 2.609 0 0 1-.762-1.844v-2.834h-7.8v2.834a2.609 2.609 0 0 1-.762 1.844l-.538.54c0 2.882 2.328 5.218 5.2 5.218 2.872 0 5.2-2.336 5.2-5.218l-.538-.54" fill="#DADADA"/><path d="M44.596 2.2A6.462 6.462 0 0 0 40 .29a6.462 6.462 0 0 0-4.596 1.91A6.51 6.51 0 0 0 33.5 6.813V9.42h.003c0 3.49 2.164 7.826 6.497 7.826 4.332 0 6.497-4.336 6.497-7.826h.003V6.81a6.51 6.51 0 0 0-1.904-4.61" fill="#EDEDED"/></g></svg>