<svg width="65" height="91" viewBox="0 0 65 91" xmlns="http://www.w3.org/2000/svg"><title>00B5D143-A9EB-4F0D-B774-970D5BE8CB98</title><g fill="none" fill-rule="evenodd"><path fill="#646464" d="M24.022 90.899h16.956V71.083H24.022z"/><path fill="#474545" d="M19.783 73.914h25.434V61.176H19.783z"/><path d="M65 32.868c0 17.98-14.552 32.554-32.5 32.554S0 50.848 0 32.868C0 14.888 14.552.314 32.5.314S65 14.888 65 32.868" fill="#646464"/><path d="M59.348 32.868c0 14.852-12.022 26.892-26.848 26.892-14.826 0-26.848-12.04-26.848-26.892S17.674 5.976 32.5 5.976c14.826 0 26.848 12.04 26.848 26.892" fill="#BCBCBC"/><path d="M56.522 32.868c0 13.288-10.758 24.062-24.022 24.062S8.478 46.156 8.478 32.868C8.478 19.58 19.236 8.807 32.5 8.807S56.522 19.58 56.522 32.868" fill="#FFF"/><path d="M46.332 44.043l-8.18-4.098H26.848l-8.18 4.098a5.624 5.624 0 0 0-2.28 2.086c-.575.928-.853 2.747-.853 3.765 0 0 1.452 1.691 4.296 3.406 2.845 1.714 4.297 2.144 5.187 2.44 1.984.66 4.804 1.19 7.482 1.19s4.677-.347 7.53-1.195c1.064-.316 3.464-1.33 5.513-2.649 2.05-1.317 3.888-3.126 3.888-3.126 0-1.017-.244-2.903-.82-3.831a5.624 5.624 0 0 0-2.279-2.086z" fill="#ED1C24"/><path d="M37.567 39.359a2.821 2.821 0 0 1-.828-2.003v-3.073h-8.478v3.073a2.821 2.821 0 0 1-.828 2.003l-.585.586a5.657 5.657 0 0 0 5.652 5.662 5.657 5.657 0 0 0 5.652-5.662l-.585-.586" fill="#DADADA"/><path d="M37.495 20.786a7.035 7.035 0 0 0-4.995-2.072c-1.807 0-3.617.69-4.995 2.072a7.06 7.06 0 0 0-2.07 5.005v2.83h.003c0 3.787 2.352 8.493 7.062 8.493 4.708 0 7.062-4.706 7.062-8.492h.003v-2.83a7.06 7.06 0 0 0-2.07-5.006" fill="#EDEDED"/><path d="M32.5 76.745v2.83m0 2.832v2.83m0 2.831v2.83" stroke="#474545" stroke-width="2.831"/></g></svg>