<svg width="80" height="81" viewBox="0 0 80 81" xmlns="http://www.w3.org/2000/svg"><title>4B5F08B6-737C-4BB0-A009-E6CDFFD3414D</title><g fill="none" fill-rule="evenodd"><path d="M25 37.778c0 6.903-5.598 12.5-12.5 12.5S0 44.68 0 37.778c0-6.904 5.598-12.5 12.5-12.5S25 30.873 25 37.778M80 37.778c0 6.903-5.597 12.5-12.5 12.5S55 44.68 55 37.778c0-6.904 5.597-12.5 12.5-12.5S80 30.873 80 37.778" fill="#CFD3D6"/><path fill="#CFD3D6" d="M12.5 50.278h55v-22.5h-55z"/><path d="M25 35.278c0 6.903-5.598 12.5-12.5 12.5S0 42.18 0 35.278c0-6.904 5.598-12.5 12.5-12.5S25 28.373 25 35.278M80 35.278c0 6.903-5.597 12.5-12.5 12.5S55 42.18 55 35.278c0-6.904 5.597-12.5 12.5-12.5S80 28.373 80 35.278M57.5 17.777c0 9.664-7.836 17.5-17.5 17.5s-17.5-7.836-17.5-17.5c0-9.663 7.836-17.5 17.5-17.5s17.5 7.837 17.5 17.5" fill="#DFE3E6"/><path d="M70 20.277c0 5.523-4.478 10-10 10-5.523 0-10-4.477-10-10 0-5.522 4.477-10 10-10 5.522 0 10 4.478 10 10M30 20.277c0 5.523-4.477 10-10 10s-10-4.477-10-10c0-5.522 4.477-10 10-10s10 4.478 10 10" fill="#DFE3E6"/><path fill="#DFE3E6" d="M12.5 47.778h55v-22.5h-55z"/><path d="M22.5 52.778v2.5m0 2.5v2.5m0 2.5v2.5m35-12.5v2.5m0 2.5v2.5m0 2.5v2.5m-23.75-41.25h-2.5v55h2.5m12.5 0h2.5v-55h-2.5m-15 5h17.5m-17.5 5h17.5m-17.5 5h17.5m-17.5 5h17.5m-17.5 5h17.5m-17.5 5h17.5m-17.5 5h17.5m-17.5 5h17.5m-17.5 5h17.5m-17.5 5h17.5" stroke="#646464" stroke-width="2.5"/><path d="M72.5 12.777c0-4.14-3.359-7.5-7.5-7.5M80 5.277a7.501 7.501 0 0 0-7.5 7.5" stroke="#ED1C24" stroke-width="2.5"/></g></svg>