<svg width="81" height="82" viewBox="0 0 81 82" xmlns="http://www.w3.org/2000/svg"><title>B9B7B37B-63BC-40A9-99A2-14A6A8A78B98</title><g fill="none" fill-rule="evenodd"><path d="M7.594 39.388V24.249c0-.969-.371-1.936-1.113-2.675a3.79 3.79 0 0 0-2.684-1.11 3.79 3.79 0 0 0-2.685 1.11A3.765 3.765 0 0 0 0 24.249v23.664c0 .483.091.973.29 1.447.197.475.478.886.822 1.229l8.054 8.027a7.552 7.552 0 0 1 2.225 5.353v1.911h10.125V53.265L7.594 39.388" fill="#E5E5E5"/><path d="M29.11 48.219l-8.887-8.858a3.537 3.537 0 0 0-2.504-1.033c-.979 0-1.916.447-2.558 1.085a3.525 3.525 0 0 0 0 4.996l8.886 8.856c1.265 1.261 1.265 2.523 1.265 3.784v8.831h6.329V54.526c0-1.261 0-3.784-2.532-6.307" fill="#E5E5E5"/><path fill="#E5E5E5" d="M13.922 65.88h15.187V52.003H13.922z"/><path fill="#646464" d="M8.86 81.019h25.312V65.88H8.859zM46.828 81.019h25.313V65.88H46.828z"/><path d="M30.375 68.403v2.523" stroke="#FFF" stroke-width="2.53"/><path d="M73.406 39.388V24.249c0-.969.371-1.936 1.113-2.675a3.79 3.79 0 0 1 2.684-1.11c.972 0 1.943.37 2.685 1.11A3.765 3.765 0 0 1 81 24.249v23.664c0 .483-.091.973-.29 1.447a3.774 3.774 0 0 1-.822 1.229l-8.054 8.027a7.552 7.552 0 0 0-2.225 5.353v1.911H59.484V53.265l13.922-13.877" fill="#E5E5E5"/><path d="M51.89 48.219l8.887-8.858a3.537 3.537 0 0 1 2.504-1.033c.979 0 1.916.447 2.558 1.085a3.525 3.525 0 0 1 0 4.996l-8.886 8.856c-1.266 1.261-1.266 2.523-1.266 3.784v8.831H49.36V54.526c0-1.261 0-3.784 2.532-6.307" fill="#E5E5E5"/><path fill="#E5E5E5" d="M51.89 65.88h15.188V52.003H51.891z"/><path d="M50.625 68.403v2.523" stroke="#FFF" stroke-width="2.53"/><path d="M40.5.28s-8.86 11.774-8.86 17.662c0 4.877 3.968 8.83 8.86 8.83 4.893 0 8.86-3.953 8.86-8.83C49.36 12.054 40.5.28 40.5.28M36.703 40.65h-5.062c-3.24 0-6.478-1.232-8.95-3.696a12.558 12.558 0 0 1-3.707-8.92v-5.046h5.063a12.64 12.64 0 0 1 8.95 3.695 12.558 12.558 0 0 1 3.706 8.92v5.046M44.297 40.65h5.062c3.24 0 6.478-1.232 8.95-3.696a12.558 12.558 0 0 0 3.707-8.92v-5.046h-5.063a12.64 12.64 0 0 0-8.95 3.695 12.558 12.558 0 0 0-3.706 8.92v5.046" fill="#ED1C24"/><path d="M40.5 65.88V17.942m0 50.461v2.523m0 2.523v2.523m0 2.523v2.524" stroke="#474545" stroke-width="2.53"/></g></svg>