<svg width="173" height="53" viewBox="0 0 173 53" xmlns="http://www.w3.org/2000/svg"><title>089DFC5A-D5C1-4704-BBB5-4E1F3E028B13</title><g fill-rule="nonzero" fill="none"><path d="M8.094 37.713c2.953 1.656 6.886 1.938 9.867.127l6.121-3.754 2.502-1.513 2.484-1.535-1.625-2.567-1.625-2.55-2.502 1.518-2.484 1.534-1.626-2.567 2.485-1.518 2.501-1.535-1.603-2.556 2.502-1.535 1.625 2.567-2.502 1.519 1.626 2.567 2.501-1.535 1.625 2.567 2.474-1.551 1.626 2.567-2.502 1.535-1.625-2.567-2.501 1.518-2.502 1.535-1.625-2.568-1.625-2.55-1.626-2.567-8.611 5.305a8.183 8.183 0 0 0-3.636 8.171l.28 1.938z" fill="#FFF"/><path d="M1.471 30.078C-1.168 25.446-.248 18.77 4.16 16.087l16.302-9.982 2.502-1.518 2.485-1.535 1.625 2.567 1.653 2.567-2.502 1.519-2.534 1.529 1.653 2.567 2.501-1.518 2.502-1.535 1.608 2.55 2.502-1.534-1.653-2.55-2.485 1.518-1.625-2.551 2.496-1.557-1.62-2.54 2.496-1.518L30.44 0l-2.496 1.535 1.626 2.55-2.502 1.535-2.484 1.518 1.625 2.568 1.625 2.567 1.626 2.55-2.502 1.535-16.303 9.965a9.945 9.945 0 0 0-4.484 9.982c-.785-.69-1.5-1.456-2.138-2.286a31.476 31.476 0 0 1-2.562-3.941z" fill="#ED3237"/><path fill="#FFF" d="M60.005 38.795l-8.7-13.096 8.325-12.587H55.1l-5.78 9.501-5.884-9.501h-4.529l8.336 12.587-8.694 13.096h4.53l6.242-9.97 6.154 9.97zM79.718 24.132H66.175c.11-2.098.204-2.882.783-4.29a6.578 6.578 0 0 1 5.988-3.865 6.578 6.578 0 0 1 5.99 3.865c.578 1.408.672 2.192.782 4.29zm3.746 2.815v-1.722c0-7.62-3.906-12.428-10.529-12.428-6.495 0-10.512 4.853-10.512 13.145 0 9.093 4.408 13.162 11.196 13.162 4.374 0 6.76-1.364 9.366-3.975l-2.546-2.236c-2.033 2.037-3.746 2.926-6.716 2.926-4.903 0-7.559-3.24-7.559-8.872h17.3zM119.304 24.132h-13.52c.093-2.098.203-2.882.782-4.29a6.578 6.578 0 0 1 5.989-3.865 6.578 6.578 0 0 1 5.989 3.865c.545 1.408.655 2.192.76 4.29zm3.746 2.815v-1.722c0-7.62-3.906-12.428-10.528-12.428-6.513 0-10.53 4.853-10.53 13.145 0 9.093 4.436 13.162 11.196 13.162 4.408 0 6.777-1.364 9.367-3.975l-2.562-2.236c-2.033 2.037-3.747 2.926-6.717 2.926-4.853.006-7.493-3.246-7.493-8.872h17.267zM99.458 38.795v-3.24h-2.033c-2.606 0-3.438-1.254-3.438-3.755V3.092h-3.746v28.863c0 3.914 2.033 6.84 6.512 6.84h2.705zM150.091 38.795V22.348c0-2.975-.843-5.366-2.655-7.177-1.56-1.562-3.813-2.396-6.573-2.396a9.258 9.258 0 0 0-7.163 3.13V13.09h-3.746v25.705h3.746V22.972c0-4.494 2.502-6.84 6.358-6.84 3.857 0 6.309 2.302 6.309 6.84v15.823h3.724z"/><path d="M73.453 45.823c0 .486-.374.8-.782 1.104l-.452.315c-.55-.69-.782-1.016-.782-1.425a.962.962 0 0 1 .997-.999.996.996 0 0 1 1.02 1.005zm.893 5.322a2.873 2.873 0 0 1-2.033.828 1.678 1.678 0 0 1-1.79-1.733c0-.989.732-1.469 1.465-1.988l2.358 2.893zm2.452 1.562l-1.317-1.595c.56-.765.841-1.698.799-2.645h-.876a3.28 3.28 0 0 1-.485 1.971l-2.204-2.66.64-.437c.56-.305.923-.88.958-1.518a1.892 1.892 0 0 0-1.89-1.894c-1.044 0-1.89.848-1.89 1.894.078.718.41 1.384.937 1.877-.953.624-1.873 1.28-1.873 2.584 0 1.518 1.063 2.517 2.754 2.517a3.627 3.627 0 0 0 2.546-1.016l.766.939 1.135-.017z" fill="#ED3237"/><path d="M167.535 50.957c0-1.104-.717-1.518-1.764-1.628l-.953-.078c-.749-.06-1.047-.358-1.047-.877 0-.613.469-.989 1.328-.989.57-.021 1.131.15 1.593.486l.55-.552a3.427 3.427 0 0 0-2.154-.64c-1.267 0-2.204.657-2.204 1.75 0 .988.612 1.501 1.78 1.595l.986.094c.689.05.986.342.986.861 0 .707-.611 1.066-1.575 1.066a2.471 2.471 0 0 1-1.824-.701l-.55.552c.66.606 1.54.917 2.434.861 1.427.011 2.414-.657 2.414-1.8zm-6.656 1.734v-3.815a2.21 2.21 0 0 0-.612-1.656 2.31 2.31 0 0 0-3.2.17v-.662h-.877v5.963h.876v-3.677a1.404 1.404 0 0 1 1.482-1.579c.893 0 1.455.552 1.455 1.579v3.677h.876zm-7.67-3.004c0 .674-.049 1.425-.484 1.844a1.47 1.47 0 0 1-1.102.437c-.413.019-.814-.14-1.102-.437-.435-.425-.501-1.175-.501-1.843a2.571 2.571 0 0 1 .501-1.833c.288-.297.69-.456 1.102-.437a1.47 1.47 0 0 1 1.102.437c.44.441.485 1.192.485 1.833zm.86 0a3.218 3.218 0 0 0-.716-2.379 2.35 2.35 0 0 0-1.703-.674 2.388 2.388 0 0 0-1.719.674 3.218 3.218 0 0 0-.716 2.38 3.234 3.234 0 0 0 .716 2.396c.46.446 1.08.688 1.72.673a2.35 2.35 0 0 0 1.702-.673c.55-.67.808-1.534.716-2.397zm-6.92-4.665v-.966h-.98v.988l.98-.022zm-.044 7.669v-5.963h-.876v5.963h.876zm-2.843 0v-.751h-.463c-.55 0-.81-.331-.81-.878v-3.627h1.268v-.674h-1.268v-1.877h-.876v1.877h-.749v.674h.75v3.66a1.465 1.465 0 0 0 1.531 1.596h.617zm-4.7 0v-5.963h-.876v3.677a1.41 1.41 0 0 1-1.498 1.585c-.904 0-1.455-.552-1.455-1.58v-3.682h-.876v3.804a2.178 2.178 0 0 0 .612 1.656c.413.388.967.588 1.532.553a2.202 2.202 0 0 0 1.685-.735v.657l.877.028zm-6.341 0v-.751h-.468c-.612 0-.8-.282-.8-.878v-7.006h-.875v7.056a1.415 1.415 0 0 0 1.515 1.579h.628zm-5.107-3.004c0 .674-.033 1.425-.469 1.844a1.53 1.53 0 0 1-1.102.437 1.497 1.497 0 0 1-1.101-.437c-.436-.425-.485-1.175-.485-1.843 0-.669.05-1.408.485-1.833.291-.291.69-.449 1.101-.437a1.53 1.53 0 0 1 1.102.437c.441.441.469 1.192.469 1.833zm.876 0a3.229 3.229 0 0 0-.733-2.379 2.35 2.35 0 0 0-1.703-.674 2.388 2.388 0 0 0-1.719.674 3.317 3.317 0 0 0-.716 2.38 3.317 3.317 0 0 0 .716 2.396c.46.446 1.08.688 1.72.673a2.35 2.35 0 0 0 1.702-.673 3.245 3.245 0 0 0 .733-2.397zm-6.562.613a2.21 2.21 0 0 0-.733-1.717 2.812 2.812 0 0 0-1.587-.585l-.936-.143a2.675 2.675 0 0 1-1.174-.47 1.277 1.277 0 0 1-.391-.999c0-.955.672-1.612 1.83-1.612a2.752 2.752 0 0 1 2.016.75l.595-.595a3.472 3.472 0 0 0-2.579-.956c-1.702 0-2.755.972-2.755 2.44a2.023 2.023 0 0 0 .64 1.618c.458.365 1.01.592 1.592.657l.997.155c.403.02.789.17 1.102.425.3.285.457.69.424 1.104 0 1-.782 1.596-2.044 1.596a2.933 2.933 0 0 1-2.341-.939l-.64.624a3.78 3.78 0 0 0 2.97 1.143c1.83-.028 3.014-.966 3.014-2.485v-.01zM110.742 49.688c0 1.175-.204 2.285-1.499 2.285-1.294 0-1.498-1.104-1.498-2.285 0-1.182.204-2.27 1.498-2.27 1.295 0 1.499 1.127 1.499 2.27zm.876 2.986v-8.618h-.876v3.362a1.905 1.905 0 0 0-1.653-.767 2.069 2.069 0 0 0-1.454.519c-.617.607-.75 1.612-.75 2.517 0 .906.127 1.938.733 2.551.4.354.921.54 1.455.52a1.943 1.943 0 0 0 1.702-.785v.707l.843-.006zm-6.843 0v-5.946h-.876v3.677a1.41 1.41 0 0 1-1.482 1.58c-.903 0-1.465-.553-1.465-1.58v-3.677h-.86v3.804c-.04.611.176 1.21.595 1.656.42.386.98.585 1.548.553a2.202 2.202 0 0 0 1.686-.735v.657l.854.011zm-7.581-2.986c0 .673-.033 1.424-.468 1.843a1.53 1.53 0 0 1-1.102.437 1.497 1.497 0 0 1-1.102-.437c-.435-.425-.485-1.175-.485-1.843 0-.669.05-1.408.485-1.833.292-.291.69-.449 1.102-.437a1.53 1.53 0 0 1 1.102.437c.435.441.468 1.192.468 1.833zm.876 0a3.229 3.229 0 0 0-.733-2.38 2.492 2.492 0 0 0-3.405 0 3.229 3.229 0 0 0-.738 2.38 3.245 3.245 0 0 0 .733 2.396 2.492 2.492 0 0 0 3.405 0c.557-.668.823-1.53.738-2.397zm-6.027 2.986v-.734h-.469c-.611 0-.799-.282-.799-.878v-7.006H89.9v7.056a1.415 1.415 0 0 0 1.516 1.579l.628-.017zm-4.232-2.49h-.925a2.107 2.107 0 1 1-3.56 1.104c-.55-.552-.611-1.142-.611-2.959 0-1.816.06-2.412.611-2.959a2.064 2.064 0 0 1 1.483-.613 2.023 2.023 0 0 1 2.044 1.75h.953a2.922 2.922 0 0 0-2.997-2.583 3.027 3.027 0 0 0-2.204.905c-.81.812-.81 1.656-.81 3.49 0 1.832 0 2.694.81 3.505.585.582 1.38.904 2.204.894a2.922 2.922 0 0 0 2.997-2.512l.005-.022zM64.38 52.69v-3.814a2.21 2.21 0 0 0-.612-1.656 2.31 2.31 0 0 0-3.201.17v-.662h-.876v5.963h.876v-3.677a1.399 1.399 0 0 1 1.465-1.579c.904 0 1.466.552 1.466 1.579v3.677h.881zm-7.632-3.002c0 .673-.05 1.424-.484 1.843a1.562 1.562 0 0 1-2.171 0c-.435-.425-.485-1.175-.485-1.843 0-.669.05-1.408.485-1.833a1.562 1.562 0 0 1 2.17 0c.42.441.485 1.192.485 1.833zm.86 0a3.218 3.218 0 0 0-.716-2.38 2.509 2.509 0 0 0-3.422 0 3.218 3.218 0 0 0-.744 2.38 3.234 3.234 0 0 0 .717 2.412 2.509 2.509 0 0 0 3.421 0 3.234 3.234 0 0 0 .722-2.413h.022zm-6.92-4.649v-.983h-1.003v.988l1.003-.005zm-.06 7.652v-5.963h-.899v5.963h.898zm-2.844 0v-.751h-.451c-.551 0-.81-.331-.81-.878v-3.627h1.267v-.674h-1.267v-1.877h-.898v1.877h-.75v.674h.75v3.66a1.465 1.465 0 0 0 1.531 1.596h.628zm-5.51-2.115c.045.37-.062.743-.297 1.033-.37.322-.858.47-1.344.408-.937 0-1.36-.331-1.36-1.016 0-.684.434-1.065 1.327-1.065h1.653l.022.64zm.877 2.115v-4.052c0-1.298-.783-1.988-2.391-1.988-.97 0-1.576.188-2.11.894l.595.552a1.564 1.564 0 0 1 1.498-.69c1.102 0 1.532.437 1.532 1.314v.552H40.45c-1.328 0-2.06.69-2.06 1.74-.013.445.149.877.451 1.203.455.423 1.07.624 1.686.552a2.091 2.091 0 0 0 1.72-.64v.552l.903.01zm-6.022-.795l-.595-.552c-.32.435-.832.687-1.372.673a1.652 1.652 0 0 1-1.388-.673c-.5-1.01-.5-2.197 0-3.208a1.767 1.767 0 0 1 2.754 0l.595-.552a2.362 2.362 0 0 0-1.967-.894c-1.498-.039-2.65.977-2.65 2.998 0 2.02 1.14 3.07 2.64 3.07.76.05 1.5-.271 1.983-.862zm-7.267-2.209c0 .674-.033 1.425-.469 1.844a1.53 1.53 0 0 1-1.101.437 1.497 1.497 0 0 1-1.102-.437c-.436-.425-.485-1.175-.485-1.843 0-.669.05-1.408.485-1.833.292-.291.69-.449 1.102-.437a1.53 1.53 0 0 1 1.101.437c.441.441.469 1.192.469 1.833zm.876 0a3.317 3.317 0 0 0-.716-2.379 2.388 2.388 0 0 0-1.72-.674 2.35 2.35 0 0 0-1.702.674 3.229 3.229 0 0 0-.733 2.38 3.245 3.245 0 0 0 .733 2.396 2.35 2.35 0 0 0 1.703.673 2.388 2.388 0 0 0 1.719-.673c.542-.675.799-1.535.716-2.397zm-6.028 3.004v-.751h-.468c-.612 0-.799-.282-.799-.878v-7.006h-.854v7.056a1.415 1.415 0 0 0 1.515 1.579h.606zm-5.09-3.004c0 .674-.034 1.425-.469 1.844a1.53 1.53 0 0 1-1.102.437 1.497 1.497 0 0 1-1.102-.437c-.435-.425-.484-1.175-.484-1.843 0-.669.05-1.408.484-1.833.292-.291.69-.449 1.102-.437a1.53 1.53 0 0 1 1.102.437c.435.441.469 1.192.469 1.833zm.876 0a3.229 3.229 0 0 0-.733-2.379 2.492 2.492 0 0 0-3.405 0 3.229 3.229 0 0 0-.738 2.38 3.245 3.245 0 0 0 .732 2.396 2.492 2.492 0 0 0 3.405 0c.557-.668.823-1.53.739-2.397zm-6.667.503h-.926a2.107 2.107 0 1 1-3.537 1.154c-.55-.552-.611-1.143-.611-2.96 0-1.816.06-2.423.611-2.97a2.064 2.064 0 0 1 1.482-.612 2.023 2.023 0 0 1 2.044 1.75h.954a2.922 2.922 0 0 0-2.998-2.584 3.027 3.027 0 0 0-2.204.905c-.81.812-.81 1.657-.81 3.49 0 1.832 0 2.694.81 3.505.586.582 1.38.904 2.204.895a2.922 2.922 0 0 0 2.975-2.557l.006-.016zM167.364 38.795v-3.24h-1.984c-2.407 0-3.498-1.409-3.498-3.755V16.01h5.482v-2.898h-5.482V3.097h-3.758v10.015h-3.234v2.898h3.234v15.9c0 3.804 2.204 6.885 6.562 6.885h2.678z" fill="#FFF"/><path fill="#ED3237" d="M172.983 13.129h-2.859v2.865h2.86z"/></g></svg>