<?xml version="1.0" encoding="utf-8"?>
<svg version="1.1" xmlns="http://www.w3.org/2000/svg" xmlns:xlink="http://www.w3.org/1999/xlink" x="0px" y="0px"
					width="77px" height="20px" viewBox="0 0 77 20" xml:space="preserve">
		<path class="st0" d="M71.7315445,4.7308025c-3.4538956,0-5.294754,2.209825-5.294754,5.2584257
			c0,3.0466394,1.8408585,5.2765951,5.294754,5.2765951c3.4579239,0,5.2776337-2.2299557,5.2776337-5.2765951
			C77.0091782,6.9406276,75.1894684,4.7308025,71.7315445,4.7308025z M71.7315445,13.3523827
			c-1.596817,0-2.0998764-1.5424175-2.0998764-3.3813238c0-1.840867,0.4838562-3.4558582,2.0998764-3.4558582
			c1.615097,0,2.0808868,1.6149912,2.0808868,3.4558582C73.8124313,11.8099651,73.3466415,13.3523827,71.7315445,13.3523827z
			 M11.6976252,10.3057432c0,2.9700394,1.9880791,4.9238443,4.7937689,4.9238443
			c0.9466553,0,1.7289658-0.1492758,2.2673264-0.3730869v1.5949631C18.7587204,19.0040264,21.860693,19,21.860693,19V5.4727449
			c-0.8356781-0.4082904-2.2853909-0.7419424-4.1807652-0.7419424C13.4054241,4.7308025,11.6976252,7.2198753,11.6976252,10.3057432
			z M18.7587204,13.2757826c-0.3176498,0.1502056-0.8166828,0.2610788-1.3741455,0.2610788
			c-1.637187,0-2.4921703-1.2430391-2.4921703-3.4558582c0-2.3963685,0.892251-3.7160077,2.6201801-3.7160077
			c0.5383644,0,0.9496479,0.0947685,1.2461357,0.2238111V13.2757826z M5.4532151,4.7670379
			c-1.0585604,0-1.7824364,0.1855111-2.3208013,0.3911533V3.2447505c0.0101168-3.1312909-3.1232386-2.8247893-3.1232386-2.8247893
			v14.1018553c0.7824098,0.4294529,2.2108574,0.7440071,4.1798377,0.7440071c3.8490758,0,5.9852958-2.0606527,5.9852958-5.5367441
			C10.1743088,6.7742147,8.2417698,4.7670379,5.4532151,4.7670379z M4.3583164,13.5580244
			c-0.5584953,0-0.9486163-0.0765991-1.2259026-0.2056417V6.6442432C3.5044689,6.4769011,3.948065,6.4042244,4.5427957,6.4042244
			c1.7652998,0,2.4346685,1.4839873,2.4346685,3.4923C6.9774642,12.1083107,6.1246486,13.5580244,4.3583164,13.5580244z
			 M30.6315498,7.3660545v5.7443476c-0.3537827,0.1492767-0.9113483,0.26015-1.5978546,0.26015
			c-1.2461357,0-1.7672615-0.6693687-1.7672615-1.4860525V4.9888873c0,0-3.092062,0.0220923-3.1384144,2.3771672v4.3511028
			c0,2.3591013,1.5404568,3.548666,4.8300056,3.548666c2.1554203,0,3.8289471-0.3145542,4.8128681-0.7440071V4.9888873
			C33.7708931,4.9888873,30.6769733,5.0109797,30.6315498,7.3660545z M54.135437,2.4755547v2.4971249
			c-0.4072609-0.0937362-1.0776634-0.1864405-1.8388062-0.1864405c-3.0658379,0-5.2030945,2.0615811-5.2030945,5.294764
			c0,3.4196234,2.1171227,5.1848202,5.7242165,5.1848202c1.9870491,0,3.3833923-0.2782154,4.4398842-0.7440071V0.4612547
			C57.1639023,0.4612547,54.2100716,0.4592932,54.135437,2.4755547z M54.135437,13.2596788
			c-0.2591171,0.1290417-0.7248116,0.2217464-1.2440758,0.2217464c-1.8227005,0-2.5999451-1.2430401-2.5999451-3.5304966
			c0-2.0788212,0.8165779-3.5859332,2.7461243-3.5859332c0.4093246,0,0.7823067,0.0392289,1.0978966,0.1119056V13.2596788z
			 M59.5239334,5.4727449v9.5340643h0.0080528c0.1845818-0.0020647,3.0990791-0.0555401,3.1172485-2.7654305
			c0-0.14112,0.007019-0.2640715,0.0141449-0.3780422V6.7187781c0.6149635-0.2590141,1.7298927-0.2418771,2.5848732,0.0363383
			l0.5927658-1.949779c-0.3155823-0.0382996-0.9284821-0.0745349-1.4295807-0.0745349
			C62.1643448,4.7308025,60.6762276,5.0090179,59.5239334,5.4727449z M40.6464767,4.7308025
			c-1.9880791,0-3.5285339,0.4273887-4.3470764,0.7419424l0.668335,1.5988865
			c0.7621765-0.316515,1.9880791-0.5947304,3.0829773-0.5947304c1.3196411,0,2.1946526,0.3366456,2.1946526,1.4497137v0.5020266
			c-3.5869675,0.2963848-6.6728363,1.0031242-6.6728363,3.6595392c0,2.0445471,1.7097626,3.1776428,5.0739479,3.1776428
			c1.9880791,0,3.5869675-0.2974176,4.5537529-0.7440071v-6.113306C45.2002296,5.714725,43.2837944,4.7308025,40.6464767,4.7308025z
			 M42.2453651,13.4451895c-0.3175468,0.147109-0.7994423,0.260047-1.4123459,0.260047
			c-1.4124451,0-2.2884865-0.520196-2.2884865-1.7279291c0-1.7098637,1.5061798-2.0807829,3.7008324-2.2865286V13.4451895z"/>
</svg>
