<svg width="48" height="48" viewBox="0 0 48 48" xmlns="http://www.w3.org/2000/svg"><title>66FA7566-F2B4-4CB3-AFE6-67B562E585A4</title><path d="M24 48C10.745 48 0 37.255 0 24S10.745 0 24 0s24 10.745 24 24-10.745 24-24 24zm0-2c12.15 0 22-9.85 22-22S36.15 2 24 2 2 11.85 2 24s9.85 22 22 22zm-1.515-17.201l12.026-12.025a.997.997 0 0 1 1.41.004.994.994 0 0 1 .004 1.41L23.899 30.213 22.485 28.8zm-7.778-6.364c.39-.39 1.03-.385 1.416.002l7.776 7.776-.707.707c-.39.39-1.029.385-1.416-.001L14.71 23.85a.999.999 0 0 1-.002-1.416z" fill="#ED1C24" fill-rule="evenodd"/></svg>