<?xml version="1.0" encoding="UTF-8"?>
<svg width="19px" height="19px" viewBox="0 0 19 19" version="1.1" xmlns="http://www.w3.org/2000/svg" xmlns:xlink="http://www.w3.org/1999/xlink">
    <g id="Ready-To-Code">
        <g id="etalon" transform="translate(-1065.000000, -2517.000000)">
            <g id="close" transform="translate(1024.000000, 2517.000000)">
                <g id="icon/close-hover" transform="translate(41.000000, 0.000000)">
                    <path d="M10.916357,9.5 L18.7039836,1.71237341 C19.0949129,1.32144406 19.0974365,0.684795893 18.7063203,0.293679717 C18.3124773,-0.10016325 17.6800333,-0.0963902696 17.2876266,0.296016447 L9.5,8.08364303 L1.71237341,0.296016447 C1.32144406,-0.0949129105 0.684795893,-0.0974364594 0.293679717,0.293679717 C-0.10016325,0.687522684 -0.0963902696,1.3199667 0.296016447,1.71237341 L8.08364303,9.5 L0.296016447,17.2876266 C-0.0949129105,17.6785559 -0.0974364594,18.3152041 0.293679717,18.7063203 C0.687522684,19.1001632 1.3199667,19.0963903 1.71237341,18.7039836 L9.5,10.916357 L17.2876266,18.7039836 C17.6785559,19.0949129 18.3152041,19.0974365 18.7063203,18.7063203 C19.1001632,18.3124773 19.0963903,17.6800333 18.7039836,17.2876266 L10.916357,9.5 Z" id="Combined-Shape"></path>
                </g>
            </g>
        </g>
    </g>
</svg>
