<?xml version="1.0" encoding="UTF-8"?>
<svg width="24px" height="16px" viewBox="0 0 24 16" version="1.1" xmlns="http://www.w3.org/2000/svg" xmlns:xlink="http://www.w3.org/1999/xlink">
    <!-- Generator: sketchtool 42 (36781) - http://www.bohemiancoding.com/sketch -->
    <title>8C247945-559B-4FEE-B778-63628C761EE5</title>
    <desc>Created with sketchtool.</desc>
    <defs></defs>
    <g id="Ready-To-Code" stroke="none" stroke-width="1" fill="none" fill-rule="evenodd">
        <g id="Documents-" transform="translate(-358.000000, -1782.000000)" fill-rule="nonzero" fill="#ED1C24">
            <g id="dogovor" transform="translate(-1.000000, 1345.000000)">
                <g id="Group-2" transform="translate(151.000000, 280.000000)">
                    <g id="1">
                        <g id="PDF" transform="translate(195.000000, 140.000000)">
                            <g id="cloud-download" transform="translate(13.000000, 17.000000)">
                                <path d="M19.4,6 C18.7,2.6 15.7,0 12,0 C9.1,0 6.6,1.6 5.4,4 C2.3,4.4 0,6.9 0,10 C0,13.3 2.7,16 6,16 L19,16 C21.8,16 24,13.8 24,11 C24,8.4 21.9,6.2 19.4,6 Z M17,9 L12.5,13 L8,9 L11.0039636,8.99568577 L11,6 L14,6 L14,8.9963087 L17,9 Z" id="Shape"></path>
                            </g>
                        </g>
                    </g>
                </g>
            </g>
        </g>
    </g>
</svg>