<?xml version="1.0" encoding="UTF-8"?>
<svg width="104px" height="120px" viewBox="0 0 104 120" version="1.1" xmlns="http://www.w3.org/2000/svg" xmlns:xlink="http://www.w3.org/1999/xlink">
    <!-- Generator: sketchtool 42 (36781) - http://www.bohemiancoding.com/sketch -->
    <title>B54C99C5-93C9-4A94-B700-9E8D0D58BD45</title>
    <desc>Created with sketchtool.</desc>
    <defs></defs>
    <g id="Ready-To-Code" stroke="none" stroke-width="1" fill="none" fill-rule="evenodd">
        <g id="Documents-" transform="translate(-173.000000, -1678.000000)" fill-rule="nonzero">
            <g id="dogovor" transform="translate(-1.000000, 1345.000000)">
                <g id="Group-2" transform="translate(151.000000, 280.000000)">
                    <g id="1">
                        <g id="DOC-icon" transform="translate(23.000000, 53.000000)">
                            <path d="M76,24.0001068 L76,4.0001068 L16,4.0001068 L16,20.0001068 L38,20.0001068 C39.1054688,20.0001068 40,20.894638 40,22.0001068 L40,58.0001068 C40,59.1055756 39.1054688,60.0001068 38,60.0001068 L16,60.0001068 L16,116.000107 L100,116.000107 L100,28.0001068 L80,28.0001068 C77.7907716,28.0001068 76,26.2090912 76,24.0001068 Z M92,108.000107 L24,108.000107 L24,100.000107 L92,100.000107 L92,108.000107 Z M92,92.0001068 L24,92.0001068 L24,84.0001068 L92,84.0001068 L92,92.0001068 Z M92,76.0001068 L24,76.0001068 L24,68.0001068 L92,68.0001068 L92,76.0001068 Z M92,60.0001068 L48,60.0001068 L48,52.0001068 L92,52.0001068 L92,60.0001068 Z M92,44.0001068 L48,44.0001068 L48,36.0001068 L92,36.0001068 L92,44.0001068 Z" id="Shape" fill="#FFFFFF"></path>
                            <path d="M103.949951,23.7491304 C103.88916,22.7974704 103.531006,21.8741304 102.828369,21.1714936 L82.8283692,1.1714936 C82.0632324,0.4063568 81.0400392,-0.0001372 79.9990236,-0.0001372 C79.9990236,-0.0001372 79.9982912,0.0001068 79.9978028,0.0001068 L14,0.0001068 C12.8945312,0.0001068 12,0.894638 12,2.0001068 L12,20.0001068 L2,20.0001068 C0.8945312,20.0001068 0,20.894638 0,22.0001068 L0,58.0001068 C0,59.1055756 0.8945312,60.0001068 2,60.0001068 L12,60.0001068 L12,118.000107 C12,119.105576 12.8945312,120.000107 14,120.000107 L102,120.000107 C103.105469,120.000107 104,119.105576 104,118.000107 L104,24.0001068 C104,23.9129488 103.961182,23.8343352 103.949951,23.7491304 Z M100,116.000107 L16,116.000107 L16,60.0001068 L38,60.0001068 C39.1054688,60.0001068 40,59.1055756 40,58.0001068 L40,22.0001068 C40,20.894638 39.1054688,20.0001068 38,20.0001068 L16,20.0001068 L16,4.0001068 L76,4.0001068 L76,24.0001068 C76,26.2090912 77.7907716,28.0001068 80,28.0001068 L100,28.0001068 L100,116.000107 Z M4,24.0001068 L36,24.0001068 L36,56.0001068 L4,56.0001068 L4,24.0001068 Z M80,24.0001068 L80,4.0001068 L100,24.0001068 L80,24.0001068 Z" id="Shape" fill="#646464"></path>
                            <polygon id="Shape" fill="#DADADA" points="80 4.0001068 80 24.0001068 100 24.0001068"></polygon>
                            <path d="M36,56.0001068 L36,24.0001068 L4,24.0001068 L4,56.0001068 L36,56.0001068 Z M7.5859376,32.9454192 L7.5859376,30.9102632 L14.21875,30.9102632 L14.21875,32.9454196 L11.9980468,32.9454196 L14.90625,45.1797948 C15.0371092,45.8438572 15.1171876,46.5821384 15.1171876,46.5821384 L15.1953124,46.5821384 C15.1953124,46.5821384 15.3027344,45.8438572 15.4609372,45.1797948 L19.3710936,30.9102636 L21.6191404,30.9102636 L25.503906,45.1797948 C25.6874996,45.8438572 25.767578,46.5821384 25.767578,46.5821384 L25.8730468,46.5821384 C25.8730468,46.5821384 25.9257812,45.8438572 26.0585936,45.1797948 L28.9648436,32.9454196 L26.7460936,32.9454196 L26.7460936,30.9102632 L33.40625,30.9102632 L33.40625,32.9454196 L31.607422,32.9454196 L27.4316408,49.5704196 L24.419922,49.5704196 L20.7734376,36.328232 C20.5878908,35.6680756 20.5351564,34.8477632 20.5351564,34.8477632 L20.4296876,34.8477632 C20.4296876,34.8477632 20.3769532,35.6680756 20.1914064,36.328232 L16.544922,49.5704196 L13.53125,49.5704196 L9.3828124,32.9454196 L7.5859376,32.9454196 L7.5859376,32.9454192 Z" id="Shape" fill="#4990E2"></path>
                            <path d="M13.53125,49.5704192 L16.544922,49.5704192 L20.1914064,36.328232 C20.3769532,35.6680756 20.4296876,34.8477632 20.4296876,34.8477632 L20.5351564,34.8477632 C20.5351564,34.8477632 20.5878908,35.6680756 20.7734376,36.328232 L24.419922,49.5704196 L27.4316408,49.5704196 L31.607422,32.9454196 L33.40625,32.9454196 L33.40625,30.9102632 L26.7460936,30.9102632 L26.7460936,32.9454196 L28.9648436,32.9454196 L26.0585936,45.1797948 C25.9257812,45.8438572 25.8730468,46.5821384 25.8730468,46.5821384 L25.767578,46.5821384 C25.767578,46.5821384 25.6875,45.8438572 25.503906,45.1797948 L21.6191408,30.9102632 L19.3710936,30.9102632 L15.4609372,45.1797944 C15.302734,45.8438568 15.1953124,46.582138 15.1953124,46.582138 L15.1171876,46.582138 C15.1171876,46.582138 15.0371096,45.8438568 14.90625,45.1797944 L11.9980468,32.9454192 L14.21875,32.9454192 L14.21875,30.9102632 L7.5859376,30.9102632 L7.5859376,32.9454196 L9.3828128,32.9454196 L13.53125,49.5704192 Z" id="Shape" fill="#FFFFFF"></path>
                            <rect id="Rectangle-path" fill="#DADADA" x="48" y="36.0001068" width="44" height="8"></rect>
                            <rect id="Rectangle-path" fill="#DADADA" x="48" y="52.0001068" width="44" height="8"></rect>
                            <rect id="Rectangle-path" fill="#DADADA" x="24" y="68.0001068" width="68" height="8"></rect>
                            <rect id="Rectangle-path" fill="#DADADA" x="24" y="84.0001068" width="68" height="8"></rect>
                            <rect id="Rectangle-path" fill="#DADADA" x="24" y="100.000107" width="68" height="8"></rect>
                        </g>
                    </g>
                </g>
            </g>
        </g>
    </g>
</svg>