<?xml version="1.0" encoding="UTF-8"?>
<svg width="30px" height="20px" viewBox="0 0 30 20" version="1.1" xmlns="http://www.w3.org/2000/svg" xmlns:xlink="http://www.w3.org/1999/xlink">
    <!-- Generator: sketchtool 42 (36781) - http://www.bohemiancoding.com/sketch -->
    <title>939DE5E9-26EF-4061-8788-BA7BB29FE61E</title>
    <desc>Created with sketchtool.</desc>
    <defs></defs>
    <g id="Ready-To-Code" stroke="none" stroke-width="1" fill="none" fill-rule="evenodd">
        <g id="Documents-" transform="translate(-355.000000, -680.000000)" fill-rule="nonzero" fill="#ED1C24">
            <g id="license" transform="translate(0.000000, 245.000000)">
                <g id="1" transform="translate(150.000000, 280.000000)">
                    <g id="PDF" transform="translate(195.000000, 140.000000)">
                        <g id="eye-icon" transform="translate(10.000000, 15.000000)">
                            <path d="M15,-1.77635684e-15 C8.38303921,-1.77635684e-15 2.68009441,3.97964209 0.0603443652,9.72254145 C-0.0201147884,9.89656871 -0.0201147884,10.1001478 0.0603443652,10.2774585 C2.68009441,16.0203251 8.38307139,20 15,20 C21.6169286,20 27.3199056,16.0203579 29.9396556,10.2774585 C30.0201148,10.1034313 30.0201148,9.89985224 29.9396556,9.72254145 C27.3199056,3.97964209 21.6169608,-1.77635684e-15 15,-1.77635684e-15 Z M15,16.9003776 C11.2634769,16.9003776 8.23821273,13.8105401 8.23821273,10.0016418 C8.23821273,6.18945986 11.2666953,3.10293876 15,3.10293876 C18.7365231,3.10293876 21.7617873,6.19274339 21.7617873,10.0016418 C21.7617873,13.8105401 18.7333047,16.9003776 15,16.9003776 Z" id="Shape"></path>
                            <ellipse id="Oval" cx="14.9863344" cy="10.0008197" rx="4.32475884" ry="4.40983607"></ellipse>
                        </g>
                    </g>
                </g>
            </g>
        </g>
    </g>
</svg>