<?xml version="1.0" encoding="UTF-8"?>
<svg width="22px" height="14px" viewBox="0 0 22 14" version="1.1" xmlns="http://www.w3.org/2000/svg" xmlns:xlink="http://www.w3.org/1999/xlink">
    <!-- Generator: sketchtool 42 (36781) - http://www.bohemiancoding.com/sketch -->
    <title>02FBF0FF-F827-478F-899D-7A4E57379205</title>
    <desc>Created with sketchtool.</desc>
    <defs></defs>
    <g id="Ready-To-Code" stroke="none" stroke-width="1" fill="none" fill-rule="evenodd">
        <g id="etalon" transform="translate(-260.000000, -4030.000000)" fill-rule="nonzero" fill="#FFFFFF">
            <g id="social-networks" transform="translate(157.000000, 4019.000000)">
                <g id="normal">
                    <g id="tw-copy" transform="translate(96.000000, 0.000000)">
                        <g id="g+" transform="translate(7.000000, 11.000000)">
                            <path d="M7.67816044,8.44412102 L11.0972529,8.44412102 C10.4970946,10.1405981 8.87164787,11.356924 6.96868706,11.3428862 C4.65969887,11.3258402 2.75048193,9.47905323 2.66084262,7.17216904 C2.56475616,4.69936147 4.54899886,2.65699975 7.00130488,2.65699975 C8.1225842,2.65699975 9.14581903,3.084151 9.91723284,3.78408509 C10.0999499,3.94991298 10.3780849,3.95096343 10.5577933,3.78184094 L11.8136032,2.60013219 C12.0099787,2.4153007 12.0106951,2.10317374 11.8148927,1.91772153 C10.5915095,0.758931687 8.95039866,0.0366516627 7.1406589,0.00131833702 C3.2806767,-0.0740275927 0.027061182,3.09016722 0.000174165664,6.95009431 C-0.0269516341,10.8390043 3.11796965,14 7.00130488,14 C10.7358303,14 13.7866231,11.0764538 13.990974,7.39371854 C13.9964182,7.34754648 14,5.78710267 14,5.78710267 L7.67816044,5.78710267 C7.41903264,5.78710267 7.20899872,5.99709722 7.20899872,6.25617645 L7.20899872,7.97504725 C7.20899872,8.23412647 7.4190804,8.44412102 7.67816044,8.44412102 Z" id="Shape"></path>
                            <path d="M19.7194499,5.95475719 L19.7194499,4.3843704 C19.7194499,4.1720715 19.5186999,4 19.2710178,4 L17.7289822,4 C17.4813001,4 17.2805501,4.1720715 17.2805501,4.3843704 L17.2805501,5.95475719 L15.4484321,5.95475719 C15.2007501,5.95475719 15,6.12682869 15,6.33912759 L15,7.66087241 C15,7.87317131 15.2007501,8.04524281 15.4484321,8.04524281 L17.2805501,8.04524281 L17.2805501,9.6156296 C17.2805501,9.8279285 17.4813001,10 17.7289822,10 L19.2710178,10 C19.5186999,10 19.7194499,9.8279285 19.7194499,9.6156296 L19.7194499,8.04524281 L21.5515679,8.04524281 C21.7992499,8.04524281 22,7.87317131 22,7.66087241 L22,6.33912759 C22,6.12682869 21.7992499,5.95475719 21.5515679,5.95475719 L19.7194499,5.95475719 L19.7194499,5.95475719 Z" id="Shape"></path>
                        </g>
                    </g>
                </g>
            </g>
        </g>
    </g>
</svg>