<svg width="25" height="25" viewBox="0 0 25 25" xmlns="http://www.w3.org/2000/svg"><title>DB5C7320-9B9B-4973-93C6-57D5693DADBF</title><path d="M12.5 0C5.596 0 0 5.597 0 12.5 0 19.401 5.597 25 12.5 25 19.401 25 25 19.402 25 12.5 25 5.596 19.402 0 12.5 0zm2.602 19.372c-.644.254-1.156.447-1.54.58-.383.134-.829.2-1.336.2-.778 0-1.385-.19-1.816-.57a1.84 1.84 0 0 1-.647-1.447c0-.227.016-.46.048-.697a8.71 8.71 0 0 1 .155-.803l.805-2.845c.071-.273.133-.532.181-.773a3.43 3.43 0 0 0 .072-.67c0-.362-.075-.616-.224-.759-.151-.142-.436-.212-.86-.212-.208 0-.421.03-.64.095a9.095 9.095 0 0 0-.56.186l.212-.876a20.058 20.058 0 0 1 1.514-.551 4.47 4.47 0 0 1 1.365-.231c.773 0 1.37.188 1.79.56.418.374.629.86.629 1.457 0 .124-.015.342-.044.653a4.369 4.369 0 0 1-.16.858l-.802 2.836a8.023 8.023 0 0 0-.176.779 4.118 4.118 0 0 0-.078.662c0 .377.084.634.253.77.168.137.46.206.876.206.195 0 .414-.035.662-.103.245-.067.423-.128.535-.18l-.214.875zm-.142-11.51c-.374.346-.823.52-1.35.52-.524 0-.977-.174-1.354-.52a1.662 1.662 0 0 1-.564-1.263c0-.492.19-.915.564-1.266.377-.351.83-.526 1.355-.526.526 0 .976.175 1.349.526.373.35.56.774.56 1.266 0 .494-.187.915-.56 1.262z" fill-rule="nonzero" fill="#ED1C24"/></svg>