<?xml version="1.0" encoding="UTF-8"?>
<svg width="77px" height="102px" viewBox="0 0 77 102" version="1.1" xmlns="http://www.w3.org/2000/svg" xmlns:xlink="http://www.w3.org/1999/xlink">
    <!-- Generator: sketchtool 42 (36781) - http://www.bohemiancoding.com/sketch -->
    <title>4FD33F6D-4B89-4277-AAFF-77E9C6E0A425</title>
    <desc>Created with sketchtool.</desc>
    <defs></defs>
    <g id="Ready-To-Code" stroke="none" stroke-width="1" fill="none" fill-rule="evenodd">
        <g id="Contacts" transform="translate(-972.000000, -858.000000)">
            <g id="marker" transform="translate(972.000000, 858.000000)">
                <g id="Capa_1">
                    <circle id="Oval" fill="#FBFBFB" cx="38.5" cy="38.5" r="27.5"></circle>
                    <path d="M38.5223616,0 C17.324789,0 0.137334247,17.0992716 0.137334247,38.1880864 C0.137334247,46.7779136 2.98612329,54.6967654 7.79725205,61.0803704 L38.5225726,101.834827 L69.2476822,61.0803704 C74.0592329,54.6967654 76.9076,46.7781235 76.9076,38.1880864 C76.9076,17.0992716 59.7201452,0 38.5223616,0 Z M38.5223616,63.6465309 C24.3904356,63.6465309 12.9326247,52.2479259 12.9326247,38.1880864 C12.9326247,24.1286667 24.3904356,12.7292222 38.5223616,12.7292222 C52.6547096,12.7292222 64.1120986,24.1286667 64.1120986,38.1880864 C64.1120986,52.2481358 52.6549205,63.6465309 38.5223616,63.6465309 Z" id="Shape" fill="#ED1C24" fill-rule="nonzero"></path>
                </g>
            </g>
        </g>
    </g>
</svg>