<?xml version="1.0" encoding="UTF-8"?>
<svg width="13px" height="21px" viewBox="0 0 13 21" version="1.1" xmlns="http://www.w3.org/2000/svg" xmlns:xlink="http://www.w3.org/1999/xlink">
    <!-- Generator: sketchtool 42 (36781) - http://www.bohemiancoding.com/sketch -->
    <title>0A887C8C-E993-488E-977E-22040E8064AB</title>
    <desc>Created with sketchtool.</desc>
    <defs></defs>
    <g id="Ready-To-Code" stroke="none" stroke-width="1" fill="none" fill-rule="evenodd">
        <g id="etalon" transform="translate(-360.000000, -4026.000000)" fill-rule="nonzero" fill="#FFFFFF">
            <g id="social-networks" transform="translate(157.000000, 4019.000000)">
                <g id="normal">
                    <g id="ok" transform="translate(192.000000, 0.000000)">
                        <g transform="translate(11.000000, 7.000000)" id="Shape">
                            <path d="M5.43431949,15.0445148 C3.75597931,14.8816421 2.2427069,14.4970345 0.947106282,13.554187 C0.786346597,13.4368849 0.620371859,13.3238022 0.473670143,13.1927867 C-0.093410212,12.6860246 -0.150549056,12.1056323 0.298172264,11.507518 C0.682045532,10.9956925 1.32644472,10.8587697 1.99623895,11.1526579 C2.12593506,11.2096212 2.24950914,11.2807198 2.36786818,11.3570928 C4.78243783,12.9007973 8.09943844,12.9434142 10.5230778,11.4265036 C10.7631969,11.2551918 11.0198683,11.1155263 11.317353,11.0442168 C11.8957705,10.9060281 12.4351884,11.1037117 12.7455974,11.574608 C13.100221,12.1123835 13.0956862,12.6372894 12.6587554,13.054809 C11.9885077,13.6949074 11.1824419,14.1579976 10.2868132,14.4812114 C9.43993387,14.7867033 8.51233461,14.9405041 7.5942585,15.042616 C7.73279752,15.1829144 7.79809906,15.2519033 7.88471429,15.3329177 C9.13133876,16.4983439 10.383405,17.6589177 11.6259481,18.8279305 C12.0492744,19.2262514 12.1377036,19.720144 11.9046134,20.1834452 C11.649756,20.6897854 11.0792745,21.022915 10.5199034,20.9872602 C10.1655065,20.9644749 9.88910867,20.8003363 9.64354768,20.5701625 C8.70279743,19.6893417 7.74436134,18.8247659 6.82265736,17.927278 C6.55442223,17.6663018 6.42540635,17.71567 6.18868828,17.9422572 C5.24226948,18.848817 4.28043227,19.7414525 3.31292652,20.6290246 C2.87848991,21.0275564 2.36151942,21.099288 1.85769993,20.8716459 C1.32213663,20.6300794 0.98134424,20.1214186 1.00764625,19.610226 C1.02578556,19.2644379 1.20853917,19.0002971 1.46362329,18.7633721 C2.6973235,17.6171447 3.92762258,16.4679635 5.15837515,15.3198373 C5.23977533,15.2434643 5.31573371,15.1624499 5.43431949,15.0445148 Z"></path>
                            <path d="M6.45967258,10.9999664 C3.45024913,10.9897241 0.982544694,8.49812704 1.00009302,5.4878171 C1.01741344,2.44427676 3.48671318,-0.00839978069 6.52576367,2.16216863e-05 C9.57096746,0.00821541859 12.0151982,2.49617081 11.9999288,5.57134831 C11.9844316,8.5755129 9.49963467,11.0104362 6.45967258,10.9999664 Z M9.19470407,5.49510047 C9.18946236,4.00041536 7.9975438,2.81049396 6.50388524,2.80912833 C4.99769216,2.80753509 3.79506228,4.019079 3.8066852,5.52742045 C3.81785231,7.01641543 5.02002639,8.19791543 6.51778716,8.19245289 C8.01098991,8.18721797 9.19971787,6.98955799 9.19470407,5.49510047 Z"></path>
                        </g>
                    </g>
                </g>
            </g>
        </g>
    </g>
</svg>