<?xml version="1.0" encoding="UTF-8"?>
<svg width="104px" height="120px" viewBox="0 0 104 120" version="1.1" xmlns="http://www.w3.org/2000/svg" xmlns:xlink="http://www.w3.org/1999/xlink">
    <!-- Generator: sketchtool 42 (36781) - http://www.bohemiancoding.com/sketch -->
    <title>B89EA171-31C9-494F-853E-52F8E3D3AFA1</title>
    <desc>Created with sketchtool.</desc>
    <defs></defs>
    <g id="Ready-To-Code" stroke="none" stroke-width="1" fill="none" fill-rule="evenodd">
        <g id="Documents-" transform="translate(-758.000000, -2533.000000)" fill-rule="nonzero">
            <g id="rules" transform="translate(0.000000, 2200.000000)">
                <g id="Group-2" transform="translate(150.000000, 280.000000)">
                    <g id="2" transform="translate(585.000000, 0.000000)">
                        <g id="PDF-icon" transform="translate(23.000000, 53.000000)">
                            <g id="Group">
                                <path d="M76,24.0001068 L76,4.0001068 L16,4.0001068 L16,20.0001068 L70,20.0001068 C71.1054688,20.0001068 72,20.894638 72,22.0001068 L72,50.0001068 C72,51.1055756 71.1054688,52.0001068 70,52.0001068 L16,52.0001068 L16,116.000107 L100,116.000107 L100,28.0001068 L80,28.0001068 C77.7910156,28.0001068 76,26.2090912 76,24.0001068 Z" id="Shape" fill="#FFFFFF"></path>
                                <path d="M103.949951,23.7491304 C103.88916,22.7974704 103.531006,21.8741304 102.828369,21.1714936 L82.8283692,1.1714936 C82.0632324,0.4063568 81.0400392,-0.0001372 79.9990236,-0.0001372 C79.9990236,-0.0001372 79.9982912,0.0001068 79.9978028,0.0001068 L14,0.0001068 C12.8945312,0.0001068 12,0.894638 12,2.0001068 L12,20.0001068 L2,20.0001068 C0.8945312,20.0001068 0,20.894638 0,22.0001068 L0,50.0001068 C0,51.1055756 0.8945312,52.0001068 2,52.0001068 L12,52.0001068 L12,118.000107 C12,119.105576 12.8945312,120.000107 14,120.000107 L102,120.000107 C103.105469,120.000107 104,119.105576 104,118.000107 L104,24.0001068 C104,23.9129488 103.961182,23.8343352 103.949951,23.7491304 Z M100,116.000107 L16,116.000107 L16,52.0001068 L70,52.0001068 C71.1054688,52.0001068 72,51.1055756 72,50.0001068 L72,22.0001068 C72,20.894638 71.1054688,20.0001068 70,20.0001068 L16,20.0001068 L16,4.0001068 L76,4.0001068 L76,24.0001068 C76,26.2090912 77.7910156,28.0001068 80,28.0001068 L100,28.0001068 L100,116.000107 Z M4,24.0001068 L68,24.0001068 L68,48.0001068 L4,48.0001068 L4,24.0001068 Z M80,24.0001068 L80,4.0001068 L100,24.0001068 L80,24.0001068 Z" id="Shape" fill="#646464"></path>
                                <polygon id="Shape" fill="#DADADA" points="80 4.0001068 80 24.0001068 100 24.0001068"></polygon>
                                <path d="M20.3671876,33.6876068 C20.3671876,32.394638 19.6054688,31.5626068 18.2968752,31.5626068 L16.1210936,31.5626068 L16.1210936,35.8477632 L18.2617184,35.8477632 C19.6054688,35.8477632 20.3671876,35.0001068 20.3671876,33.6876068 Z" id="Shape" fill="#E62F32"></path>
                                <path d="M38.7343752,35.8672944 C38.7343752,33.0704192 37.0703128,31.5626068 34.5546876,31.5626068 L32.6640624,31.5626068 L32.6640624,40.2032316 L34.5546872,40.2032316 C37.1054688,40.203232 38.7343752,38.6954192 38.7343752,35.8672944 Z" id="Shape" fill="#E62F32"></path>
                                <path d="M68,48.0001068 L68,24.0001068 L4,24.0001068 L4,48.0001068 L68,48.0001068 Z M49.1406248,30.3438568 C49.1406248,29.8672944 49.3867184,29.6016692 49.8632812,29.6016692 L55.6171876,29.6016692 C56.09375,29.6016692 56.3593752,29.867294 56.3593752,30.3438568 L56.3593752,30.8360444 C56.3593752,31.3165132 56.0937504,31.5626068 55.6171876,31.5626068 L51.40625,31.5626068 L51.40625,35.1212004 L54.8398436,35.1212004 C55.316406,35.1212004 55.5820312,35.367294 55.5820312,35.8477628 L55.5820312,36.3438564 C55.5820312,36.8204188 55.3164064,37.086044 54.8398436,37.086044 L51.40625,37.086044 L51.40625,41.4219816 C51.40625,41.9180752 51.15625,42.1641692 50.6796876,42.1641692 L49.8632812,42.1641692 C49.3867188,42.1641692 49.1406248,41.9180756 49.1406248,41.4219816 L49.1406248,30.3438568 Z M30.3984376,30.3438568 C30.3984376,29.8672944 30.6445312,29.6016692 31.121094,29.6016692 L34.6796876,29.6016692 C38.5546876,29.6016692 41.0859376,31.8985444 41.0859376,35.867294 C41.0859376,39.8282316 38.5546876,42.1641692 34.6796876,42.1641692 L31.1210936,42.1641692 C30.6445312,42.1641692 30.3984372,41.9180756 30.3984372,41.4219816 L30.3984372,30.3438568 L30.3984376,30.3438568 Z M13.8554688,30.3438568 C13.8554688,29.8672944 14.1015624,29.6016692 14.5781252,29.6016692 L18.6875,29.6016692 C21.0390624,29.6016692 22.6875,31.242294 22.6875,33.6876068 C22.6875,36.1329196 21.0390624,37.8282316 18.6875,37.8282316 L16.1210936,37.8282316 L16.1210936,41.4219816 C16.1210936,41.9180752 15.8710936,42.1641692 15.3945312,42.1641692 L14.5781248,42.1641692 C14.1015624,42.1641692 13.8554684,41.9180756 13.8554684,41.4219816 L13.8554684,30.3438568 L13.8554688,30.3438568 Z" id="Shape" fill="#E62F32"></path>
                                <path d="M14.5781248,42.1641692 L15.3945312,42.1641692 C15.8710936,42.1641692 16.1210936,41.9180756 16.1210936,41.4219816 L16.1210936,37.828232 L18.6875,37.828232 C21.0390624,37.828232 22.6875,36.1329196 22.6875,33.6876072 C22.6875,31.2422948 21.0390624,29.6016696 18.6875,29.6016696 L14.5781248,29.6016696 C14.1015624,29.6016696 13.8554684,29.8672944 13.8554684,30.3438572 L13.8554684,41.421982 C13.8554688,41.9180756 14.1015624,42.1641692 14.5781248,42.1641692 Z M16.1210936,31.5626068 L18.2968748,31.5626068 C19.6054684,31.5626068 20.3671872,32.394638 20.3671872,33.6876068 C20.3671872,35.0001068 19.6054684,35.8477632 18.2617184,35.8477632 L16.1210936,35.8477632 L16.1210936,31.5626068 Z" id="Shape" fill="#FFFFFF"></path>
                                <path d="M31.1210936,42.1641692 L34.6796872,42.1641692 C38.5546872,42.1641692 41.0859372,39.8282316 41.0859372,35.867294 C41.0859372,31.898544 38.5546872,29.6016692 34.6796872,29.6016692 L31.1210936,29.6016692 C30.6445312,29.6016692 30.3984372,29.867294 30.3984372,30.3438568 L30.3984372,41.4219816 C30.3984376,41.9180756 30.6445312,42.1641692 31.1210936,42.1641692 Z M32.6640624,31.5626068 L34.5546872,31.5626068 C37.070312,31.5626068 38.7343748,33.0704192 38.7343748,35.8672944 C38.7343748,38.6954192 37.1054684,40.203232 34.5546872,40.203232 L32.6640624,40.203232 L32.6640624,31.5626068 Z" id="Shape" fill="#FFFFFF"></path>
                                <path d="M49.8632812,42.1641692 L50.6796876,42.1641692 C51.15625,42.1641692 51.40625,41.9180756 51.40625,41.4219816 L51.40625,37.0860444 L54.8398436,37.0860444 C55.316406,37.0860444 55.5820312,36.8204196 55.5820312,36.3438568 L55.5820312,35.8477632 C55.5820312,35.3672944 55.3164064,35.1212008 54.8398436,35.1212008 L51.40625,35.1212008 L51.40625,31.5626068 L55.6171876,31.5626068 C56.09375,31.5626068 56.3593752,31.3165132 56.3593752,30.8360444 L56.3593752,30.3438568 C56.3593752,29.8672944 56.0937504,29.6016692 55.6171876,29.6016692 L49.8632812,29.6016692 C49.3867188,29.6016692 49.1406248,29.867294 49.1406248,30.3438568 L49.1406248,41.4219816 C49.1406248,41.9180756 49.3867188,42.1641692 49.8632812,42.1641692 Z" id="Shape" fill="#FFFFFF"></path>
                            </g>
                        </g>
                    </g>
                </g>
            </g>
        </g>
    </g>
</svg>