<?xml version="1.0" encoding="UTF-8"?>
<svg width="25px" height="25px" viewBox="0 0 25 25" version="1.1" xmlns="http://www.w3.org/2000/svg" xmlns:xlink="http://www.w3.org/1999/xlink">
    <g>
        <g transform="translate(-972.000000, -2515.000000)">
            <g id="search" transform="translate(932.000000, 2515.000000)">
                <path d="M64.6938776,23.2244898 L58.6836735,17.2142857 C60.1734694,15.3979592 61.0714286,13.0714286 61.0714286,10.5357143 C61.0714286,4.71938776 56.3520408,0 50.5357143,0 C44.7142857,0 40,4.71938776 40,10.5357143 C40,16.3520408 44.7142857,21.0714286 50.5357143,21.0714286 C53.0714286,21.0714286 55.3928571,20.1785714 57.2091837,18.6887755 L63.2193878,24.6938776 C63.627551,25.1020408 64.2857143,25.1020408 64.6938776,24.6938776 C65.1020408,24.2908163 65.1020408,23.627551 64.6938776,23.2244898 Z M50.5357143,18.9744898 C45.877551,18.9744898 42.0918367,15.1887755 42.0918367,10.5357143 C42.0918367,5.88265306 45.877551,2.09183673 50.5357143,2.09183673 C55.1887755,2.09183673 58.9795918,5.88265306 58.9795918,10.5357143 C58.9795918,15.1887755 55.1887755,18.9744898 50.5357143,18.9744898 Z" id="search-hover"></path>
            </g>
        </g>
    </g>
</svg>
