<?xml version="1.0" encoding="UTF-8"?>
<svg width="26px" height="22px" viewBox="0 0 26 22" version="1.1" xmlns="http://www.w3.org/2000/svg" xmlns:xlink="http://www.w3.org/1999/xlink">
    <!-- Generator: sketchtool 42 (36781) - http://www.bohemiancoding.com/sketch -->
    <title>36EFA799-02E2-48CC-A4EE-90B70760A78A</title>
    <desc>Created with sketchtool.</desc>
    <defs></defs>
    <g id="Ready-To-Code" stroke="none" stroke-width="1" fill="none" fill-rule="evenodd">
        <g id="Contacts" transform="translate(-184.000000, -1159.000000)" fill-rule="nonzero" fill="#00AAF2">
            <g id="body" transform="translate(0.000000, 165.000000)">
                <g id="Group-5" transform="translate(182.000000, 564.000000)">
                    <g id="Group-4-Copy" transform="translate(0.000000, 365.000000)">
                        <path d="M26.9471401,77.884792 C26.5347061,77.3337265 26.343564,76.6606895 26.3443421,75.9805071 C26.3444069,75.9765584 26.3444069,75.9726097 26.3444069,75.9685983 C26.3444069,69.9108262 21.264357,65 14.9978383,65 C13.6269705,65 12.3134194,65.2358575 11.0970603,65.6668946 C10.4390204,65.900057 9.71815253,65.9448718 9.04351413,65.7611624 C8.44758894,65.5988889 7.81101039,65.5304444 7.15154405,65.5743191 C4.38134455,65.7585926 2.15117996,67.953265 2.00762884,70.633943 C1.93909517,71.913453 2.33603283,73.1003875 3.04847173,74.0523419 C3.46090565,74.6034074 3.65204779,75.2764444 3.6512049,75.9566268 L3.6512049,75.9685356 C3.6512049,82.0263077 8.73118994,86.9371339 14.9977735,86.9371339 C16.3687061,86.9371339 17.6822573,86.7012764 18.8985515,86.2702393 C19.5565914,86.0370769 20.2774593,85.9922621 20.9520977,86.1759715 C21.5480229,86.338245 22.1845366,86.4066895 22.8440677,86.3628148 C25.6142672,86.1785413 27.844367,83.9839316 27.987983,81.3033162 C28.0565166,80.0238063 27.659579,78.8368091 26.9471401,77.884792 Z M15.4131899,74.0021368 C17.7010603,74.5280684 21.158347,75.3228262 21.158347,79.0042222 C21.158347,80.8177493 20.2344717,82.2011795 18.5567909,82.8996011 C17.3596239,83.3980171 16.0047061,83.4652707 14.83717,83.4652707 C11.2492997,83.4652707 8.98321487,80.768359 8.88848669,80.6535328 C8.3009256,79.9411339 8.42184829,78.9030598 9.15886076,78.3350712 C9.89567871,77.7668319 10.9695241,77.8840399 11.5572149,78.5962507 C11.5624667,78.6023305 12.9176438,80.1068547 14.83717,80.1657094 C17.1486413,80.2365983 17.676746,79.5717721 17.7450204,79.0042849 C17.8284667,78.3111909 17.1906563,77.8023704 14.6233346,77.2121937 C12.4472448,76.7118974 9.15834206,75.9558746 9.15834206,72.5654302 C9.15834206,71.5096182 9.60254655,68.0647066 15.3187859,68.0647066 C18.9281825,68.0647066 21.0586912,70.8118234 21.1476488,70.9287806 C21.7059032,71.6629288 21.5429007,72.6956125 20.7834543,73.235208 C20.0273146,73.7724843 18.9657884,73.618735 18.4053944,72.8934872 C18.3651949,72.8435328 17.1456588,71.5319316 15.3187859,71.3642678 C13.9364418,71.2373447 12.5716039,71.7192137 12.5716039,72.4310484 C12.5716039,73.1852536 12.963549,73.4389744 15.4131899,74.0021368 Z" id="skype"></path>
                    </g>
                </g>
            </g>
        </g>
    </g>
</svg>