<?xml version="1.0" encoding="UTF-8"?>
<svg width="20px" height="16px" viewBox="0 0 20 16" version="1.1" xmlns="http://www.w3.org/2000/svg" xmlns:xlink="http://www.w3.org/1999/xlink">
    <!-- Generator: sketchtool 42 (36781) - http://www.bohemiancoding.com/sketch -->
    <title>3E2FCF41-153F-48AA-8E23-5F6A6CD14108</title>
    <desc>Created with sketchtool.</desc>
    <defs></defs>
    <g id="Ready-To-Code" stroke="none" stroke-width="1" fill="none" fill-rule="evenodd">
        <g id="etalon" transform="translate(-214.000000, -4030.000000)" fill-rule="nonzero" fill="#FFFFFF">
            <g id="social-networks" transform="translate(157.000000, 4019.000000)">
                <g id="normal">
                    <g id="tw" transform="translate(48.000000, 0.000000)">
                        <path d="M29,12.8930518 C28.2802457,13.2142948 27.5079598,13.4321581 26.6965307,13.5294225 C27.525055,13.029679 28.1592695,12.2370157 28.4598568,11.2953981 C27.6826819,11.7581927 26.8248243,12.094241 25.9107604,12.2764107 C25.1787999,11.4898948 24.1376565,11 22.9828544,11 C20.7673852,11 18.9710512,12.8093696 18.9710512,15.0396927 C18.9710512,15.3560113 19.0064877,15.6649595 19.0749322,15.9603898 C15.7413436,15.791738 12.7853504,14.1830125 10.8069449,11.7384952 C10.4611113,12.3342479 10.2643732,13.0284238 10.2643732,13.7694295 C10.2643732,15.1713956 10.9731354,16.4084113 12.048501,17.1321334 C11.3910562,17.1099898 10.7727226,16.9278201 10.2313971,16.6250194 L10.2313971,16.6754862 C10.2313971,18.6325548 11.6146993,20.2659021 13.4488983,20.6376441 C13.1128426,20.7287289 12.7584775,20.7791957 12.3918741,20.7791957 C12.1328265,20.7791957 11.8823104,20.7533508 11.6366833,20.7041071 C12.1474612,22.3103864 13.6285413,23.4784609 15.3833358,23.5104854 C14.0110256,24.5936546 12.2806757,25.2373959 10.4012623,25.2373959 C10.0774448,25.2373959 9.75848417,25.2176984 9.44444444,25.1820047 C11.2200087,26.3304138 13.3279541,27 15.5935264,27 C22.9731405,27 27.0069597,20.8432126 27.0069597,15.5037426 L26.9935073,14.9806324 C27.7816741,14.4143937 28.4635314,13.7029665 29,12.8930518 Z"></path>
                    </g>
                </g>
            </g>
        </g>
    </g>
</svg>