<?xml version="1.0" encoding="UTF-8"?>
<svg width="20px" height="11px" viewBox="0 0 20 11" version="1.1" xmlns="http://www.w3.org/2000/svg" xmlns:xlink="http://www.w3.org/1999/xlink">
    <!-- Generator: sketchtool 42 (36781) - http://www.bohemiancoding.com/sketch -->
    <title>0705C6D6-39CB-4616-9A38-2D10CA0C618D</title>
    <desc>Created with sketchtool.</desc>
    <defs></defs>
    <g id="Ready-To-Code" stroke="none" stroke-width="1" fill="none" fill-rule="evenodd">
        <g id="etalon" transform="translate(-308.000000, -4032.000000)" fill-rule="nonzero" fill="#FFFFFF">
            <g id="social-networks" transform="translate(157.000000, 4019.000000)">
                <g id="normal">
                    <g id="vk" transform="translate(144.000000, 0.000000)">
                        <path d="M23.7289675,19.9943012 C24.3737425,20.6238125 25.0542815,21.216091 25.6325736,21.9090836 C25.8880312,22.2170377 26.1298857,22.5348269 26.3149009,22.8922121 C26.5770642,23.4002534 26.3396164,23.9593223 25.8840716,23.9896579 L23.0523242,23.9883806 C22.321971,24.0489879 21.7393361,23.7549563 21.2494323,23.2556005 C20.8573687,22.8562564 20.4942996,22.4312389 20.1173081,22.0184194 C19.9627562,21.8496897 19.8009877,21.6909228 19.607734,21.5654292 C19.2211628,21.314506 18.8856193,21.3913349 18.6647123,21.7945108 C18.4397181,22.2045841 18.3886904,22.65866 18.3665933,23.1156736 C18.3362577,23.7824818 18.1347017,23.9577896 17.4648919,23.9883168 C16.0334353,24.0558214 14.6749118,23.8392573 13.4128874,23.1171425 C12.3002419,22.4805422 11.4374338,21.5818424 10.6864524,20.5644186 C9.22427699,18.5832812 8.10454249,16.4063354 7.0981673,14.1683992 C6.87164028,13.6641897 7.03730453,13.3935324 7.59362731,13.3839528 C8.51742583,13.3660069 9.44109662,13.3672842 10.3659808,13.3826755 C10.7414396,13.3881678 10.9899999,13.6035186 11.1349721,13.9582214 C11.6347748,15.187164 12.2463403,16.3563934 13.0139904,17.4401723 C13.2184203,17.7287116 13.4268737,18.017251 13.7237154,18.2203398 C14.0521062,18.4452063 14.3021353,18.3706766 14.4566233,18.0048613 C14.5546551,17.7729058 14.597572,17.5230683 14.6196691,17.2746358 C14.6928577,16.4199385 14.7025012,15.5667102 14.5741338,14.7150145 C14.4953251,14.1834712 14.1959288,13.8393698 13.665535,13.7387834 C13.3948776,13.6875002 13.4351761,13.5867861 13.5662258,13.4322981 C13.7938385,13.1658558 14.007912,13 14.4346539,13 L17.6349628,13 C18.138789,13.0994369 18.2506794,13.3257723 18.319653,13.8327279 L18.3223992,17.3876119 C18.3169068,17.5838672 18.420431,18.1662466 18.7739205,18.2961468 C19.0568397,18.3886225 19.2433238,18.162287 19.4130754,17.9828919 C20.1793204,17.1696427 20.7261912,16.2085474 21.2147539,15.2133484 C21.4315735,14.7757496 21.6179937,14.3212905 21.7986661,13.8672147 C21.9325259,13.5302661 22.1425759,13.3644741 22.522122,13.3718185 L25.602238,13.3745647 C25.6935641,13.3745647 25.7859759,13.3759058 25.8744281,13.3910417 C26.3934541,13.4794939 26.5356801,13.7027638 26.3753805,14.2095917 C26.1227968,15.0047673 25.6313602,15.6674243 25.1508445,16.3331468 C24.6371831,17.0438937 24.0878216,17.7303082 23.5784391,18.4452702 C23.1104408,19.0981559 23.1476099,19.4272492 23.7289675,19.9943012 L23.7289675,19.9943012 Z"></path>
                    </g>
                </g>
            </g>
        </g>
    </g>
</svg>