<?xml version="1.0" encoding="UTF-8"?>
<svg width="104px" height="120px" viewBox="0 0 104 120" version="1.1" xmlns="http://www.w3.org/2000/svg" xmlns:xlink="http://www.w3.org/1999/xlink">
    <!-- Generator: sketchtool 42 (36781) - http://www.bohemiancoding.com/sketch -->
    <title>833C8478-011A-410F-87A9-825664AE653D</title>
    <desc>Created with sketchtool.</desc>
    <defs></defs>
    <g id="Ready-To-Code" stroke="none" stroke-width="1" fill="none" fill-rule="evenodd">
        <g id="Documents-" transform="translate(-758.000000, -1958.000000)" fill-rule="nonzero">
            <g id="dogovor" transform="translate(-1.000000, 1345.000000)">
                <g id="Group-2" transform="translate(151.000000, 280.000000)">
                    <g id="2-copy" transform="translate(585.000000, 280.000000)">
                        <g id="img">
                            <g id="XML-icon" transform="translate(23.000000, 53.000000)">
                                <g id="Group">
                                    <path d="M76,24.0001068 L76,4.0001068 L16,4.0001068 L16,20.0001068 L38,20.0001068 C39.1054688,20.0001068 40,20.894638 40,22.0001068 L40,58.0001068 C40,59.1055756 39.1054688,60.0001068 38,60.0001068 L16,60.0001068 L16,116.000107 L100,116.000107 L100,28.0001068 L80,28.0001068 C77.7907716,28.0001068 76,26.2090912 76,24.0001068 Z M40,108.000107 L24,108.000107 L24,100.000107 L40,100.000107 L40,108.000107 Z M40,92.0001068 L24,92.0001068 L24,84.0001068 L40,84.0001068 L40,92.0001068 Z M40,76.0001068 L24,76.0001068 L24,68.0001068 L40,68.0001068 L40,76.0001068 Z M68,108.000107 L48,108.000107 L48,100.000107 L68,100.000107 L68,108.000107 Z M68,92.0001068 L48,92.0001068 L48,84.0001068 L68,84.0001068 L68,92.0001068 Z M68,76.0001068 L48,76.0001068 L48,68.0001068 L68,68.0001068 L68,76.0001068 Z M68,60.0001068 L48,60.0001068 L48,52.0001068 L68,52.0001068 L68,60.0001068 Z M68,44.0001068 L48,44.0001068 L48,36.0001068 L68,36.0001068 L68,44.0001068 Z M92,108.000107 L76,108.000107 L76,100.000107 L92,100.000107 L92,108.000107 Z M92,92.0001068 L76,92.0001068 L76,84.0001068 L92,84.0001068 L92,92.0001068 Z M92,76.0001068 L76,76.0001068 L76,68.0001068 L92,68.0001068 L92,76.0001068 Z M92,60.0001068 L76,60.0001068 L76,52.0001068 L92,52.0001068 L92,60.0001068 Z M92,44.0001068 L76,44.0001068 L76,36.0001068 L92,36.0001068 L92,44.0001068 Z" id="Shape" fill="#FFFFFF"></path>
                                    <path d="M103.949951,23.7491304 C103.88916,22.7974704 103.531006,21.8741304 102.828369,21.1714936 L82.8283692,1.1714936 C82.0632324,0.4063568 81.0400392,-0.0001372 79.9990236,-0.0001372 C79.9990236,-0.0001372 79.9982912,0.0001068 79.9978028,0.0001068 L14,0.0001068 C12.8945312,0.0001068 12,0.894638 12,2.0001068 L12,20.0001068 L2,20.0001068 C0.8945312,20.0001068 0,20.894638 0,22.0001068 L0,58.0001068 C0,59.1055756 0.8945312,60.0001068 2,60.0001068 L12,60.0001068 L12,118.000107 C12,119.105576 12.8945312,120.000107 14,120.000107 L102,120.000107 C103.105469,120.000107 104,119.105576 104,118.000107 L104,24.0001068 C104,23.9129488 103.961182,23.8343352 103.949951,23.7491304 Z M100,116.000107 L16,116.000107 L16,60.0001068 L38,60.0001068 C39.1054688,60.0001068 40,59.1055756 40,58.0001068 L40,22.0001068 C40,20.894638 39.1054688,20.0001068 38,20.0001068 L16,20.0001068 L16,4.0001068 L76,4.0001068 L76,24.0001068 C76,26.2090912 77.7907716,28.0001068 80,28.0001068 L100,28.0001068 L100,116.000107 Z M4,24.0001068 L36,24.0001068 L36,56.0001068 L4,56.0001068 L4,24.0001068 Z M80,24.0001068 L80,4.0001068 L100,24.0001068 L80,24.0001068 Z" id="Shape" fill="#646464"></path>
                                    <path d="M36,56.0001068 L36,24.0001068 L4,24.0001068 L4,56.0001068 L36,56.0001068 Z M12.4453124,47.5079192 L14.191406,47.5079192 L19,40.1329192 L14.2734376,32.9454192 L12.5546876,32.9454192 L12.5546876,30.9102632 L19.0546876,30.9102632 L19.0546876,32.9454196 L17.0703124,32.9454196 L20.1640624,37.8360444 C20.4531248,38.2305756 20.6406248,38.5743256 20.6406248,38.5743256 L20.6953124,38.5743256 C20.6953124,38.5743256 20.8515624,38.2305756 21.1406248,37.8360444 L24.128906,32.9454196 L22.1992188,32.9454196 L22.1992188,30.9102632 L28.5156252,30.9102632 L28.5156252,32.9454196 L26.7734376,32.9454196 L21.9375,40.3712004 L26.6914064,47.5079192 L28.4609376,47.5079192 L28.4609376,49.5704192 L21.9609376,49.5704192 L21.9609376,47.5079192 L23.9179688,47.5079192 L20.7968752,42.644638 C20.5078128,42.2188568 20.3203128,41.8751068 20.3203128,41.8751068 L20.2695312,41.8751068 C20.2421876,41.8751068 20.1093748,42.2188568 19.847656,42.644638 L16.8359372,47.5079192 L18.789062,47.5079192 L18.789062,49.5704192 L12.4453124,49.5704192 L12.4453124,47.5079192 Z" id="Shape" fill="#009245"></path>
                                    <path d="M18.7890624,49.5704192 L18.7890624,47.5079192 L16.8359376,47.5079192 L19.8476564,42.644638 C20.1093752,42.2188568 20.2421876,41.8751068 20.2695316,41.8751068 L20.3203128,41.8751068 C20.3203128,41.8751068 20.5078128,42.2188568 20.7968752,42.644638 L23.9179688,47.5079192 L21.9609376,47.5079192 L21.9609376,49.5704192 L28.4609376,49.5704192 L28.4609376,47.5079192 L26.6914064,47.5079192 L21.9375,40.3712004 L26.7734376,32.9454192 L28.5156252,32.9454192 L28.5156252,30.9102632 L22.1992188,30.9102632 L22.1992188,32.9454196 L24.1289064,32.9454196 L21.1406248,37.8360444 C20.8515624,38.2305756 20.6953124,38.5743256 20.6953124,38.5743256 L20.6406248,38.5743256 C20.6406248,38.5743256 20.4531248,38.2305756 20.1640624,37.8360444 L17.0703124,32.9454192 L19.0546876,32.9454192 L19.0546876,30.9102632 L12.5546876,30.9102632 L12.5546876,32.9454196 L14.2734376,32.9454196 L19,40.1329192 L14.1914064,47.5079192 L12.4453124,47.5079192 L12.4453124,49.5704192 L18.7890624,49.5704192 Z" id="Shape" fill="#FFFFFF"></path>
                                    <rect id="Rectangle-path" fill="#DADADA" x="76" y="100.000107" width="16" height="8"></rect>
                                    <rect id="Rectangle-path" fill="#DADADA" x="76" y="84.0001068" width="16" height="8"></rect>
                                    <rect id="Rectangle-path" fill="#DADADA" x="76" y="68.0001068" width="16" height="8"></rect>
                                    <rect id="Rectangle-path" fill="#DADADA" x="76" y="52.0001068" width="16" height="8"></rect>
                                    <rect id="Rectangle-path" fill="#DADADA" x="76" y="36.0001068" width="16" height="8"></rect>
                                    <rect id="Rectangle-path" fill="#DADADA" x="48" y="100.000107" width="20" height="8"></rect>
                                    <rect id="Rectangle-path" fill="#DADADA" x="48" y="84.0001068" width="20" height="8"></rect>
                                    <rect id="Rectangle-path" fill="#DADADA" x="48" y="68.0001068" width="20" height="8"></rect>
                                    <rect id="Rectangle-path" fill="#DADADA" x="48" y="52.0001068" width="20" height="8"></rect>
                                    <rect id="Rectangle-path" fill="#DADADA" x="48" y="36.0001068" width="20" height="8"></rect>
                                    <rect id="Rectangle-path" fill="#DADADA" x="24" y="100.000107" width="16" height="8"></rect>
                                    <rect id="Rectangle-path" fill="#DADADA" x="24" y="84.0001068" width="16" height="8"></rect>
                                    <rect id="Rectangle-path" fill="#DADADA" x="24" y="68.0001068" width="16" height="8"></rect>
                                    <polygon id="Shape" fill="#DADADA" points="80 4.0001068 80 24.0001068 100 24.0001068"></polygon>
                                </g>
                            </g>
                        </g>
                    </g>
                </g>
            </g>
        </g>
    </g>
</svg>